  0
SECTION
  2
HEADER
  9
$ACADVER
  1
AC1009
  0
ENDSEC
  0
SECTION
  2
TABLES
  0
TABLE
  2
LTYPE
 70
     3
  0
LTYPE
  2
LINETYPE_1
 70
    64
  3
See CAD-STD manual for LINETYPE_1
 72
    65
 73
     0
 40
0.0
  0
LTYPE
  2
LINETYPE_2
 70
    64
  3
See CAD-STD manual for LINETYPE_2
 72
    65
 73
     0
 40
0.0
  0
LTYPE
  2
LINETYPE_3
 70
    64
  3
See CAD-STD manual for LINETYPE_3
 72
    65
 73
     2
 40
0.1562
 49
0.125
 49
-0.0312
  0
LTYPE
  2
LINETYPE_4
 70
    64
  3
See CAD-STD manual for LINETYPE_4
 72
    65
 73
     4
 40
1.0
 49
0.75
 49
-0.0625
 49
0.125
 49
-0.0625
  0
LTYPE
  2
LINETYPE_5
 70
    64
  3
See CAD-STD manual for LINETYPE_5
 72
    65
 73
     2
 40
0.3125
 49
0.25
 49
-0.0625
  0
LTYPE
  2
LINETYPE_6
 70
    64
  3
See CAD-STD manual for LINETYPE_6
 72
    65
 73
     6
 40
1.1875
 49
0.75
 49
-0.0625
 49
0.125
 49
-0.0625
 49
0.125
 49
-0.0625
  0
LTYPE
  2
LINETYPE_7
 70
    64
  3
See CAD-STD manual for LINETYPE_7
 72
    65
 73
     6
 40
1.1875
 49
0.75
 49
-0.0625
 49
0.125
 49
-0.0625
 49
0.125
 49
-0.0625
  0
LTYPE
  2
LINETYPE_8
 70
    64
  3
See CAD-STD manual for LINETYPE_8
 72
    65
 73
     2
 40
0.125
 49
0.0625
 49
-0.0625
  0
LTYPE
  2
LINETYPE_9
 70
    64
  3
See CAD-STD manual for LINETYPE_9
 72
    65
 73
     2
 40
0.0625
 49
0.0001
 49
-0.0624
  0
LTYPE
  2
LINETYPE_10
 70
    64
  3
See CAD-STD manual for LINETYPE_10
 72
    65
 73
     4
 40
0.5625
 49
0.375
 49
-0.0625
 49
0.0625
 49
-0.0625
  0
LTYPE
  2
LINETYPE_11
 70
    64
  3
See CAD-STD manual for LINETYPE_11
 72
    65
 73
     0
 40
0.0
  0
ENDTAB
  0
TABLE
  2
LAYER
 70
     1
  0
LAYER
  2
0
 70
     0
 62
     7
  6
CONTINUOUS
  0
ENDTAB
  0
ENDSEC
  0
SECTION
  2
ENTITIES
  0
POLYLINE
  8
0
  6
LINETYPE_1
 66
     1
 70
     1
 10
0.0
 20
0.0
 30
0.0
  0
VERTEX
  8
0
 10
9.7441
 20
8.0709
 30
0.0
  0
VERTEX
  8
0
 10
14.7441
 20
8.0709
 30
0.0
  0
VERTEX
  8
0
 10
14.7441
 20
4.7244
 30
0.0
  0
VERTEX
  8
0
 10
9.7441
 20
4.7244
 30
0.0
  0
SEQEND
  0
CIRCLE
  8
0
  6
LINETYPE_1
 10
14.1535
 20
7.8937
 30
0.0
 40
0.0985
  0
CIRCLE
  8
0
  6
LINETYPE_1
 10
14.1535
 20
4.9016
 30
0.0
 40
0.0985
  0
CIRCLE
  8
0
  6
LINETYPE_1
 10
10.5315
 20
4.9016
 30
0.0
 40
0.0985
  0
CIRCLE
  8
0
  6
LINETYPE_1
 10
10.5315
 20
7.8937
 30
0.0
 40
0.0985
  0
POLYLINE
  8
0
  6
LINETYPE_1
 66
     1
 70
     1
 10
0.0
 20
0.0
 30
0.0
  0
VERTEX
  8
0
 10
9.2716
 20
7.9527
 30
0.0
  0
VERTEX
  8
0
 10
10.3346
 20
7.9527
 30
0.0
  0
VERTEX
  8
0
 10
10.3346
 20
4.8425
 30
0.0
  0
VERTEX
  8
0
 10
9.2716
 20
4.8425
 30
0.0
  0
SEQEND
  0
POLYLINE
  8
0
  6
LINETYPE_1
 66
     1
 70
     1
 10
0.0
 20
0.0
 30
0.0
  0
VERTEX
  8
0
 10
11.5157
 20
6.7913
 30
0.0
  0
VERTEX
  8
0
 10
12.3031
 20
6.7913
 30
0.0
  0
VERTEX
  8
0
 10
12.3031
 20
6.0039
 30
0.0
  0
VERTEX
  8
0
 10
11.5157
 20
6.0039
 30
0.0
  0
SEQEND
  0
POLYLINE
  8
0
  6
LINETYPE_1
 66
     1
 70
     1
 10
0.0
 20
0.0
 30
0.0
  0
VERTEX
  8
0
 10
13.1693
 20
7.126
 30
0.0
  0
VERTEX
  8
0
 10
13.9567
 20
7.126
 30
0.0
  0
VERTEX
  8
0
 10
13.9567
 20
6.6732
 30
0.0
  0
VERTEX
  8
0
 10
13.1693
 20
6.6732
 30
0.0
  0
SEQEND
  0
POLYLINE
  8
0
  6
LINETYPE_1
 66
     1
 70
     1
 10
0.0
 20
0.0
 30
0.0
  0
VERTEX
  8
0
 10
13.1693
 20
6.1417
 30
0.0
  0
VERTEX
  8
0
 10
13.9567
 20
6.1417
 30
0.0
  0
VERTEX
  8
0
 10
13.9567
 20
5.6889
 30
0.0
  0
VERTEX
  8
0
 10
13.1693
 20
5.6889
 30
0.0
  0
SEQEND
  0
TEXT
  8
0
 10
13.4646
 20
5.8858
 30
0.0
 40
0.1378
  1
4
 50
0.000000
  0
TEXT
  8
0
 10
13.4646
 20
6.7913
 30
0.0
 40
0.1378
  1
4
 50
0.000000
  0
TEXT
  8
0
 10
11.9292
 20
6.3189
 30
0.0
 40
0.1378
  1
2
 50
0.000000
  0
TEXT
  8
0
 10
9.9213
 20
6.3582
 30
0.0
 40
0.1378
  1
10
 50
0.000000
  0
POLYLINE
  8
0
  6
LINETYPE_1
 66
     1
 70
     1
 10
0.0
 20
0.0
 30
0.0
  0
VERTEX
  8
0
 10
14.4685
 20
8.0117
 30
0.0
  0
VERTEX
  8
0
 10
15.2559
 20
8.0117
 30
0.0
  0
VERTEX
  8
0
 10
15.2559
 20
7.6574
 30
0.0
  0
VERTEX
  8
0
 10
14.4685
 20
7.6574
 30
0.0
  0
SEQEND
  0
POLYLINE
  8
0
  6
LINETYPE_1
 66
     1
 70
     1
 10
0.0
 20
0.0
 30
0.0
  0
VERTEX
  8
0
 10
14.4685
 20
7.5393
 30
0.0
  0
VERTEX
  8
0
 10
15.2559
 20
7.5393
 30
0.0
  0
VERTEX
  8
0
 10
15.2559
 20
7.185
 30
0.0
  0
VERTEX
  8
0
 10
14.4685
 20
7.185
 30
0.0
  0
SEQEND
  0
POLYLINE
  8
0
  6
LINETYPE_1
 66
     1
 70
     1
 10
0.0
 20
0.0
 30
0.0
  0
VERTEX
  8
0
 10
14.4685
 20
7.0669
 30
0.0
  0
VERTEX
  8
0
 10
15.2559
 20
7.0669
 30
0.0
  0
VERTEX
  8
0
 10
15.2559
 20
6.7126
 30
0.0
  0
VERTEX
  8
0
 10
14.4685
 20
6.7126
 30
0.0
  0
SEQEND
  0
POLYLINE
  8
0
  6
LINETYPE_1
 66
     1
 70
     1
 10
0.0
 20
0.0
 30
0.0
  0
VERTEX
  8
0
 10
14.4685
 20
6.5944
 30
0.0
  0
VERTEX
  8
0
 10
15.2559
 20
6.5944
 30
0.0
  0
VERTEX
  8
0
 10
15.2559
 20
6.2401
 30
0.0
  0
VERTEX
  8
0
 10
14.4685
 20
6.2401
 30
0.0
  0
SEQEND
  0
POLYLINE
  8
0
  6
LINETYPE_1
 66
     1
 70
     1
 10
0.0
 20
0.0
 30
0.0
  0
VERTEX
  8
0
 10
14.4685
 20
6.122
 30
0.0
  0
VERTEX
  8
0
 10
15.2559
 20
6.122
 30
0.0
  0
VERTEX
  8
0
 10
15.2559
 20
5.7677
 30
0.0
  0
VERTEX
  8
0
 10
14.4685
 20
5.7677
 30
0.0
  0
SEQEND
  0
POLYLINE
  8
0
  6
LINETYPE_1
 66
     1
 70
     1
 10
0.0
 20
0.0
 30
0.0
  0
VERTEX
  8
0
 10
14.4685
 20
5.6495
 30
0.0
  0
VERTEX
  8
0
 10
15.2559
 20
5.6495
 30
0.0
  0
VERTEX
  8
0
 10
15.2559
 20
5.2952
 30
0.0
  0
VERTEX
  8
0
 10
14.4685
 20
5.2952
 30
0.0
  0
SEQEND
  0
POLYLINE
  8
0
  6
LINETYPE_1
 66
     1
 70
     1
 10
0.0
 20
0.0
 30
0.0
  0
VERTEX
  8
0
 10
14.4685
 20
5.1771
 30
0.0
  0
VERTEX
  8
0
 10
15.2559
 20
5.1771
 30
0.0
  0
VERTEX
  8
0
 10
15.2559
 20
4.8228
 30
0.0
  0
VERTEX
  8
0
 10
14.4685
 20
4.8228
 30
0.0
  0
SEQEND
  0
TEXT
  8
0
 10
14.8819
 20
7.7558
 30
0.0
 40
0.1378
  1
5
 50
0.000000
  0
TEXT
  8
0
 10
14.8819
 20
7.3227
 30
0.0
 40
0.1378
  1
5
 50
0.000000
  0
TEXT
  8
0
 10
14.8819
 20
6.8109
 30
0.0
 40
0.1378
  1
5
 50
0.000000
  0
TEXT
  8
0
 10
14.8819
 20
6.2991
 30
0.0
 40
0.1378
  1
5
 50
0.000000
  0
TEXT
  8
0
 10
14.8819
 20
5.8266
 30
0.0
 40
0.1378
  1
5
 50
0.000000
  0
TEXT
  8
0
 10
14.8819
 20
5.3344
 30
0.0
 40
0.1378
  1
5
 50
0.000000
  0
TEXT
  8
0
 10
14.8819
 20
4.9013
 30
0.0
 40
0.1378
  1
5
 50
0.000000
  0
ENDSEC
  0
EOF
