  0
SECTION
  2
HEADER
  9
$ACADVER
  1
AC1018
  9
$ACADMAINTVER
 70
     0
  9
$DWGCODEPAGE
  3
ANSI_1252
  9
$INSBASE
 10
0.0
 20
0.0
 30
0.0
  9
$EXTMIN
 10
1.000000E+20
 20
1.000000E+20
 30
1.000000E+20
  9
$EXTMAX
 10
-1.000000E+20
 20
-1.000000E+20
 30
-1.000000E+20
  9
$LIMMIN
 10
0.0
 20
0.0
  9
$LIMMAX
 10
420.0
 20
297.0
  9
$ORTHOMODE
 70
     0
  9
$REGENMODE
 70
     1
  9
$FILLMODE
 70
     1
  9
$QTEXTMODE
 70
     0
  9
$MIRRTEXT
 70
     1
  9
$LTSCALE
 40
1.0
  9
$ATTMODE
 70
     1
  9
$TEXTSIZE
 40
2.5
  9
$TRACEWID
 40
1.0
  9
$TEXTSTYLE
  7
Standard
  9
$CLAYER
  8
0
  9
$CELTYPE
  6
ByLayer
  9
$CECOLOR
 62
   256
  9
$CELTSCALE
 40
1.0
  9
$DISPSILH
 70
     0
  9
$DIMSCALE
 40
1.0
  9
$DIMASZ
 40
2.5
  9
$DIMEXO
 40
0.625
  9
$DIMDLI
 40
3.75
  9
$DIMRND
 40
0.0
  9
$DIMDLE
 40
0.0
  9
$DIMEXE
 40
1.25
  9
$DIMTP
 40
0.0
  9
$DIMTM
 40
0.0
  9
$DIMTXT
 40
2.5
  9
$DIMCEN
 40
2.5
  9
$DIMTSZ
 40
0.0
  9
$DIMTOL
 70
     0
  9
$DIMLIM
 70
     0
  9
$DIMTIH
 70
     0
  9
$DIMTOH
 70
     0
  9
$DIMSE1
 70
     0
  9
$DIMSE2
 70
     0
  9
$DIMTAD
 70
     1
  9
$DIMZIN
 70
     8
  9
$DIMBLK
  1

  9
$DIMASO
 70
     1
  9
$DIMSHO
 70
     1
  9
$DIMPOST
  1

  9
$DIMAPOST
  1

  9
$DIMALT
 70
     0
  9
$DIMALTD
 70
     3
  9
$DIMALTF
 40
0.03937
  9
$DIMLFAC
 40
1.0
  9
$DIMTOFL
 70
     1
  9
$DIMTVP
 40
0.0
  9
$DIMTIX
 70
     0
  9
$DIMSOXD
 70
     0
  9
$DIMSAH
 70
     0
  9
$DIMBLK1
  1

  9
$DIMBLK2
  1

  9
$DIMSTYLE
  2
ISO-25
  9
$DIMCLRD
 70
     0
  9
$DIMCLRE
 70
     0
  9
$DIMCLRT
 70
     0
  9
$DIMTFAC
 40
1.0
  9
$DIMGAP
 40
0.625
  9
$DIMJUST
 70
     0
  9
$DIMSD1
 70
     0
  9
$DIMSD2
 70
     0
  9
$DIMTOLJ
 70
     0
  9
$DIMTZIN
 70
     8
  9
$DIMALTZ
 70
     0
  9
$DIMALTTZ
 70
     0
  9
$DIMUPT
 70
     0
  9
$DIMDEC
 70
     2
  9
$DIMTDEC
 70
     2
  9
$DIMALTU
 70
     2
  9
$DIMALTTD
 70
     3
  9
$DIMTXSTY
  7
Standard
  9
$DIMAUNIT
 70
     0
  9
$DIMADEC
 70
     0
  9
$DIMALTRND
 40
0.0
  9
$DIMAZIN
 70
     0
  9
$DIMDSEP
 70
    44
  9
$DIMATFIT
 70
     3
  9
$DIMFRAC
 70
     0
  9
$DIMLDRBLK
  1

  9
$DIMLUNIT
 70
     2
  9
$DIMLWD
 70
    -2
  9
$DIMLWE
 70
    -2
  9
$DIMTMOVE
 70
     0
  9
$LUNITS
 70
     2
  9
$LUPREC
 70
     4
  9
$SKETCHINC
 40
1.0
  9
$FILLETRAD
 40
10.0
  9
$AUNITS
 70
     0
  9
$AUPREC
 70
     0
  9
$MENU
  1
.
  9
$ELEVATION
 40
0.0
  9
$PELEVATION
 40
0.0
  9
$THICKNESS
 40
0.0
  9
$LIMCHECK
 70
     0
  9
$CHAMFERA
 40
10.0
  9
$CHAMFERB
 40
10.0
  9
$CHAMFERC
 40
20.0
  9
$CHAMFERD
 40
0.0
  9
$SKPOLY
 70
     0
  9
$TDCREATE
 40
2454449.629623842
  9
$TDUCREATE
 40
2454449.546290509
  9
$TDUPDATE
 40
2454449.629623854
  9
$TDUUPDATE
 40
2454449.546290521
  9
$TDINDWG
 40
0.0000000116
  9
$TDUSRTIMER
 40
0.0000000116
  9
$USRTIMER
 70
     1
  9
$ANGBASE
 50
0.0
  9
$ANGDIR
 70
     0
  9
$PDMODE
 70
     0
  9
$PDSIZE
 40
0.0
  9
$PLINEWID
 40
0.0
  9
$SPLFRAME
 70
     0
  9
$SPLINETYPE
 70
     6
  9
$SPLINESEGS
 70
     8
  9
$HANDSEED
  5
33F
  9
$SURFTAB1
 70
     6
  9
$SURFTAB2
 70
     6
  9
$SURFTYPE
 70
     6
  9
$SURFU
 70
     6
  9
$SURFV
 70
     6
  9
$UCSBASE
  2

  9
$UCSNAME
  2

  9
$UCSORG
 10
0.0
 20
0.0
 30
0.0
  9
$UCSXDIR
 10
1.0
 20
0.0
 30
0.0
  9
$UCSYDIR
 10
0.0
 20
1.0
 30
0.0
  9
$UCSORTHOREF
  2

  9
$UCSORTHOVIEW
 70
     0
  9
$UCSORGTOP
 10
0.0
 20
0.0
 30
0.0
  9
$UCSORGBOTTOM
 10
0.0
 20
0.0
 30
0.0
  9
$UCSORGLEFT
 10
0.0
 20
0.0
 30
0.0
  9
$UCSORGRIGHT
 10
0.0
 20
0.0
 30
0.0
  9
$UCSORGFRONT
 10
0.0
 20
0.0
 30
0.0
  9
$UCSORGBACK
 10
0.0
 20
0.0
 30
0.0
  9
$PUCSBASE
  2

  9
$PUCSNAME
  2

  9
$PUCSORG
 10
0.0
 20
0.0
 30
0.0
  9
$PUCSXDIR
 10
1.0
 20
0.0
 30
0.0
  9
$PUCSYDIR
 10
0.0
 20
1.0
 30
0.0
  9
$PUCSORTHOREF
  2

  9
$PUCSORTHOVIEW
 70
     0
  9
$PUCSORGTOP
 10
0.0
 20
0.0
 30
0.0
  9
$PUCSORGBOTTOM
 10
0.0
 20
0.0
 30
0.0
  9
$PUCSORGLEFT
 10
0.0
 20
0.0
 30
0.0
  9
$PUCSORGRIGHT
 10
0.0
 20
0.0
 30
0.0
  9
$PUCSORGFRONT
 10
0.0
 20
0.0
 30
0.0
  9
$PUCSORGBACK
 10
0.0
 20
0.0
 30
0.0
  9
$USERI1
 70
     0
  9
$USERI2
 70
     0
  9
$USERI3
 70
     0
  9
$USERI4
 70
     0
  9
$USERI5
 70
     0
  9
$USERR1
 40
0.0
  9
$USERR2
 40
0.0
  9
$USERR3
 40
0.0
  9
$USERR4
 40
0.0
  9
$USERR5
 40
0.0
  9
$WORLDVIEW
 70
     1
  9
$SHADEDGE
 70
     3
  9
$SHADEDIF
 70
    70
  9
$TILEMODE
 70
     1
  9
$MAXACTVP
 70
    64
  9
$PINSBASE
 10
0.0
 20
0.0
 30
0.0
  9
$PLIMCHECK
 70
     0
  9
$PEXTMIN
 10
1.000000E+20
 20
1.000000E+20
 30
1.000000E+20
  9
$PEXTMAX
 10
-1.000000E+20
 20
-1.000000E+20
 30
-1.000000E+20
  9
$PLIMMIN
 10
0.0
 20
0.0
  9
$PLIMMAX
 10
420.0
 20
297.0
  9
$UNITMODE
 70
     0
  9
$VISRETAIN
 70
     1
  9
$PLINEGEN
 70
     0
  9
$PSLTSCALE
 70
     1
  9
$TREEDEPTH
 70
  3020
  9
$CMLSTYLE
  2
Standard
  9
$CMLJUST
 70
     0
  9
$CMLSCALE
 40
20.0
  9
$PROXYGRAPHICS
 70
     1
  9
$MEASUREMENT
 70
     1
  9
$CELWEIGHT
370
    -1
  9
$ENDCAPS
280
     0
  9
$JOINSTYLE
280
     0
  9
$LWDISPLAY
290
     0
  9
$INSUNITS
 70
     4
  9
$HYPERLINKBASE
  1

  9
$STYLESHEET
  1

  9
$XEDIT
290
     1
  9
$CEPSNTYPE
380
     0
  9
$PSTYLEMODE
290
     1
  9
$FINGERPRINTGUID
  2
{ADA0DB26-6DB6-4651-85E8-448B4AEA01B7}
  9
$VERSIONGUID
  2
{FAEB1C32-E019-11D5-929B-00C0DF256EC4}
  9
$EXTNAMES
290
     1
  9
$PSVPSCALE
 40
0.0
  9
$OLESTARTUP
290
     0
  9
$SORTENTS
280
   127
  9
$INDEXCTL
280
     0
  9
$HIDETEXT
280
     1
  9
$XCLIPFRAME
290
     0
  9
$HALOGAP
280
     0
  9
$OBSCOLOR
 70
   257
  9
$OBSLTYPE
280
     0
  9
$INTERSECTIONDISPLAY
280
     0
  9
$INTERSECTIONCOLOR
 70
   257
  9
$DIMASSOC
280
     2
  9
$PROJECTNAME
  1

  0
ENDSEC
  0
SECTION
  2
CLASSES
  0
CLASS
  1
ACDBDICTIONARYWDFLT
  2
AcDbDictionaryWithDefault
  3
ObjectDBX Classes
 90
        0
 91
        3
280
     0
281
     0
  0
CLASS
  1
VISUALSTYLE
  2
AcDbVisualStyle
  3
ObjectDBX Classes
 90
     4095
 91
        3
280
     0
281
     0
  0
ENDSEC
  0
SECTION
  2
TABLES
  0
TABLE
  2
VPORT
  5
8
330
0
100
AcDbSymbolTable
 70
     1
  0
VPORT
  5
29
330
8
100
AcDbSymbolTableRecord
100
AcDbViewportTableRecord
  2
*Active
 70
     0
 10
0.0
 20
0.0
 11
1.0
 21
1.0
 12
344.186916
 22
148.5
 13
0.0
 23
0.0
 14
10.0
 24
10.0
 15
10.0
 25
10.0
 16
0.0
 26
0.0
 36
1.0
 17
0.0
 27
0.0
 37
0.0
 40
297.0
 41
1.972973
 42
50.0
 43
0.0
 44
0.0
 50
0.0
 51
0.0
 71
     0
 72
   100
 73
     1
 74
     3
 75
     0
 76
     0
 77
     0
 78
     0
281
     0
 65
     1
110
0.0
120
0.0
130
0.0
111
1.0
121
0.0
131
0.0
112
0.0
122
1.0
132
0.0
 79
     0
146
0.0
  0
ENDTAB
  0
TABLE
  2
LTYPE
  5
5
330
0
100
AcDbSymbolTable
 70
     1
  0
LTYPE
  5
14
330
5
100
AcDbSymbolTableRecord
100
AcDbLinetypeTableRecord
  2
ByBlock
 70
     0
  3

 72
    65
 73
     0
 40
0.0
  0
LTYPE
  5
15
330
5
100
AcDbSymbolTableRecord
100
AcDbLinetypeTableRecord
  2
ByLayer
 70
     0
  3

 72
    65
 73
     0
 40
0.0
  0
LTYPE
  5
16
330
5
100
AcDbSymbolTableRecord
100
AcDbLinetypeTableRecord
  2
Continuous
 70
     0
  3
Solid line
 72
    65
 73
     0
 40
0.0
  0
ENDTAB
  0
TABLE
  2
LAYER
  5
2
330
0
100
AcDbSymbolTable
 70
     1
  0
LAYER
  5
10
330
2
100
AcDbSymbolTableRecord
100
AcDbLayerTableRecord
  2
0
 70
     0
 62
     7
  6
Continuous
370
    -3
390
F
  0
ENDTAB
  0
TABLE
  2
STYLE
  5
3
330
0
100
AcDbSymbolTable
 70
     2
  0
STYLE
  5
11
330
3
100
AcDbSymbolTableRecord
100
AcDbTextStyleTableRecord
  2
Standard
 70
     0
 40
0.0
 41
1.0
 50
0.0
 71
     0
 42
2.5
  3
txt
  4

1001
ACAD
1000
txt
1071
        0
  0
STYLE
  5
3B
330
3
100
AcDbSymbolTableRecord
100
AcDbTextStyleTableRecord
  2
Default
 70
     0
 40
0.0
 41
1.0
 50
0.0
 71
     0
 42
0.2
  3

  4

1001
ACAD
1000
txt
1071
        0
  0
ENDTAB
  0
TABLE
  2
VIEW
  5
6
330
0
100
AcDbSymbolTable
 70
     0
  0
ENDTAB
  0
TABLE
  2
UCS
  5
7
330
0
100
AcDbSymbolTable
 70
     0
  0
ENDTAB
  0
TABLE
  2
APPID
  5
9
330
0
100
AcDbSymbolTable
 70
     1
  0
APPID
  5
12
330
9
100
AcDbSymbolTableRecord
100
AcDbRegAppTableRecord
  2
ACAD
 70
     0
  0
ENDTAB
  0
TABLE
  2
DIMSTYLE
  5
A
330
0
100
AcDbSymbolTable
 70
     3
100
AcDbDimStyleTable
  0
DIMSTYLE
105
27
330
A
100
AcDbSymbolTableRecord
100
AcDbDimStyleTableRecord
  2
ISO-25
 70
     0
  3
<>
 42
1.215278
 43
3.75
 44
3.5
140
3.5
141
2.5
143
0.03937
147
3.5
171
     3
172
     1
178
     2
274
     3
283
     0
340
11
  0
DIMSTYLE
105
3C
330
A
100
AcDbSymbolTableRecord
100
AcDbDimStyleTableRecord
  2
Default
 70
     0
  3
<>
 41
4.375
 42
1.05
 44
2.1
 73
     0
 74
     0
 77
     1
 78
     8
 79
    10
140
3.5
146
0.4
147
1.75
178
     2
179
     1
271
     2
272
     3
284
     8
340
3B
341
3D
342
3D
  0
DIMSTYLE
105
44
330
A
100
AcDbSymbolTableRecord
100
AcDbDimStyleTableRecord
  2
DefaultDimensionStyle
 70
     0
  3
<>
 42
1.215278
 44
3.5
140
3.5
147
3.5
178
     2
340
11
  0
ENDTAB
  0
TABLE
  2
BLOCK_RECORD
  5
1
330
0
100
AcDbSymbolTable
 70
    50
  0
BLOCK_RECORD
  5
1F
330
1
100
AcDbSymbolTableRecord
100
AcDbBlockTableRecord
  2
*Model_Space
340
22
  0
BLOCK_RECORD
  5
1B
330
1
100
AcDbSymbolTableRecord
100
AcDbBlockTableRecord
  2
*Paper_Space
340
1E
  0
BLOCK_RECORD
  5
23
330
1
100
AcDbSymbolTableRecord
100
AcDbBlockTableRecord
  2
*Paper_Space0
340
26
  0
BLOCK_RECORD
  5
3D
330
1
100
AcDbSymbolTableRecord
100
AcDbBlockTableRecord
  2
_CLOSED
340
0
  0
BLOCK_RECORD
  5
45
330
1
100
AcDbSymbolTableRecord
100
AcDbBlockTableRecord
  2
LW_Polyline_1
340
0
102
{BLKREFS
331
50
102
}
  0
BLOCK_RECORD
  5
51
330
1
100
AcDbSymbolTableRecord
100
AcDbBlockTableRecord
  2
LW_Polyline_2
340
0
102
{BLKREFS
331
74
102
}
  0
BLOCK_RECORD
  5
77
330
1
100
AcDbSymbolTableRecord
100
AcDbBlockTableRecord
  2
LW_Polyline_3
340
0
102
{BLKREFS
331
9A
102
}
  0
BLOCK_RECORD
  5
9D
330
1
100
AcDbSymbolTableRecord
100
AcDbBlockTableRecord
  2
LW_Polyline_4
340
0
102
{BLKREFS
331
C0
102
}
  0
BLOCK_RECORD
  5
C3
330
1
100
AcDbSymbolTableRecord
100
AcDbBlockTableRecord
  2
LW_Polyline_5
340
0
102
{BLKREFS
331
E6
102
}
  0
BLOCK_RECORD
  5
E9
330
1
100
AcDbSymbolTableRecord
100
AcDbBlockTableRecord
  2
LW_Polyline_6
340
0
102
{BLKREFS
331
10C
102
}
  0
BLOCK_RECORD
  5
10F
330
1
100
AcDbSymbolTableRecord
100
AcDbBlockTableRecord
  2
LW_Polyline_7
340
0
102
{BLKREFS
331
132
102
}
  0
BLOCK_RECORD
  5
135
330
1
100
AcDbSymbolTableRecord
100
AcDbBlockTableRecord
  2
LW_Polyline_8
340
0
102
{BLKREFS
331
158
102
}
  0
BLOCK_RECORD
  5
15B
330
1
100
AcDbSymbolTableRecord
100
AcDbBlockTableRecord
  2
LW_Polyline_9
340
0
102
{BLKREFS
331
17E
102
}
  0
BLOCK_RECORD
  5
181
330
1
100
AcDbSymbolTableRecord
100
AcDbBlockTableRecord
  2
LW_Polyline_10
340
0
102
{BLKREFS
331
1A4
102
}
  0
BLOCK_RECORD
  5
1A7
330
1
100
AcDbSymbolTableRecord
100
AcDbBlockTableRecord
  2
LW_Polyline_11
340
0
102
{BLKREFS
331
1B0
102
}
  0
BLOCK_RECORD
  5
1B1
330
1
100
AcDbSymbolTableRecord
100
AcDbBlockTableRecord
  2
LW_Polyline_12
340
0
102
{BLKREFS
331
1B8
102
}
  0
BLOCK_RECORD
  5
1B9
330
1
100
AcDbSymbolTableRecord
100
AcDbBlockTableRecord
  2
LW_Polyline_13
340
0
102
{BLKREFS
331
1C2
102
}
  0
BLOCK_RECORD
  5
1C3
330
1
100
AcDbSymbolTableRecord
100
AcDbBlockTableRecord
  2
LW_Polyline_14
340
0
102
{BLKREFS
331
1CA
102
}
  0
BLOCK_RECORD
  5
1CB
330
1
100
AcDbSymbolTableRecord
100
AcDbBlockTableRecord
  2
LW_Polyline_15
340
0
102
{BLKREFS
331
1D2
102
}
  0
BLOCK_RECORD
  5
1D3
330
1
100
AcDbSymbolTableRecord
100
AcDbBlockTableRecord
  2
LW_Polyline_16
340
0
102
{BLKREFS
331
1DC
102
}
  0
BLOCK_RECORD
  5
1DD
330
1
100
AcDbSymbolTableRecord
100
AcDbBlockTableRecord
  2
LW_Polyline_17
340
0
102
{BLKREFS
331
1E4
102
}
  0
BLOCK_RECORD
  5
1E5
330
1
100
AcDbSymbolTableRecord
100
AcDbBlockTableRecord
  2
LW_Polyline_18
340
0
102
{BLKREFS
331
1EE
102
}
  0
BLOCK_RECORD
  5
1EF
330
1
100
AcDbSymbolTableRecord
100
AcDbBlockTableRecord
  2
LW_Polyline_19
340
0
102
{BLKREFS
331
1F6
102
}
  0
BLOCK_RECORD
  5
1F7
330
1
100
AcDbSymbolTableRecord
100
AcDbBlockTableRecord
  2
LW_Polyline_20
340
0
102
{BLKREFS
331
1FE
102
}
  0
BLOCK_RECORD
  5
1FF
330
1
100
AcDbSymbolTableRecord
100
AcDbBlockTableRecord
  2
LW_Polyline_21
340
0
102
{BLKREFS
331
206
102
}
  0
BLOCK_RECORD
  5
207
330
1
100
AcDbSymbolTableRecord
100
AcDbBlockTableRecord
  2
LW_Polyline_22
340
0
102
{BLKREFS
331
20E
102
}
  0
BLOCK_RECORD
  5
20F
330
1
100
AcDbSymbolTableRecord
100
AcDbBlockTableRecord
  2
LW_Polyline_23
340
0
102
{BLKREFS
331
216
102
}
  0
BLOCK_RECORD
  5
217
330
1
100
AcDbSymbolTableRecord
100
AcDbBlockTableRecord
  2
LW_Polyline_24
340
0
102
{BLKREFS
331
21E
102
}
  0
BLOCK_RECORD
  5
21F
330
1
100
AcDbSymbolTableRecord
100
AcDbBlockTableRecord
  2
LW_Polyline_25
340
0
102
{BLKREFS
331
226
102
}
  0
BLOCK_RECORD
  5
227
330
1
100
AcDbSymbolTableRecord
100
AcDbBlockTableRecord
  2
LW_Polyline_26
340
0
102
{BLKREFS
331
22D
102
}
  0
BLOCK_RECORD
  5
22E
330
1
100
AcDbSymbolTableRecord
100
AcDbBlockTableRecord
  2
LW_Polyline_27
340
0
102
{BLKREFS
331
238
102
}
  0
BLOCK_RECORD
  5
239
330
1
100
AcDbSymbolTableRecord
100
AcDbBlockTableRecord
  2
LW_Polyline_28
340
0
102
{BLKREFS
331
23F
102
}
  0
BLOCK_RECORD
  5
240
330
1
100
AcDbSymbolTableRecord
100
AcDbBlockTableRecord
  2
LW_Polyline_29
340
0
102
{BLKREFS
331
246
102
}
  0
BLOCK_RECORD
  5
247
330
1
100
AcDbSymbolTableRecord
100
AcDbBlockTableRecord
  2
LW_Polyline_30
340
0
102
{BLKREFS
331
24E
102
}
  0
BLOCK_RECORD
  5
24F
330
1
100
AcDbSymbolTableRecord
100
AcDbBlockTableRecord
  2
LW_Polyline_31
340
0
102
{BLKREFS
331
256
102
}
  0
BLOCK_RECORD
  5
257
330
1
100
AcDbSymbolTableRecord
100
AcDbBlockTableRecord
  2
LW_Polyline_32
340
0
102
{BLKREFS
331
25E
102
}
  0
BLOCK_RECORD
  5
25F
330
1
100
AcDbSymbolTableRecord
100
AcDbBlockTableRecord
  2
LW_Polyline_35
340
0
102
{BLKREFS
331
265
102
}
  0
BLOCK_RECORD
  5
266
330
1
100
AcDbSymbolTableRecord
100
AcDbBlockTableRecord
  2
LW_Polyline_36
340
0
102
{BLKREFS
331
26C
102
}
  0
BLOCK_RECORD
  5
26D
330
1
100
AcDbSymbolTableRecord
100
AcDbBlockTableRecord
  2
LW_Polyline_37
340
0
102
{BLKREFS
331
273
102
}
  0
BLOCK_RECORD
  5
274
330
1
100
AcDbSymbolTableRecord
100
AcDbBlockTableRecord
  2
LW_Polyline_38
340
0
102
{BLKREFS
331
27A
102
}
  0
BLOCK_RECORD
  5
27C
330
1
100
AcDbSymbolTableRecord
100
AcDbBlockTableRecord
  2
LW_Polyline_39
340
0
102
{BLKREFS
331
283
102
}
  0
BLOCK_RECORD
  5
284
330
1
100
AcDbSymbolTableRecord
100
AcDbBlockTableRecord
  2
LW_Polyline_40
340
0
102
{BLKREFS
331
28B
102
}
  0
BLOCK_RECORD
  5
28D
330
1
100
AcDbSymbolTableRecord
100
AcDbBlockTableRecord
  2
LW_Polyline_41
340
0
102
{BLKREFS
331
294
102
}
  0
BLOCK_RECORD
  5
295
330
1
100
AcDbSymbolTableRecord
100
AcDbBlockTableRecord
  2
LW_Polyline_42
340
0
102
{BLKREFS
331
29C
102
}
  0
BLOCK_RECORD
  5
29D
330
1
100
AcDbSymbolTableRecord
100
AcDbBlockTableRecord
  2
LW_Polyline_43
340
0
102
{BLKREFS
331
2A4
102
}
  0
BLOCK_RECORD
  5
2DB
330
1
100
AcDbSymbolTableRecord
100
AcDbBlockTableRecord
  2
LW_Polyline_44
340
0
102
{BLKREFS
331
2E1
102
}
  0
BLOCK_RECORD
  5
2E2
330
1
100
AcDbSymbolTableRecord
100
AcDbBlockTableRecord
  2
LW_Polyline_45
340
0
102
{BLKREFS
331
2E8
102
}
  0
BLOCK_RECORD
  5
2EA
330
1
100
AcDbSymbolTableRecord
100
AcDbBlockTableRecord
  2
LW_Polyline_46
340
0
102
{BLKREFS
331
2F1
102
}
  0
BLOCK_RECORD
  5
2F2
330
1
100
AcDbSymbolTableRecord
100
AcDbBlockTableRecord
  2
LW_Polyline_47
340
0
102
{BLKREFS
331
2F9
102
}
  0
BLOCK_RECORD
  5
2FA
330
1
100
AcDbSymbolTableRecord
100
AcDbBlockTableRecord
  2
LW_Polyline_48
340
0
102
{BLKREFS
331
301
102
}
  0
BLOCK_RECORD
  5
302
330
1
100
AcDbSymbolTableRecord
100
AcDbBlockTableRecord
  2
LW_Polyline_49
340
0
102
{BLKREFS
331
309
102
}
  0
BLOCK_RECORD
  5
30A
330
1
100
AcDbSymbolTableRecord
100
AcDbBlockTableRecord
  2
LW_Polyline_50
340
0
102
{BLKREFS
331
311
102
}
  0
ENDTAB
  0
ENDSEC
  0
SECTION
  2
BLOCKS
  0
BLOCK
  5
20
330
1F
100
AcDbEntity
  8
0
100
AcDbBlockBegin
  2
*Model_Space
 70
     0
 71
     0
 10
0.0
 20
0.0
 30
0.0
  3
*Model_Space
  1

  0
ENDBLK
  5
21
330
1F
100
AcDbEntity
  8
0
100
AcDbBlockEnd
  0
BLOCK
  5
1C
330
1B
100
AcDbEntity
 67
     1
  8
0
100
AcDbBlockBegin
  2
*Paper_Space
 70
     0
 71
     0
 10
0.0
 20
0.0
 30
0.0
  3
*Paper_Space
  1

  0
ENDBLK
  5
1D
330
1B
100
AcDbEntity
 67
     1
  8
0
100
AcDbBlockEnd
  0
BLOCK
  5
24
330
23
100
AcDbEntity
  8
0
100
AcDbBlockBegin
  2
*Paper_Space0
 70
     0
 71
     0
 10
0.0
 20
0.0
 30
0.0
  3
*Paper_Space0
  1

  0
ENDBLK
  5
25
330
23
100
AcDbEntity
  8
0
100
AcDbBlockEnd
  0
BLOCK
  5
3E
330
3D
100
AcDbEntity
  8
0
100
AcDbBlockBegin
  2
_CLOSED
 70
     0
 71
     0
 10
0.0
 20
0.0
 30
0.0
  3
_CLOSED
  1

  0
LINE
  5
40
330
3D
100
AcDbEntity
  8
0
  6
ByBlock
 62
     0
370
    -2
100
AcDbLine
 10
-1.0
 20
0.166667
 30
0.0
 11
0.0
 21
0.0
 31
0.0
  0
LINE
  5
41
330
3D
100
AcDbEntity
  8
0
  6
ByBlock
 62
     0
370
    -2
100
AcDbLine
 10
0.0
 20
0.0
 30
0.0
 11
-1.0
 21
-0.166667
 31
0.0
  0
LINE
  5
42
330
3D
100
AcDbEntity
  8
0
  6
ByBlock
 62
     0
370
    -2
100
AcDbLine
 10
-1.0
 20
0.166667
 30
0.0
 11
-1.0
 21
-0.166667
 31
0.0
  0
LINE
  5
43
330
3D
100
AcDbEntity
  8
0
  6
ByBlock
 62
     0
370
    -2
100
AcDbLine
 10
0.0
 20
0.0
 30
0.0
 11
-1.0
 21
0.0
 31
0.0
  0
ENDBLK
  5
3F
330
3D
100
AcDbEntity
  8
0
100
AcDbBlockEnd
  0
BLOCK
  5
4E
330
45
100
AcDbEntity
  8
0
100
AcDbBlockBegin
  2
LW_Polyline_1
 70
     0
 71
     0
 10
353.695
 20
531.7218
 30
0.0
  3
LW_Polyline_1
  1

  0
LINE
  5
46
330
45
100
AcDbEntity
  8
0
  6
Continuous
 62
     0
100
AcDbLine
 10
353.695
 20
531.7218
 30
0.0
 11
662.305
 21
531.7218
 31
0.0
  0
LINE
  5
47
330
45
100
AcDbEntity
  8
0
  6
Continuous
 62
     0
100
AcDbLine
 10
662.305
 20
531.7218
 30
0.0
 11
662.305
 21
287.8818
 31
0.0
  0
LINE
  5
48
330
45
100
AcDbEntity
  8
0
  6
Continuous
 62
     0
100
AcDbLine
 10
662.305
 20
287.8818
 30
0.0
 11
353.695
 21
287.8818
 31
0.0
  0
LINE
  5
49
330
45
100
AcDbEntity
  8
0
  6
Continuous
 62
     0
100
AcDbLine
 10
353.695
 20
287.8818
 30
0.0
 11
353.695
 21
531.7218
 31
0.0
  0
LINE
  5
4A
330
45
100
AcDbEntity
  8
0
  6
Continuous
 62
     0
100
AcDbLine
 10
353.695
 20
531.7218
 30
0.0
 11
662.305
 21
531.7218
 31
0.0
  0
LINE
  5
4B
330
45
100
AcDbEntity
  8
0
  6
Continuous
 62
     0
100
AcDbLine
 10
662.305
 20
531.7218
 30
0.0
 11
662.305
 21
287.8818
 31
0.0
  0
LINE
  5
4C
330
45
100
AcDbEntity
  8
0
  6
Continuous
 62
     0
100
AcDbLine
 10
662.305
 20
287.8818
 30
0.0
 11
353.695
 21
287.8818
 31
0.0
  0
LINE
  5
4D
330
45
100
AcDbEntity
  8
0
  6
Continuous
 62
     0
100
AcDbLine
 10
353.695
 20
287.8818
 30
0.0
 11
353.695
 21
531.7218
 31
0.0
  0
ENDBLK
  5
4F
330
45
100
AcDbEntity
  8
0
100
AcDbBlockEnd
  0
BLOCK
  5
72
330
51
100
AcDbEntity
  8
0
100
AcDbBlockBegin
  2
LW_Polyline_2
 70
     0
 71
     0
 10
371.8489
 20
294.2344
 30
0.0
  3
LW_Polyline_2
  1

  0
LINE
  5
52
330
51
100
AcDbEntity
  8
0
  6
Continuous
 62
     0
100
AcDbLine
 10
371.8489
 20
294.2344
 30
0.0
 11
371.8172
 21
294.5561
 31
0.0
  0
LINE
  5
53
330
51
100
AcDbEntity
  8
0
  6
Continuous
 62
     0
100
AcDbLine
 10
371.8172
 20
294.5561
 30
0.0
 11
371.7233
 21
294.8655
 31
0.0
  0
LINE
  5
54
330
51
100
AcDbEntity
  8
0
  6
Continuous
 62
     0
100
AcDbLine
 10
371.7233
 20
294.8655
 30
0.0
 11
371.5709
 21
295.1506
 31
0.0
  0
LINE
  5
55
330
51
100
AcDbEntity
  8
0
  6
Continuous
 62
     0
100
AcDbLine
 10
371.5709
 20
295.1506
 30
0.0
 11
371.3658
 21
295.4005
 31
0.0
  0
LINE
  5
56
330
51
100
AcDbEntity
  8
0
  6
Continuous
 62
     0
100
AcDbLine
 10
371.3658
 20
295.4005
 30
0.0
 11
371.1159
 21
295.6056
 31
0.0
  0
LINE
  5
57
330
51
100
AcDbEntity
  8
0
  6
Continuous
 62
     0
100
AcDbLine
 10
371.1159
 20
295.6056
 30
0.0
 11
370.8308
 21
295.758
 31
0.0
  0
LINE
  5
58
330
51
100
AcDbEntity
  8
0
  6
Continuous
 62
     0
100
AcDbLine
 10
370.8308
 20
295.758
 30
0.0
 11
370.5214
 21
295.8519
 31
0.0
  0
LINE
  5
59
330
51
100
AcDbEntity
  8
0
  6
Continuous
 62
     0
100
AcDbLine
 10
370.5214
 20
295.8519
 30
0.0
 11
370.1997
 21
295.8836
 31
0.0
  0
LINE
  5
5A
330
51
100
AcDbEntity
  8
0
  6
Continuous
 62
     0
100
AcDbLine
 10
370.1997
 20
295.8836
 30
0.0
 11
369.8779
 21
295.8519
 31
0.0
  0
LINE
  5
5B
330
51
100
AcDbEntity
  8
0
  6
Continuous
 62
     0
100
AcDbLine
 10
369.8779
 20
295.8519
 30
0.0
 11
369.5685
 21
295.758
 31
0.0
  0
LINE
  5
5C
330
51
100
AcDbEntity
  8
0
  6
Continuous
 62
     0
100
AcDbLine
 10
369.5685
 20
295.758
 30
0.0
 11
369.2834
 21
295.6056
 31
0.0
  0
LINE
  5
5D
330
51
100
AcDbEntity
  8
0
  6
Continuous
 62
     0
100
AcDbLine
 10
369.2834
 20
295.6056
 30
0.0
 11
369.0335
 21
295.4005
 31
0.0
  0
LINE
  5
5E
330
51
100
AcDbEntity
  8
0
  6
Continuous
 62
     0
100
AcDbLine
 10
369.0335
 20
295.4005
 30
0.0
 11
368.8284
 21
295.1506
 31
0.0
  0
LINE
  5
5F
330
51
100
AcDbEntity
  8
0
  6
Continuous
 62
     0
100
AcDbLine
 10
368.8284
 20
295.1506
 30
0.0
 11
368.676
 21
294.8655
 31
0.0
  0
LINE
  5
60
330
51
100
AcDbEntity
  8
0
  6
Continuous
 62
     0
100
AcDbLine
 10
368.676
 20
294.8655
 30
0.0
 11
368.5821
 21
294.5561
 31
0.0
  0
LINE
  5
61
330
51
100
AcDbEntity
  8
0
  6
Continuous
 62
     0
100
AcDbLine
 10
368.5821
 20
294.5561
 30
0.0
 11
368.5504
 21
294.2344
 31
0.0
  0
LINE
  5
62
330
51
100
AcDbEntity
  8
0
  6
Continuous
 62
     0
100
AcDbLine
 10
368.5504
 20
294.2344
 30
0.0
 11
368.5821
 21
293.9126
 31
0.0
  0
LINE
  5
63
330
51
100
AcDbEntity
  8
0
  6
Continuous
 62
     0
100
AcDbLine
 10
368.5821
 20
293.9126
 30
0.0
 11
368.676
 21
293.6032
 31
0.0
  0
LINE
  5
64
330
51
100
AcDbEntity
  8
0
  6
Continuous
 62
     0
100
AcDbLine
 10
368.676
 20
293.6032
 30
0.0
 11
368.8284
 21
293.3181
 31
0.0
  0
LINE
  5
65
330
51
100
AcDbEntity
  8
0
  6
Continuous
 62
     0
100
AcDbLine
 10
368.8284
 20
293.3181
 30
0.0
 11
369.0335
 21
293.0682
 31
0.0
  0
LINE
  5
66
330
51
100
AcDbEntity
  8
0
  6
Continuous
 62
     0
100
AcDbLine
 10
369.0335
 20
293.0682
 30
0.0
 11
369.2834
 21
292.8631
 31
0.0
  0
LINE
  5
67
330
51
100
AcDbEntity
  8
0
  6
Continuous
 62
     0
100
AcDbLine
 10
369.2834
 20
292.8631
 30
0.0
 11
369.5685
 21
292.7107
 31
0.0
  0
LINE
  5
68
330
51
100
AcDbEntity
  8
0
  6
Continuous
 62
     0
100
AcDbLine
 10
369.5685
 20
292.7107
 30
0.0
 11
369.8779
 21
292.6168
 31
0.0
  0
LINE
  5
69
330
51
100
AcDbEntity
  8
0
  6
Continuous
 62
     0
100
AcDbLine
 10
369.8779
 20
292.6168
 30
0.0
 11
370.1997
 21
292.5851
 31
0.0
  0
LINE
  5
6A
330
51
100
AcDbEntity
  8
0
  6
Continuous
 62
     0
100
AcDbLine
 10
370.1997
 20
292.5851
 30
0.0
 11
370.5214
 21
292.6168
 31
0.0
  0
LINE
  5
6B
330
51
100
AcDbEntity
  8
0
  6
Continuous
 62
     0
100
AcDbLine
 10
370.5214
 20
292.6168
 30
0.0
 11
370.8308
 21
292.7107
 31
0.0
  0
LINE
  5
6C
330
51
100
AcDbEntity
  8
0
  6
Continuous
 62
     0
100
AcDbLine
 10
370.8308
 20
292.7107
 30
0.0
 11
371.1159
 21
292.8631
 31
0.0
  0
LINE
  5
6D
330
51
100
AcDbEntity
  8
0
  6
Continuous
 62
     0
100
AcDbLine
 10
371.1159
 20
292.8631
 30
0.0
 11
371.3658
 21
293.0682
 31
0.0
  0
LINE
  5
6E
330
51
100
AcDbEntity
  8
0
  6
Continuous
 62
     0
100
AcDbLine
 10
371.3658
 20
293.0682
 30
0.0
 11
371.5709
 21
293.3181
 31
0.0
  0
LINE
  5
6F
330
51
100
AcDbEntity
  8
0
  6
Continuous
 62
     0
100
AcDbLine
 10
371.5709
 20
293.3181
 30
0.0
 11
371.7233
 21
293.6032
 31
0.0
  0
LINE
  5
70
330
51
100
AcDbEntity
  8
0
  6
Continuous
 62
     0
100
AcDbLine
 10
371.7233
 20
293.6032
 30
0.0
 11
371.8172
 21
293.9126
 31
0.0
  0
LINE
  5
71
330
51
100
AcDbEntity
  8
0
  6
Continuous
 62
     0
100
AcDbLine
 10
371.8172
 20
293.9126
 30
0.0
 11
371.8489
 21
294.2344
 31
0.0
  0
ENDBLK
  5
73
330
51
100
AcDbEntity
  8
0
100
AcDbBlockEnd
  0
BLOCK
  5
98
330
77
100
AcDbEntity
  8
0
100
AcDbBlockBegin
  2
LW_Polyline_3
 70
     0
 71
     0
 10
371.8489
 20
366.6244
 30
0.0
  3
LW_Polyline_3
  1

  0
LINE
  5
78
330
77
100
AcDbEntity
  8
0
  6
Continuous
 62
     0
100
AcDbLine
 10
371.8489
 20
366.6244
 30
0.0
 11
371.8172
 21
366.9461
 31
0.0
  0
LINE
  5
79
330
77
100
AcDbEntity
  8
0
  6
Continuous
 62
     0
100
AcDbLine
 10
371.8172
 20
366.9461
 30
0.0
 11
371.7233
 21
367.2555
 31
0.0
  0
LINE
  5
7A
330
77
100
AcDbEntity
  8
0
  6
Continuous
 62
     0
100
AcDbLine
 10
371.7233
 20
367.2555
 30
0.0
 11
371.5709
 21
367.5406
 31
0.0
  0
LINE
  5
7B
330
77
100
AcDbEntity
  8
0
  6
Continuous
 62
     0
100
AcDbLine
 10
371.5709
 20
367.5406
 30
0.0
 11
371.3658
 21
367.7905
 31
0.0
  0
LINE
  5
7C
330
77
100
AcDbEntity
  8
0
  6
Continuous
 62
     0
100
AcDbLine
 10
371.3658
 20
367.7905
 30
0.0
 11
371.1159
 21
367.9956
 31
0.0
  0
LINE
  5
7D
330
77
100
AcDbEntity
  8
0
  6
Continuous
 62
     0
100
AcDbLine
 10
371.1159
 20
367.9956
 30
0.0
 11
370.8308
 21
368.148
 31
0.0
  0
LINE
  5
7E
330
77
100
AcDbEntity
  8
0
  6
Continuous
 62
     0
100
AcDbLine
 10
370.8308
 20
368.148
 30
0.0
 11
370.5214
 21
368.2419
 31
0.0
  0
LINE
  5
7F
330
77
100
AcDbEntity
  8
0
  6
Continuous
 62
     0
100
AcDbLine
 10
370.5214
 20
368.2419
 30
0.0
 11
370.1997
 21
368.2736
 31
0.0
  0
LINE
  5
80
330
77
100
AcDbEntity
  8
0
  6
Continuous
 62
     0
100
AcDbLine
 10
370.1997
 20
368.2736
 30
0.0
 11
369.8779
 21
368.2419
 31
0.0
  0
LINE
  5
81
330
77
100
AcDbEntity
  8
0
  6
Continuous
 62
     0
100
AcDbLine
 10
369.8779
 20
368.2419
 30
0.0
 11
369.5685
 21
368.148
 31
0.0
  0
LINE
  5
82
330
77
100
AcDbEntity
  8
0
  6
Continuous
 62
     0
100
AcDbLine
 10
369.5685
 20
368.148
 30
0.0
 11
369.2834
 21
367.9956
 31
0.0
  0
LINE
  5
83
330
77
100
AcDbEntity
  8
0
  6
Continuous
 62
     0
100
AcDbLine
 10
369.2834
 20
367.9956
 30
0.0
 11
369.0335
 21
367.7905
 31
0.0
  0
LINE
  5
84
330
77
100
AcDbEntity
  8
0
  6
Continuous
 62
     0
100
AcDbLine
 10
369.0335
 20
367.7905
 30
0.0
 11
368.8284
 21
367.5406
 31
0.0
  0
LINE
  5
85
330
77
100
AcDbEntity
  8
0
  6
Continuous
 62
     0
100
AcDbLine
 10
368.8284
 20
367.5406
 30
0.0
 11
368.676
 21
367.2555
 31
0.0
  0
LINE
  5
86
330
77
100
AcDbEntity
  8
0
  6
Continuous
 62
     0
100
AcDbLine
 10
368.676
 20
367.2555
 30
0.0
 11
368.5821
 21
366.9461
 31
0.0
  0
LINE
  5
87
330
77
100
AcDbEntity
  8
0
  6
Continuous
 62
     0
100
AcDbLine
 10
368.5821
 20
366.9461
 30
0.0
 11
368.5504
 21
366.6244
 31
0.0
  0
LINE
  5
88
330
77
100
AcDbEntity
  8
0
  6
Continuous
 62
     0
100
AcDbLine
 10
368.5504
 20
366.6244
 30
0.0
 11
368.5821
 21
366.3026
 31
0.0
  0
LINE
  5
89
330
77
100
AcDbEntity
  8
0
  6
Continuous
 62
     0
100
AcDbLine
 10
368.5821
 20
366.3026
 30
0.0
 11
368.676
 21
365.9932
 31
0.0
  0
LINE
  5
8A
330
77
100
AcDbEntity
  8
0
  6
Continuous
 62
     0
100
AcDbLine
 10
368.676
 20
365.9932
 30
0.0
 11
368.8284
 21
365.7081
 31
0.0
  0
LINE
  5
8B
330
77
100
AcDbEntity
  8
0
  6
Continuous
 62
     0
100
AcDbLine
 10
368.8284
 20
365.7081
 30
0.0
 11
369.0335
 21
365.4582
 31
0.0
  0
LINE
  5
8C
330
77
100
AcDbEntity
  8
0
  6
Continuous
 62
     0
100
AcDbLine
 10
369.0335
 20
365.4582
 30
0.0
 11
369.2834
 21
365.2531
 31
0.0
  0
LINE
  5
8D
330
77
100
AcDbEntity
  8
0
  6
Continuous
 62
     0
100
AcDbLine
 10
369.2834
 20
365.2531
 30
0.0
 11
369.5685
 21
365.1007
 31
0.0
  0
LINE
  5
8E
330
77
100
AcDbEntity
  8
0
  6
Continuous
 62
     0
100
AcDbLine
 10
369.5685
 20
365.1007
 30
0.0
 11
369.8779
 21
365.0068
 31
0.0
  0
LINE
  5
8F
330
77
100
AcDbEntity
  8
0
  6
Continuous
 62
     0
100
AcDbLine
 10
369.8779
 20
365.0068
 30
0.0
 11
370.1997
 21
364.9751
 31
0.0
  0
LINE
  5
90
330
77
100
AcDbEntity
  8
0
  6
Continuous
 62
     0
100
AcDbLine
 10
370.1997
 20
364.9751
 30
0.0
 11
370.5214
 21
365.0068
 31
0.0
  0
LINE
  5
91
330
77
100
AcDbEntity
  8
0
  6
Continuous
 62
     0
100
AcDbLine
 10
370.5214
 20
365.0068
 30
0.0
 11
370.8308
 21
365.1007
 31
0.0
  0
LINE
  5
92
330
77
100
AcDbEntity
  8
0
  6
Continuous
 62
     0
100
AcDbLine
 10
370.8308
 20
365.1007
 30
0.0
 11
371.1159
 21
365.2531
 31
0.0
  0
LINE
  5
93
330
77
100
AcDbEntity
  8
0
  6
Continuous
 62
     0
100
AcDbLine
 10
371.1159
 20
365.2531
 30
0.0
 11
371.3658
 21
365.4582
 31
0.0
  0
LINE
  5
94
330
77
100
AcDbEntity
  8
0
  6
Continuous
 62
     0
100
AcDbLine
 10
371.3658
 20
365.4582
 30
0.0
 11
371.5709
 21
365.7081
 31
0.0
  0
LINE
  5
95
330
77
100
AcDbEntity
  8
0
  6
Continuous
 62
     0
100
AcDbLine
 10
371.5709
 20
365.7081
 30
0.0
 11
371.7233
 21
365.9932
 31
0.0
  0
LINE
  5
96
330
77
100
AcDbEntity
  8
0
  6
Continuous
 62
     0
100
AcDbLine
 10
371.7233
 20
365.9932
 30
0.0
 11
371.8172
 21
366.3026
 31
0.0
  0
LINE
  5
97
330
77
100
AcDbEntity
  8
0
  6
Continuous
 62
     0
100
AcDbLine
 10
371.8172
 20
366.3026
 30
0.0
 11
371.8489
 21
366.6244
 31
0.0
  0
ENDBLK
  5
99
330
77
100
AcDbEntity
  8
0
100
AcDbBlockEnd
  0
BLOCK
  5
BE
330
9D
100
AcDbEntity
  8
0
100
AcDbBlockBegin
  2
LW_Polyline_4
 70
     0
 71
     0
 10
371.8489
 20
521.5644
 30
0.0
  3
LW_Polyline_4
  1

  0
LINE
  5
9E
330
9D
100
AcDbEntity
  8
0
  6
Continuous
 62
     0
100
AcDbLine
 10
371.8489
 20
521.5644
 30
0.0
 11
371.8172
 21
521.8861
 31
0.0
  0
LINE
  5
9F
330
9D
100
AcDbEntity
  8
0
  6
Continuous
 62
     0
100
AcDbLine
 10
371.8172
 20
521.8861
 30
0.0
 11
371.7233
 21
522.1955
 31
0.0
  0
LINE
  5
A0
330
9D
100
AcDbEntity
  8
0
  6
Continuous
 62
     0
100
AcDbLine
 10
371.7233
 20
522.1955
 30
0.0
 11
371.5709
 21
522.4806
 31
0.0
  0
LINE
  5
A1
330
9D
100
AcDbEntity
  8
0
  6
Continuous
 62
     0
100
AcDbLine
 10
371.5709
 20
522.4806
 30
0.0
 11
371.3658
 21
522.7305
 31
0.0
  0
LINE
  5
A2
330
9D
100
AcDbEntity
  8
0
  6
Continuous
 62
     0
100
AcDbLine
 10
371.3658
 20
522.7305
 30
0.0
 11
371.1159
 21
522.9356
 31
0.0
  0
LINE
  5
A3
330
9D
100
AcDbEntity
  8
0
  6
Continuous
 62
     0
100
AcDbLine
 10
371.1159
 20
522.9356
 30
0.0
 11
370.8308
 21
523.088
 31
0.0
  0
LINE
  5
A4
330
9D
100
AcDbEntity
  8
0
  6
Continuous
 62
     0
100
AcDbLine
 10
370.8308
 20
523.088
 30
0.0
 11
370.5214
 21
523.1819
 31
0.0
  0
LINE
  5
A5
330
9D
100
AcDbEntity
  8
0
  6
Continuous
 62
     0
100
AcDbLine
 10
370.5214
 20
523.1819
 30
0.0
 11
370.1997
 21
523.2136
 31
0.0
  0
LINE
  5
A6
330
9D
100
AcDbEntity
  8
0
  6
Continuous
 62
     0
100
AcDbLine
 10
370.1997
 20
523.2136
 30
0.0
 11
369.8779
 21
523.1819
 31
0.0
  0
LINE
  5
A7
330
9D
100
AcDbEntity
  8
0
  6
Continuous
 62
     0
100
AcDbLine
 10
369.8779
 20
523.1819
 30
0.0
 11
369.5685
 21
523.088
 31
0.0
  0
LINE
  5
A8
330
9D
100
AcDbEntity
  8
0
  6
Continuous
 62
     0
100
AcDbLine
 10
369.5685
 20
523.088
 30
0.0
 11
369.2834
 21
522.9356
 31
0.0
  0
LINE
  5
A9
330
9D
100
AcDbEntity
  8
0
  6
Continuous
 62
     0
100
AcDbLine
 10
369.2834
 20
522.9356
 30
0.0
 11
369.0335
 21
522.7305
 31
0.0
  0
LINE
  5
AA
330
9D
100
AcDbEntity
  8
0
  6
Continuous
 62
     0
100
AcDbLine
 10
369.0335
 20
522.7305
 30
0.0
 11
368.8284
 21
522.4806
 31
0.0
  0
LINE
  5
AB
330
9D
100
AcDbEntity
  8
0
  6
Continuous
 62
     0
100
AcDbLine
 10
368.8284
 20
522.4806
 30
0.0
 11
368.676
 21
522.1955
 31
0.0
  0
LINE
  5
AC
330
9D
100
AcDbEntity
  8
0
  6
Continuous
 62
     0
100
AcDbLine
 10
368.676
 20
522.1955
 30
0.0
 11
368.5821
 21
521.8861
 31
0.0
  0
LINE
  5
AD
330
9D
100
AcDbEntity
  8
0
  6
Continuous
 62
     0
100
AcDbLine
 10
368.5821
 20
521.8861
 30
0.0
 11
368.5504
 21
521.5644
 31
0.0
  0
LINE
  5
AE
330
9D
100
AcDbEntity
  8
0
  6
Continuous
 62
     0
100
AcDbLine
 10
368.5504
 20
521.5644
 30
0.0
 11
368.5821
 21
521.2426
 31
0.0
  0
LINE
  5
AF
330
9D
100
AcDbEntity
  8
0
  6
Continuous
 62
     0
100
AcDbLine
 10
368.5821
 20
521.2426
 30
0.0
 11
368.676
 21
520.9332
 31
0.0
  0
LINE
  5
B0
330
9D
100
AcDbEntity
  8
0
  6
Continuous
 62
     0
100
AcDbLine
 10
368.676
 20
520.9332
 30
0.0
 11
368.8284
 21
520.6481
 31
0.0
  0
LINE
  5
B1
330
9D
100
AcDbEntity
  8
0
  6
Continuous
 62
     0
100
AcDbLine
 10
368.8284
 20
520.6481
 30
0.0
 11
369.0335
 21
520.3982
 31
0.0
  0
LINE
  5
B2
330
9D
100
AcDbEntity
  8
0
  6
Continuous
 62
     0
100
AcDbLine
 10
369.0335
 20
520.3982
 30
0.0
 11
369.2834
 21
520.1931
 31
0.0
  0
LINE
  5
B3
330
9D
100
AcDbEntity
  8
0
  6
Continuous
 62
     0
100
AcDbLine
 10
369.2834
 20
520.1931
 30
0.0
 11
369.5685
 21
520.0407
 31
0.0
  0
LINE
  5
B4
330
9D
100
AcDbEntity
  8
0
  6
Continuous
 62
     0
100
AcDbLine
 10
369.5685
 20
520.0407
 30
0.0
 11
369.8779
 21
519.9468
 31
0.0
  0
LINE
  5
B5
330
9D
100
AcDbEntity
  8
0
  6
Continuous
 62
     0
100
AcDbLine
 10
369.8779
 20
519.9468
 30
0.0
 11
370.1997
 21
519.9151
 31
0.0
  0
LINE
  5
B6
330
9D
100
AcDbEntity
  8
0
  6
Continuous
 62
     0
100
AcDbLine
 10
370.1997
 20
519.9151
 30
0.0
 11
370.5214
 21
519.9468
 31
0.0
  0
LINE
  5
B7
330
9D
100
AcDbEntity
  8
0
  6
Continuous
 62
     0
100
AcDbLine
 10
370.5214
 20
519.9468
 30
0.0
 11
370.8308
 21
520.0407
 31
0.0
  0
LINE
  5
B8
330
9D
100
AcDbEntity
  8
0
  6
Continuous
 62
     0
100
AcDbLine
 10
370.8308
 20
520.0407
 30
0.0
 11
371.1159
 21
520.1931
 31
0.0
  0
LINE
  5
B9
330
9D
100
AcDbEntity
  8
0
  6
Continuous
 62
     0
100
AcDbLine
 10
371.1159
 20
520.1931
 30
0.0
 11
371.3658
 21
520.3982
 31
0.0
  0
LINE
  5
BA
330
9D
100
AcDbEntity
  8
0
  6
Continuous
 62
     0
100
AcDbLine
 10
371.3658
 20
520.3982
 30
0.0
 11
371.5709
 21
520.6481
 31
0.0
  0
LINE
  5
BB
330
9D
100
AcDbEntity
  8
0
  6
Continuous
 62
     0
100
AcDbLine
 10
371.5709
 20
520.6481
 30
0.0
 11
371.7233
 21
520.9332
 31
0.0
  0
LINE
  5
BC
330
9D
100
AcDbEntity
  8
0
  6
Continuous
 62
     0
100
AcDbLine
 10
371.7233
 20
520.9332
 30
0.0
 11
371.8172
 21
521.2426
 31
0.0
  0
LINE
  5
BD
330
9D
100
AcDbEntity
  8
0
  6
Continuous
 62
     0
100
AcDbLine
 10
371.8172
 20
521.2426
 30
0.0
 11
371.8489
 21
521.5644
 31
0.0
  0
ENDBLK
  5
BF
330
9D
100
AcDbEntity
  8
0
100
AcDbBlockEnd
  0
BLOCK
  5
E4
330
C3
100
AcDbEntity
  8
0
100
AcDbBlockBegin
  2
LW_Polyline_5
 70
     0
 71
     0
 10
496.3089
 20
521.5644
 30
0.0
  3
LW_Polyline_5
  1

  0
LINE
  5
C4
330
C3
100
AcDbEntity
  8
0
  6
Continuous
 62
     0
100
AcDbLine
 10
496.3089
 20
521.5644
 30
0.0
 11
496.2772
 21
521.8861
 31
0.0
  0
LINE
  5
C5
330
C3
100
AcDbEntity
  8
0
  6
Continuous
 62
     0
100
AcDbLine
 10
496.2772
 20
521.8861
 30
0.0
 11
496.1833
 21
522.1955
 31
0.0
  0
LINE
  5
C6
330
C3
100
AcDbEntity
  8
0
  6
Continuous
 62
     0
100
AcDbLine
 10
496.1833
 20
522.1955
 30
0.0
 11
496.0309
 21
522.4806
 31
0.0
  0
LINE
  5
C7
330
C3
100
AcDbEntity
  8
0
  6
Continuous
 62
     0
100
AcDbLine
 10
496.0309
 20
522.4806
 30
0.0
 11
495.8258
 21
522.7305
 31
0.0
  0
LINE
  5
C8
330
C3
100
AcDbEntity
  8
0
  6
Continuous
 62
     0
100
AcDbLine
 10
495.8258
 20
522.7305
 30
0.0
 11
495.5759
 21
522.9356
 31
0.0
  0
LINE
  5
C9
330
C3
100
AcDbEntity
  8
0
  6
Continuous
 62
     0
100
AcDbLine
 10
495.5759
 20
522.9356
 30
0.0
 11
495.2908
 21
523.088
 31
0.0
  0
LINE
  5
CA
330
C3
100
AcDbEntity
  8
0
  6
Continuous
 62
     0
100
AcDbLine
 10
495.2908
 20
523.088
 30
0.0
 11
494.9814
 21
523.1819
 31
0.0
  0
LINE
  5
CB
330
C3
100
AcDbEntity
  8
0
  6
Continuous
 62
     0
100
AcDbLine
 10
494.9814
 20
523.1819
 30
0.0
 11
494.6597
 21
523.2136
 31
0.0
  0
LINE
  5
CC
330
C3
100
AcDbEntity
  8
0
  6
Continuous
 62
     0
100
AcDbLine
 10
494.6597
 20
523.2136
 30
0.0
 11
494.3379
 21
523.1819
 31
0.0
  0
LINE
  5
CD
330
C3
100
AcDbEntity
  8
0
  6
Continuous
 62
     0
100
AcDbLine
 10
494.3379
 20
523.1819
 30
0.0
 11
494.0285
 21
523.088
 31
0.0
  0
LINE
  5
CE
330
C3
100
AcDbEntity
  8
0
  6
Continuous
 62
     0
100
AcDbLine
 10
494.0285
 20
523.088
 30
0.0
 11
493.7434
 21
522.9356
 31
0.0
  0
LINE
  5
CF
330
C3
100
AcDbEntity
  8
0
  6
Continuous
 62
     0
100
AcDbLine
 10
493.7434
 20
522.9356
 30
0.0
 11
493.4935
 21
522.7305
 31
0.0
  0
LINE
  5
D0
330
C3
100
AcDbEntity
  8
0
  6
Continuous
 62
     0
100
AcDbLine
 10
493.4935
 20
522.7305
 30
0.0
 11
493.2884
 21
522.4806
 31
0.0
  0
LINE
  5
D1
330
C3
100
AcDbEntity
  8
0
  6
Continuous
 62
     0
100
AcDbLine
 10
493.2884
 20
522.4806
 30
0.0
 11
493.136
 21
522.1955
 31
0.0
  0
LINE
  5
D2
330
C3
100
AcDbEntity
  8
0
  6
Continuous
 62
     0
100
AcDbLine
 10
493.136
 20
522.1955
 30
0.0
 11
493.0421
 21
521.8861
 31
0.0
  0
LINE
  5
D3
330
C3
100
AcDbEntity
  8
0
  6
Continuous
 62
     0
100
AcDbLine
 10
493.0421
 20
521.8861
 30
0.0
 11
493.0104
 21
521.5644
 31
0.0
  0
LINE
  5
D4
330
C3
100
AcDbEntity
  8
0
  6
Continuous
 62
     0
100
AcDbLine
 10
493.0104
 20
521.5644
 30
0.0
 11
493.0421
 21
521.2426
 31
0.0
  0
LINE
  5
D5
330
C3
100
AcDbEntity
  8
0
  6
Continuous
 62
     0
100
AcDbLine
 10
493.0421
 20
521.2426
 30
0.0
 11
493.136
 21
520.9332
 31
0.0
  0
LINE
  5
D6
330
C3
100
AcDbEntity
  8
0
  6
Continuous
 62
     0
100
AcDbLine
 10
493.136
 20
520.9332
 30
0.0
 11
493.2884
 21
520.6481
 31
0.0
  0
LINE
  5
D7
330
C3
100
AcDbEntity
  8
0
  6
Continuous
 62
     0
100
AcDbLine
 10
493.2884
 20
520.6481
 30
0.0
 11
493.4935
 21
520.3982
 31
0.0
  0
LINE
  5
D8
330
C3
100
AcDbEntity
  8
0
  6
Continuous
 62
     0
100
AcDbLine
 10
493.4935
 20
520.3982
 30
0.0
 11
493.7434
 21
520.1931
 31
0.0
  0
LINE
  5
D9
330
C3
100
AcDbEntity
  8
0
  6
Continuous
 62
     0
100
AcDbLine
 10
493.7434
 20
520.1931
 30
0.0
 11
494.0285
 21
520.0407
 31
0.0
  0
LINE
  5
DA
330
C3
100
AcDbEntity
  8
0
  6
Continuous
 62
     0
100
AcDbLine
 10
494.0285
 20
520.0407
 30
0.0
 11
494.3379
 21
519.9468
 31
0.0
  0
LINE
  5
DB
330
C3
100
AcDbEntity
  8
0
  6
Continuous
 62
     0
100
AcDbLine
 10
494.3379
 20
519.9468
 30
0.0
 11
494.6597
 21
519.9151
 31
0.0
  0
LINE
  5
DC
330
C3
100
AcDbEntity
  8
0
  6
Continuous
 62
     0
100
AcDbLine
 10
494.6597
 20
519.9151
 30
0.0
 11
494.9814
 21
519.9468
 31
0.0
  0
LINE
  5
DD
330
C3
100
AcDbEntity
  8
0
  6
Continuous
 62
     0
100
AcDbLine
 10
494.9814
 20
519.9468
 30
0.0
 11
495.2908
 21
520.0407
 31
0.0
  0
LINE
  5
DE
330
C3
100
AcDbEntity
  8
0
  6
Continuous
 62
     0
100
AcDbLine
 10
495.2908
 20
520.0407
 30
0.0
 11
495.5759
 21
520.1931
 31
0.0
  0
LINE
  5
DF
330
C3
100
AcDbEntity
  8
0
  6
Continuous
 62
     0
100
AcDbLine
 10
495.5759
 20
520.1931
 30
0.0
 11
495.8258
 21
520.3982
 31
0.0
  0
LINE
  5
E0
330
C3
100
AcDbEntity
  8
0
  6
Continuous
 62
     0
100
AcDbLine
 10
495.8258
 20
520.3982
 30
0.0
 11
496.0309
 21
520.6481
 31
0.0
  0
LINE
  5
E1
330
C3
100
AcDbEntity
  8
0
  6
Continuous
 62
     0
100
AcDbLine
 10
496.0309
 20
520.6481
 30
0.0
 11
496.1833
 21
520.9332
 31
0.0
  0
LINE
  5
E2
330
C3
100
AcDbEntity
  8
0
  6
Continuous
 62
     0
100
AcDbLine
 10
496.1833
 20
520.9332
 30
0.0
 11
496.2772
 21
521.2426
 31
0.0
  0
LINE
  5
E3
330
C3
100
AcDbEntity
  8
0
  6
Continuous
 62
     0
100
AcDbLine
 10
496.2772
 20
521.2426
 30
0.0
 11
496.3089
 21
521.5644
 31
0.0
  0
ENDBLK
  5
E5
330
C3
100
AcDbEntity
  8
0
100
AcDbBlockEnd
  0
BLOCK
  5
10A
330
E9
100
AcDbEntity
  8
0
100
AcDbBlockBegin
  2
LW_Polyline_6
 70
     0
 71
     0
 10
651.2489
 20
498.7044
 30
0.0
  3
LW_Polyline_6
  1

  0
LINE
  5
EA
330
E9
100
AcDbEntity
  8
0
  6
Continuous
 62
     0
100
AcDbLine
 10
651.2489
 20
498.7044
 30
0.0
 11
651.2172
 21
499.0261
 31
0.0
  0
LINE
  5
EB
330
E9
100
AcDbEntity
  8
0
  6
Continuous
 62
     0
100
AcDbLine
 10
651.2172
 20
499.0261
 30
0.0
 11
651.1233
 21
499.3355
 31
0.0
  0
LINE
  5
EC
330
E9
100
AcDbEntity
  8
0
  6
Continuous
 62
     0
100
AcDbLine
 10
651.1233
 20
499.3355
 30
0.0
 11
650.9709
 21
499.6206
 31
0.0
  0
LINE
  5
ED
330
E9
100
AcDbEntity
  8
0
  6
Continuous
 62
     0
100
AcDbLine
 10
650.9709
 20
499.6206
 30
0.0
 11
650.7658
 21
499.8705
 31
0.0
  0
LINE
  5
EE
330
E9
100
AcDbEntity
  8
0
  6
Continuous
 62
     0
100
AcDbLine
 10
650.7658
 20
499.8705
 30
0.0
 11
650.5159
 21
500.0756
 31
0.0
  0
LINE
  5
EF
330
E9
100
AcDbEntity
  8
0
  6
Continuous
 62
     0
100
AcDbLine
 10
650.5159
 20
500.0756
 30
0.0
 11
650.2308
 21
500.228
 31
0.0
  0
LINE
  5
F0
330
E9
100
AcDbEntity
  8
0
  6
Continuous
 62
     0
100
AcDbLine
 10
650.2308
 20
500.228
 30
0.0
 11
649.9214
 21
500.3219
 31
0.0
  0
LINE
  5
F1
330
E9
100
AcDbEntity
  8
0
  6
Continuous
 62
     0
100
AcDbLine
 10
649.9214
 20
500.3219
 30
0.0
 11
649.5997
 21
500.3536
 31
0.0
  0
LINE
  5
F2
330
E9
100
AcDbEntity
  8
0
  6
Continuous
 62
     0
100
AcDbLine
 10
649.5997
 20
500.3536
 30
0.0
 11
649.2779
 21
500.3219
 31
0.0
  0
LINE
  5
F3
330
E9
100
AcDbEntity
  8
0
  6
Continuous
 62
     0
100
AcDbLine
 10
649.2779
 20
500.3219
 30
0.0
 11
648.9685
 21
500.228
 31
0.0
  0
LINE
  5
F4
330
E9
100
AcDbEntity
  8
0
  6
Continuous
 62
     0
100
AcDbLine
 10
648.9685
 20
500.228
 30
0.0
 11
648.6834
 21
500.0756
 31
0.0
  0
LINE
  5
F5
330
E9
100
AcDbEntity
  8
0
  6
Continuous
 62
     0
100
AcDbLine
 10
648.6834
 20
500.0756
 30
0.0
 11
648.4335
 21
499.8705
 31
0.0
  0
LINE
  5
F6
330
E9
100
AcDbEntity
  8
0
  6
Continuous
 62
     0
100
AcDbLine
 10
648.4335
 20
499.8705
 30
0.0
 11
648.2284
 21
499.6206
 31
0.0
  0
LINE
  5
F7
330
E9
100
AcDbEntity
  8
0
  6
Continuous
 62
     0
100
AcDbLine
 10
648.2284
 20
499.6206
 30
0.0
 11
648.076
 21
499.3355
 31
0.0
  0
LINE
  5
F8
330
E9
100
AcDbEntity
  8
0
  6
Continuous
 62
     0
100
AcDbLine
 10
648.076
 20
499.3355
 30
0.0
 11
647.9821
 21
499.0261
 31
0.0
  0
LINE
  5
F9
330
E9
100
AcDbEntity
  8
0
  6
Continuous
 62
     0
100
AcDbLine
 10
647.9821
 20
499.0261
 30
0.0
 11
647.9504
 21
498.7044
 31
0.0
  0
LINE
  5
FA
330
E9
100
AcDbEntity
  8
0
  6
Continuous
 62
     0
100
AcDbLine
 10
647.9504
 20
498.7044
 30
0.0
 11
647.9821
 21
498.3826
 31
0.0
  0
LINE
  5
FB
330
E9
100
AcDbEntity
  8
0
  6
Continuous
 62
     0
100
AcDbLine
 10
647.9821
 20
498.3826
 30
0.0
 11
648.076
 21
498.0732
 31
0.0
  0
LINE
  5
FC
330
E9
100
AcDbEntity
  8
0
  6
Continuous
 62
     0
100
AcDbLine
 10
648.076
 20
498.0732
 30
0.0
 11
648.2284
 21
497.7881
 31
0.0
  0
LINE
  5
FD
330
E9
100
AcDbEntity
  8
0
  6
Continuous
 62
     0
100
AcDbLine
 10
648.2284
 20
497.7881
 30
0.0
 11
648.4335
 21
497.5382
 31
0.0
  0
LINE
  5
FE
330
E9
100
AcDbEntity
  8
0
  6
Continuous
 62
     0
100
AcDbLine
 10
648.4335
 20
497.5382
 30
0.0
 11
648.6834
 21
497.3331
 31
0.0
  0
LINE
  5
FF
330
E9
100
AcDbEntity
  8
0
  6
Continuous
 62
     0
100
AcDbLine
 10
648.6834
 20
497.3331
 30
0.0
 11
648.9685
 21
497.1807
 31
0.0
  0
LINE
  5
100
330
E9
100
AcDbEntity
  8
0
  6
Continuous
 62
     0
100
AcDbLine
 10
648.9685
 20
497.1807
 30
0.0
 11
649.2779
 21
497.0868
 31
0.0
  0
LINE
  5
101
330
E9
100
AcDbEntity
  8
0
  6
Continuous
 62
     0
100
AcDbLine
 10
649.2779
 20
497.0868
 30
0.0
 11
649.5997
 21
497.0551
 31
0.0
  0
LINE
  5
102
330
E9
100
AcDbEntity
  8
0
  6
Continuous
 62
     0
100
AcDbLine
 10
649.5997
 20
497.0551
 30
0.0
 11
649.9214
 21
497.0868
 31
0.0
  0
LINE
  5
103
330
E9
100
AcDbEntity
  8
0
  6
Continuous
 62
     0
100
AcDbLine
 10
649.9214
 20
497.0868
 30
0.0
 11
650.2308
 21
497.1807
 31
0.0
  0
LINE
  5
104
330
E9
100
AcDbEntity
  8
0
  6
Continuous
 62
     0
100
AcDbLine
 10
650.2308
 20
497.1807
 30
0.0
 11
650.5159
 21
497.3331
 31
0.0
  0
LINE
  5
105
330
E9
100
AcDbEntity
  8
0
  6
Continuous
 62
     0
100
AcDbLine
 10
650.5159
 20
497.3331
 30
0.0
 11
650.7658
 21
497.5382
 31
0.0
  0
LINE
  5
106
330
E9
100
AcDbEntity
  8
0
  6
Continuous
 62
     0
100
AcDbLine
 10
650.7658
 20
497.5382
 30
0.0
 11
650.9709
 21
497.7881
 31
0.0
  0
LINE
  5
107
330
E9
100
AcDbEntity
  8
0
  6
Continuous
 62
     0
100
AcDbLine
 10
650.9709
 20
497.7881
 30
0.0
 11
651.1233
 21
498.0732
 31
0.0
  0
LINE
  5
108
330
E9
100
AcDbEntity
  8
0
  6
Continuous
 62
     0
100
AcDbLine
 10
651.1233
 20
498.0732
 30
0.0
 11
651.2172
 21
498.3826
 31
0.0
  0
LINE
  5
109
330
E9
100
AcDbEntity
  8
0
  6
Continuous
 62
     0
100
AcDbLine
 10
651.2172
 20
498.3826
 30
0.0
 11
651.2489
 21
498.7044
 31
0.0
  0
ENDBLK
  5
10B
330
E9
100
AcDbEntity
  8
0
100
AcDbBlockEnd
  0
BLOCK
  5
130
330
10F
100
AcDbEntity
  8
0
100
AcDbBlockBegin
  2
LW_Polyline_7
 70
     0
 71
     0
 10
651.2489
 20
366.6244
 30
0.0
  3
LW_Polyline_7
  1

  0
LINE
  5
110
330
10F
100
AcDbEntity
  8
0
  6
Continuous
 62
     0
100
AcDbLine
 10
651.2489
 20
366.6244
 30
0.0
 11
651.2172
 21
366.9461
 31
0.0
  0
LINE
  5
111
330
10F
100
AcDbEntity
  8
0
  6
Continuous
 62
     0
100
AcDbLine
 10
651.2172
 20
366.9461
 30
0.0
 11
651.1233
 21
367.2555
 31
0.0
  0
LINE
  5
112
330
10F
100
AcDbEntity
  8
0
  6
Continuous
 62
     0
100
AcDbLine
 10
651.1233
 20
367.2555
 30
0.0
 11
650.9709
 21
367.5406
 31
0.0
  0
LINE
  5
113
330
10F
100
AcDbEntity
  8
0
  6
Continuous
 62
     0
100
AcDbLine
 10
650.9709
 20
367.5406
 30
0.0
 11
650.7658
 21
367.7905
 31
0.0
  0
LINE
  5
114
330
10F
100
AcDbEntity
  8
0
  6
Continuous
 62
     0
100
AcDbLine
 10
650.7658
 20
367.7905
 30
0.0
 11
650.5159
 21
367.9956
 31
0.0
  0
LINE
  5
115
330
10F
100
AcDbEntity
  8
0
  6
Continuous
 62
     0
100
AcDbLine
 10
650.5159
 20
367.9956
 30
0.0
 11
650.2308
 21
368.148
 31
0.0
  0
LINE
  5
116
330
10F
100
AcDbEntity
  8
0
  6
Continuous
 62
     0
100
AcDbLine
 10
650.2308
 20
368.148
 30
0.0
 11
649.9214
 21
368.2419
 31
0.0
  0
LINE
  5
117
330
10F
100
AcDbEntity
  8
0
  6
Continuous
 62
     0
100
AcDbLine
 10
649.9214
 20
368.2419
 30
0.0
 11
649.5997
 21
368.2736
 31
0.0
  0
LINE
  5
118
330
10F
100
AcDbEntity
  8
0
  6
Continuous
 62
     0
100
AcDbLine
 10
649.5997
 20
368.2736
 30
0.0
 11
649.2779
 21
368.2419
 31
0.0
  0
LINE
  5
119
330
10F
100
AcDbEntity
  8
0
  6
Continuous
 62
     0
100
AcDbLine
 10
649.2779
 20
368.2419
 30
0.0
 11
648.9685
 21
368.148
 31
0.0
  0
LINE
  5
11A
330
10F
100
AcDbEntity
  8
0
  6
Continuous
 62
     0
100
AcDbLine
 10
648.9685
 20
368.148
 30
0.0
 11
648.6834
 21
367.9956
 31
0.0
  0
LINE
  5
11B
330
10F
100
AcDbEntity
  8
0
  6
Continuous
 62
     0
100
AcDbLine
 10
648.6834
 20
367.9956
 30
0.0
 11
648.4335
 21
367.7905
 31
0.0
  0
LINE
  5
11C
330
10F
100
AcDbEntity
  8
0
  6
Continuous
 62
     0
100
AcDbLine
 10
648.4335
 20
367.7905
 30
0.0
 11
648.2284
 21
367.5406
 31
0.0
  0
LINE
  5
11D
330
10F
100
AcDbEntity
  8
0
  6
Continuous
 62
     0
100
AcDbLine
 10
648.2284
 20
367.5406
 30
0.0
 11
648.076
 21
367.2555
 31
0.0
  0
LINE
  5
11E
330
10F
100
AcDbEntity
  8
0
  6
Continuous
 62
     0
100
AcDbLine
 10
648.076
 20
367.2555
 30
0.0
 11
647.9821
 21
366.9461
 31
0.0
  0
LINE
  5
11F
330
10F
100
AcDbEntity
  8
0
  6
Continuous
 62
     0
100
AcDbLine
 10
647.9821
 20
366.9461
 30
0.0
 11
647.9504
 21
366.6244
 31
0.0
  0
LINE
  5
120
330
10F
100
AcDbEntity
  8
0
  6
Continuous
 62
     0
100
AcDbLine
 10
647.9504
 20
366.6244
 30
0.0
 11
647.9821
 21
366.3026
 31
0.0
  0
LINE
  5
121
330
10F
100
AcDbEntity
  8
0
  6
Continuous
 62
     0
100
AcDbLine
 10
647.9821
 20
366.3026
 30
0.0
 11
648.076
 21
365.9932
 31
0.0
  0
LINE
  5
122
330
10F
100
AcDbEntity
  8
0
  6
Continuous
 62
     0
100
AcDbLine
 10
648.076
 20
365.9932
 30
0.0
 11
648.2284
 21
365.7081
 31
0.0
  0
LINE
  5
123
330
10F
100
AcDbEntity
  8
0
  6
Continuous
 62
     0
100
AcDbLine
 10
648.2284
 20
365.7081
 30
0.0
 11
648.4335
 21
365.4582
 31
0.0
  0
LINE
  5
124
330
10F
100
AcDbEntity
  8
0
  6
Continuous
 62
     0
100
AcDbLine
 10
648.4335
 20
365.4582
 30
0.0
 11
648.6834
 21
365.2531
 31
0.0
  0
LINE
  5
125
330
10F
100
AcDbEntity
  8
0
  6
Continuous
 62
     0
100
AcDbLine
 10
648.6834
 20
365.2531
 30
0.0
 11
648.9685
 21
365.1007
 31
0.0
  0
LINE
  5
126
330
10F
100
AcDbEntity
  8
0
  6
Continuous
 62
     0
100
AcDbLine
 10
648.9685
 20
365.1007
 30
0.0
 11
649.2779
 21
365.0068
 31
0.0
  0
LINE
  5
127
330
10F
100
AcDbEntity
  8
0
  6
Continuous
 62
     0
100
AcDbLine
 10
649.2779
 20
365.0068
 30
0.0
 11
649.5997
 21
364.9751
 31
0.0
  0
LINE
  5
128
330
10F
100
AcDbEntity
  8
0
  6
Continuous
 62
     0
100
AcDbLine
 10
649.5997
 20
364.9751
 30
0.0
 11
649.9214
 21
365.0068
 31
0.0
  0
LINE
  5
129
330
10F
100
AcDbEntity
  8
0
  6
Continuous
 62
     0
100
AcDbLine
 10
649.9214
 20
365.0068
 30
0.0
 11
650.2308
 21
365.1007
 31
0.0
  0
LINE
  5
12A
330
10F
100
AcDbEntity
  8
0
  6
Continuous
 62
     0
100
AcDbLine
 10
650.2308
 20
365.1007
 30
0.0
 11
650.5159
 21
365.2531
 31
0.0
  0
LINE
  5
12B
330
10F
100
AcDbEntity
  8
0
  6
Continuous
 62
     0
100
AcDbLine
 10
650.5159
 20
365.2531
 30
0.0
 11
650.7658
 21
365.4582
 31
0.0
  0
LINE
  5
12C
330
10F
100
AcDbEntity
  8
0
  6
Continuous
 62
     0
100
AcDbLine
 10
650.7658
 20
365.4582
 30
0.0
 11
650.9709
 21
365.7081
 31
0.0
  0
LINE
  5
12D
330
10F
100
AcDbEntity
  8
0
  6
Continuous
 62
     0
100
AcDbLine
 10
650.9709
 20
365.7081
 30
0.0
 11
651.1233
 21
365.9932
 31
0.0
  0
LINE
  5
12E
330
10F
100
AcDbEntity
  8
0
  6
Continuous
 62
     0
100
AcDbLine
 10
651.1233
 20
365.9932
 30
0.0
 11
651.2172
 21
366.3026
 31
0.0
  0
LINE
  5
12F
330
10F
100
AcDbEntity
  8
0
  6
Continuous
 62
     0
100
AcDbLine
 10
651.2172
 20
366.3026
 30
0.0
 11
651.2489
 21
366.6244
 31
0.0
  0
ENDBLK
  5
131
330
10F
100
AcDbEntity
  8
0
100
AcDbBlockEnd
  0
BLOCK
  5
156
330
135
100
AcDbEntity
  8
0
100
AcDbBlockBegin
  2
LW_Polyline_8
 70
     0
 71
     0
 10
651.2489
 20
294.2344
 30
0.0
  3
LW_Polyline_8
  1

  0
LINE
  5
136
330
135
100
AcDbEntity
  8
0
  6
Continuous
 62
     0
100
AcDbLine
 10
651.2489
 20
294.2344
 30
0.0
 11
651.2172
 21
294.5561
 31
0.0
  0
LINE
  5
137
330
135
100
AcDbEntity
  8
0
  6
Continuous
 62
     0
100
AcDbLine
 10
651.2172
 20
294.5561
 30
0.0
 11
651.1233
 21
294.8655
 31
0.0
  0
LINE
  5
138
330
135
100
AcDbEntity
  8
0
  6
Continuous
 62
     0
100
AcDbLine
 10
651.1233
 20
294.8655
 30
0.0
 11
650.9709
 21
295.1506
 31
0.0
  0
LINE
  5
139
330
135
100
AcDbEntity
  8
0
  6
Continuous
 62
     0
100
AcDbLine
 10
650.9709
 20
295.1506
 30
0.0
 11
650.7658
 21
295.4005
 31
0.0
  0
LINE
  5
13A
330
135
100
AcDbEntity
  8
0
  6
Continuous
 62
     0
100
AcDbLine
 10
650.7658
 20
295.4005
 30
0.0
 11
650.5159
 21
295.6056
 31
0.0
  0
LINE
  5
13B
330
135
100
AcDbEntity
  8
0
  6
Continuous
 62
     0
100
AcDbLine
 10
650.5159
 20
295.6056
 30
0.0
 11
650.2308
 21
295.758
 31
0.0
  0
LINE
  5
13C
330
135
100
AcDbEntity
  8
0
  6
Continuous
 62
     0
100
AcDbLine
 10
650.2308
 20
295.758
 30
0.0
 11
649.9214
 21
295.8519
 31
0.0
  0
LINE
  5
13D
330
135
100
AcDbEntity
  8
0
  6
Continuous
 62
     0
100
AcDbLine
 10
649.9214
 20
295.8519
 30
0.0
 11
649.5997
 21
295.8836
 31
0.0
  0
LINE
  5
13E
330
135
100
AcDbEntity
  8
0
  6
Continuous
 62
     0
100
AcDbLine
 10
649.5997
 20
295.8836
 30
0.0
 11
649.2779
 21
295.8519
 31
0.0
  0
LINE
  5
13F
330
135
100
AcDbEntity
  8
0
  6
Continuous
 62
     0
100
AcDbLine
 10
649.2779
 20
295.8519
 30
0.0
 11
648.9685
 21
295.758
 31
0.0
  0
LINE
  5
140
330
135
100
AcDbEntity
  8
0
  6
Continuous
 62
     0
100
AcDbLine
 10
648.9685
 20
295.758
 30
0.0
 11
648.6834
 21
295.6056
 31
0.0
  0
LINE
  5
141
330
135
100
AcDbEntity
  8
0
  6
Continuous
 62
     0
100
AcDbLine
 10
648.6834
 20
295.6056
 30
0.0
 11
648.4335
 21
295.4005
 31
0.0
  0
LINE
  5
142
330
135
100
AcDbEntity
  8
0
  6
Continuous
 62
     0
100
AcDbLine
 10
648.4335
 20
295.4005
 30
0.0
 11
648.2284
 21
295.1506
 31
0.0
  0
LINE
  5
143
330
135
100
AcDbEntity
  8
0
  6
Continuous
 62
     0
100
AcDbLine
 10
648.2284
 20
295.1506
 30
0.0
 11
648.076
 21
294.8655
 31
0.0
  0
LINE
  5
144
330
135
100
AcDbEntity
  8
0
  6
Continuous
 62
     0
100
AcDbLine
 10
648.076
 20
294.8655
 30
0.0
 11
647.9821
 21
294.5561
 31
0.0
  0
LINE
  5
145
330
135
100
AcDbEntity
  8
0
  6
Continuous
 62
     0
100
AcDbLine
 10
647.9821
 20
294.5561
 30
0.0
 11
647.9504
 21
294.2344
 31
0.0
  0
LINE
  5
146
330
135
100
AcDbEntity
  8
0
  6
Continuous
 62
     0
100
AcDbLine
 10
647.9504
 20
294.2344
 30
0.0
 11
647.9821
 21
293.9126
 31
0.0
  0
LINE
  5
147
330
135
100
AcDbEntity
  8
0
  6
Continuous
 62
     0
100
AcDbLine
 10
647.9821
 20
293.9126
 30
0.0
 11
648.076
 21
293.6032
 31
0.0
  0
LINE
  5
148
330
135
100
AcDbEntity
  8
0
  6
Continuous
 62
     0
100
AcDbLine
 10
648.076
 20
293.6032
 30
0.0
 11
648.2284
 21
293.3181
 31
0.0
  0
LINE
  5
149
330
135
100
AcDbEntity
  8
0
  6
Continuous
 62
     0
100
AcDbLine
 10
648.2284
 20
293.3181
 30
0.0
 11
648.4335
 21
293.0682
 31
0.0
  0
LINE
  5
14A
330
135
100
AcDbEntity
  8
0
  6
Continuous
 62
     0
100
AcDbLine
 10
648.4335
 20
293.0682
 30
0.0
 11
648.6834
 21
292.8631
 31
0.0
  0
LINE
  5
14B
330
135
100
AcDbEntity
  8
0
  6
Continuous
 62
     0
100
AcDbLine
 10
648.6834
 20
292.8631
 30
0.0
 11
648.9685
 21
292.7107
 31
0.0
  0
LINE
  5
14C
330
135
100
AcDbEntity
  8
0
  6
Continuous
 62
     0
100
AcDbLine
 10
648.9685
 20
292.7107
 30
0.0
 11
649.2779
 21
292.6168
 31
0.0
  0
LINE
  5
14D
330
135
100
AcDbEntity
  8
0
  6
Continuous
 62
     0
100
AcDbLine
 10
649.2779
 20
292.6168
 30
0.0
 11
649.5997
 21
292.5851
 31
0.0
  0
LINE
  5
14E
330
135
100
AcDbEntity
  8
0
  6
Continuous
 62
     0
100
AcDbLine
 10
649.5997
 20
292.5851
 30
0.0
 11
649.9214
 21
292.6168
 31
0.0
  0
LINE
  5
14F
330
135
100
AcDbEntity
  8
0
  6
Continuous
 62
     0
100
AcDbLine
 10
649.9214
 20
292.6168
 30
0.0
 11
650.2308
 21
292.7107
 31
0.0
  0
LINE
  5
150
330
135
100
AcDbEntity
  8
0
  6
Continuous
 62
     0
100
AcDbLine
 10
650.2308
 20
292.7107
 30
0.0
 11
650.5159
 21
292.8631
 31
0.0
  0
LINE
  5
151
330
135
100
AcDbEntity
  8
0
  6
Continuous
 62
     0
100
AcDbLine
 10
650.5159
 20
292.8631
 30
0.0
 11
650.7658
 21
293.0682
 31
0.0
  0
LINE
  5
152
330
135
100
AcDbEntity
  8
0
  6
Continuous
 62
     0
100
AcDbLine
 10
650.7658
 20
293.0682
 30
0.0
 11
650.9709
 21
293.3181
 31
0.0
  0
LINE
  5
153
330
135
100
AcDbEntity
  8
0
  6
Continuous
 62
     0
100
AcDbLine
 10
650.9709
 20
293.3181
 30
0.0
 11
651.1233
 21
293.6032
 31
0.0
  0
LINE
  5
154
330
135
100
AcDbEntity
  8
0
  6
Continuous
 62
     0
100
AcDbLine
 10
651.1233
 20
293.6032
 30
0.0
 11
651.2172
 21
293.9126
 31
0.0
  0
LINE
  5
155
330
135
100
AcDbEntity
  8
0
  6
Continuous
 62
     0
100
AcDbLine
 10
651.2172
 20
293.9126
 30
0.0
 11
651.2489
 21
294.2344
 31
0.0
  0
ENDBLK
  5
157
330
135
100
AcDbEntity
  8
0
100
AcDbBlockEnd
  0
BLOCK
  5
17C
330
15B
100
AcDbEntity
  8
0
100
AcDbBlockBegin
  2
LW_Polyline_9
 70
     0
 71
     0
 10
496.3089
 20
294.2344
 30
0.0
  3
LW_Polyline_9
  1

  0
LINE
  5
15C
330
15B
100
AcDbEntity
  8
0
  6
Continuous
 62
     0
100
AcDbLine
 10
496.3089
 20
294.2344
 30
0.0
 11
496.2772
 21
294.5561
 31
0.0
  0
LINE
  5
15D
330
15B
100
AcDbEntity
  8
0
  6
Continuous
 62
     0
100
AcDbLine
 10
496.2772
 20
294.5561
 30
0.0
 11
496.1833
 21
294.8655
 31
0.0
  0
LINE
  5
15E
330
15B
100
AcDbEntity
  8
0
  6
Continuous
 62
     0
100
AcDbLine
 10
496.1833
 20
294.8655
 30
0.0
 11
496.0309
 21
295.1506
 31
0.0
  0
LINE
  5
15F
330
15B
100
AcDbEntity
  8
0
  6
Continuous
 62
     0
100
AcDbLine
 10
496.0309
 20
295.1506
 30
0.0
 11
495.8258
 21
295.4005
 31
0.0
  0
LINE
  5
160
330
15B
100
AcDbEntity
  8
0
  6
Continuous
 62
     0
100
AcDbLine
 10
495.8258
 20
295.4005
 30
0.0
 11
495.5759
 21
295.6056
 31
0.0
  0
LINE
  5
161
330
15B
100
AcDbEntity
  8
0
  6
Continuous
 62
     0
100
AcDbLine
 10
495.5759
 20
295.6056
 30
0.0
 11
495.2908
 21
295.758
 31
0.0
  0
LINE
  5
162
330
15B
100
AcDbEntity
  8
0
  6
Continuous
 62
     0
100
AcDbLine
 10
495.2908
 20
295.758
 30
0.0
 11
494.9814
 21
295.8519
 31
0.0
  0
LINE
  5
163
330
15B
100
AcDbEntity
  8
0
  6
Continuous
 62
     0
100
AcDbLine
 10
494.9814
 20
295.8519
 30
0.0
 11
494.6597
 21
295.8836
 31
0.0
  0
LINE
  5
164
330
15B
100
AcDbEntity
  8
0
  6
Continuous
 62
     0
100
AcDbLine
 10
494.6597
 20
295.8836
 30
0.0
 11
494.3379
 21
295.8519
 31
0.0
  0
LINE
  5
165
330
15B
100
AcDbEntity
  8
0
  6
Continuous
 62
     0
100
AcDbLine
 10
494.3379
 20
295.8519
 30
0.0
 11
494.0285
 21
295.758
 31
0.0
  0
LINE
  5
166
330
15B
100
AcDbEntity
  8
0
  6
Continuous
 62
     0
100
AcDbLine
 10
494.0285
 20
295.758
 30
0.0
 11
493.7434
 21
295.6056
 31
0.0
  0
LINE
  5
167
330
15B
100
AcDbEntity
  8
0
  6
Continuous
 62
     0
100
AcDbLine
 10
493.7434
 20
295.6056
 30
0.0
 11
493.4935
 21
295.4005
 31
0.0
  0
LINE
  5
168
330
15B
100
AcDbEntity
  8
0
  6
Continuous
 62
     0
100
AcDbLine
 10
493.4935
 20
295.4005
 30
0.0
 11
493.2884
 21
295.1506
 31
0.0
  0
LINE
  5
169
330
15B
100
AcDbEntity
  8
0
  6
Continuous
 62
     0
100
AcDbLine
 10
493.2884
 20
295.1506
 30
0.0
 11
493.136
 21
294.8655
 31
0.0
  0
LINE
  5
16A
330
15B
100
AcDbEntity
  8
0
  6
Continuous
 62
     0
100
AcDbLine
 10
493.136
 20
294.8655
 30
0.0
 11
493.0421
 21
294.5561
 31
0.0
  0
LINE
  5
16B
330
15B
100
AcDbEntity
  8
0
  6
Continuous
 62
     0
100
AcDbLine
 10
493.0421
 20
294.5561
 30
0.0
 11
493.0104
 21
294.2344
 31
0.0
  0
LINE
  5
16C
330
15B
100
AcDbEntity
  8
0
  6
Continuous
 62
     0
100
AcDbLine
 10
493.0104
 20
294.2344
 30
0.0
 11
493.0421
 21
293.9126
 31
0.0
  0
LINE
  5
16D
330
15B
100
AcDbEntity
  8
0
  6
Continuous
 62
     0
100
AcDbLine
 10
493.0421
 20
293.9126
 30
0.0
 11
493.136
 21
293.6032
 31
0.0
  0
LINE
  5
16E
330
15B
100
AcDbEntity
  8
0
  6
Continuous
 62
     0
100
AcDbLine
 10
493.136
 20
293.6032
 30
0.0
 11
493.2884
 21
293.3181
 31
0.0
  0
LINE
  5
16F
330
15B
100
AcDbEntity
  8
0
  6
Continuous
 62
     0
100
AcDbLine
 10
493.2884
 20
293.3181
 30
0.0
 11
493.4935
 21
293.0682
 31
0.0
  0
LINE
  5
170
330
15B
100
AcDbEntity
  8
0
  6
Continuous
 62
     0
100
AcDbLine
 10
493.4935
 20
293.0682
 30
0.0
 11
493.7434
 21
292.8631
 31
0.0
  0
LINE
  5
171
330
15B
100
AcDbEntity
  8
0
  6
Continuous
 62
     0
100
AcDbLine
 10
493.7434
 20
292.8631
 30
0.0
 11
494.0285
 21
292.7107
 31
0.0
  0
LINE
  5
172
330
15B
100
AcDbEntity
  8
0
  6
Continuous
 62
     0
100
AcDbLine
 10
494.0285
 20
292.7107
 30
0.0
 11
494.3379
 21
292.6168
 31
0.0
  0
LINE
  5
173
330
15B
100
AcDbEntity
  8
0
  6
Continuous
 62
     0
100
AcDbLine
 10
494.3379
 20
292.6168
 30
0.0
 11
494.6597
 21
292.5851
 31
0.0
  0
LINE
  5
174
330
15B
100
AcDbEntity
  8
0
  6
Continuous
 62
     0
100
AcDbLine
 10
494.6597
 20
292.5851
 30
0.0
 11
494.9814
 21
292.6168
 31
0.0
  0
LINE
  5
175
330
15B
100
AcDbEntity
  8
0
  6
Continuous
 62
     0
100
AcDbLine
 10
494.9814
 20
292.6168
 30
0.0
 11
495.2908
 21
292.7107
 31
0.0
  0
LINE
  5
176
330
15B
100
AcDbEntity
  8
0
  6
Continuous
 62
     0
100
AcDbLine
 10
495.2908
 20
292.7107
 30
0.0
 11
495.5759
 21
292.8631
 31
0.0
  0
LINE
  5
177
330
15B
100
AcDbEntity
  8
0
  6
Continuous
 62
     0
100
AcDbLine
 10
495.5759
 20
292.8631
 30
0.0
 11
495.8258
 21
293.0682
 31
0.0
  0
LINE
  5
178
330
15B
100
AcDbEntity
  8
0
  6
Continuous
 62
     0
100
AcDbLine
 10
495.8258
 20
293.0682
 30
0.0
 11
496.0309
 21
293.3181
 31
0.0
  0
LINE
  5
179
330
15B
100
AcDbEntity
  8
0
  6
Continuous
 62
     0
100
AcDbLine
 10
496.0309
 20
293.3181
 30
0.0
 11
496.1833
 21
293.6032
 31
0.0
  0
LINE
  5
17A
330
15B
100
AcDbEntity
  8
0
  6
Continuous
 62
     0
100
AcDbLine
 10
496.1833
 20
293.6032
 30
0.0
 11
496.2772
 21
293.9126
 31
0.0
  0
LINE
  5
17B
330
15B
100
AcDbEntity
  8
0
  6
Continuous
 62
     0
100
AcDbLine
 10
496.2772
 20
293.9126
 30
0.0
 11
496.3089
 21
294.2344
 31
0.0
  0
ENDBLK
  5
17D
330
15B
100
AcDbEntity
  8
0
100
AcDbBlockEnd
  0
BLOCK
  5
1A2
330
181
100
AcDbEntity
  8
0
100
AcDbBlockBegin
  2
LW_Polyline_10
 70
     0
 71
     0
 10
496.3145
 20
366.634
 30
0.0
  3
LW_Polyline_10
  1

  0
LINE
  5
182
330
181
100
AcDbEntity
  8
0
  6
Continuous
 62
     0
100
AcDbLine
 10
496.3145
 20
366.634
 30
0.0
 11
496.2828
 21
366.9558
 31
0.0
  0
LINE
  5
183
330
181
100
AcDbEntity
  8
0
  6
Continuous
 62
     0
100
AcDbLine
 10
496.2828
 20
366.9558
 30
0.0
 11
496.1889
 21
367.2651
 31
0.0
  0
LINE
  5
184
330
181
100
AcDbEntity
  8
0
  6
Continuous
 62
     0
100
AcDbLine
 10
496.1889
 20
367.2651
 30
0.0
 11
496.0365
 21
367.5503
 31
0.0
  0
LINE
  5
185
330
181
100
AcDbEntity
  8
0
  6
Continuous
 62
     0
100
AcDbLine
 10
496.0365
 20
367.5503
 30
0.0
 11
495.8314
 21
367.8002
 31
0.0
  0
LINE
  5
186
330
181
100
AcDbEntity
  8
0
  6
Continuous
 62
     0
100
AcDbLine
 10
495.8314
 20
367.8002
 30
0.0
 11
495.5815
 21
368.0053
 31
0.0
  0
LINE
  5
187
330
181
100
AcDbEntity
  8
0
  6
Continuous
 62
     0
100
AcDbLine
 10
495.5815
 20
368.0053
 30
0.0
 11
495.2964
 21
368.1577
 31
0.0
  0
LINE
  5
188
330
181
100
AcDbEntity
  8
0
  6
Continuous
 62
     0
100
AcDbLine
 10
495.2964
 20
368.1577
 30
0.0
 11
494.987
 21
368.2515
 31
0.0
  0
LINE
  5
189
330
181
100
AcDbEntity
  8
0
  6
Continuous
 62
     0
100
AcDbLine
 10
494.987
 20
368.2515
 30
0.0
 11
494.6653
 21
368.2832
 31
0.0
  0
LINE
  5
18A
330
181
100
AcDbEntity
  8
0
  6
Continuous
 62
     0
100
AcDbLine
 10
494.6653
 20
368.2832
 30
0.0
 11
494.3435
 21
368.2515
 31
0.0
  0
LINE
  5
18B
330
181
100
AcDbEntity
  8
0
  6
Continuous
 62
     0
100
AcDbLine
 10
494.3435
 20
368.2515
 30
0.0
 11
494.0341
 21
368.1577
 31
0.0
  0
LINE
  5
18C
330
181
100
AcDbEntity
  8
0
  6
Continuous
 62
     0
100
AcDbLine
 10
494.0341
 20
368.1577
 30
0.0
 11
493.749
 21
368.0053
 31
0.0
  0
LINE
  5
18D
330
181
100
AcDbEntity
  8
0
  6
Continuous
 62
     0
100
AcDbLine
 10
493.749
 20
368.0053
 30
0.0
 11
493.4991
 21
367.8002
 31
0.0
  0
LINE
  5
18E
330
181
100
AcDbEntity
  8
0
  6
Continuous
 62
     0
100
AcDbLine
 10
493.4991
 20
367.8002
 30
0.0
 11
493.294
 21
367.5503
 31
0.0
  0
LINE
  5
18F
330
181
100
AcDbEntity
  8
0
  6
Continuous
 62
     0
100
AcDbLine
 10
493.294
 20
367.5503
 30
0.0
 11
493.1416
 21
367.2651
 31
0.0
  0
LINE
  5
190
330
181
100
AcDbEntity
  8
0
  6
Continuous
 62
     0
100
AcDbLine
 10
493.1416
 20
367.2651
 30
0.0
 11
493.0477
 21
366.9558
 31
0.0
  0
LINE
  5
191
330
181
100
AcDbEntity
  8
0
  6
Continuous
 62
     0
100
AcDbLine
 10
493.0477
 20
366.9558
 30
0.0
 11
493.016
 21
366.634
 31
0.0
  0
LINE
  5
192
330
181
100
AcDbEntity
  8
0
  6
Continuous
 62
     0
100
AcDbLine
 10
493.016
 20
366.634
 30
0.0
 11
493.0477
 21
366.3123
 31
0.0
  0
LINE
  5
193
330
181
100
AcDbEntity
  8
0
  6
Continuous
 62
     0
100
AcDbLine
 10
493.0477
 20
366.3123
 30
0.0
 11
493.1416
 21
366.0029
 31
0.0
  0
LINE
  5
194
330
181
100
AcDbEntity
  8
0
  6
Continuous
 62
     0
100
AcDbLine
 10
493.1416
 20
366.0029
 30
0.0
 11
493.294
 21
365.7178
 31
0.0
  0
LINE
  5
195
330
181
100
AcDbEntity
  8
0
  6
Continuous
 62
     0
100
AcDbLine
 10
493.294
 20
365.7178
 30
0.0
 11
493.4991
 21
365.4678
 31
0.0
  0
LINE
  5
196
330
181
100
AcDbEntity
  8
0
  6
Continuous
 62
     0
100
AcDbLine
 10
493.4991
 20
365.4678
 30
0.0
 11
493.749
 21
365.2627
 31
0.0
  0
LINE
  5
197
330
181
100
AcDbEntity
  8
0
  6
Continuous
 62
     0
100
AcDbLine
 10
493.749
 20
365.2627
 30
0.0
 11
494.0341
 21
365.1103
 31
0.0
  0
LINE
  5
198
330
181
100
AcDbEntity
  8
0
  6
Continuous
 62
     0
100
AcDbLine
 10
494.0341
 20
365.1103
 30
0.0
 11
494.3435
 21
365.0165
 31
0.0
  0
LINE
  5
199
330
181
100
AcDbEntity
  8
0
  6
Continuous
 62
     0
100
AcDbLine
 10
494.3435
 20
365.0165
 30
0.0
 11
494.6653
 21
364.9848
 31
0.0
  0
LINE
  5
19A
330
181
100
AcDbEntity
  8
0
  6
Continuous
 62
     0
100
AcDbLine
 10
494.6653
 20
364.9848
 30
0.0
 11
494.987
 21
365.0165
 31
0.0
  0
LINE
  5
19B
330
181
100
AcDbEntity
  8
0
  6
Continuous
 62
     0
100
AcDbLine
 10
494.987
 20
365.0165
 30
0.0
 11
495.2964
 21
365.1103
 31
0.0
  0
LINE
  5
19C
330
181
100
AcDbEntity
  8
0
  6
Continuous
 62
     0
100
AcDbLine
 10
495.2964
 20
365.1103
 30
0.0
 11
495.5815
 21
365.2627
 31
0.0
  0
LINE
  5
19D
330
181
100
AcDbEntity
  8
0
  6
Continuous
 62
     0
100
AcDbLine
 10
495.5815
 20
365.2627
 30
0.0
 11
495.8314
 21
365.4678
 31
0.0
  0
LINE
  5
19E
330
181
100
AcDbEntity
  8
0
  6
Continuous
 62
     0
100
AcDbLine
 10
495.8314
 20
365.4678
 30
0.0
 11
496.0365
 21
365.7178
 31
0.0
  0
LINE
  5
19F
330
181
100
AcDbEntity
  8
0
  6
Continuous
 62
     0
100
AcDbLine
 10
496.0365
 20
365.7178
 30
0.0
 11
496.1889
 21
366.0029
 31
0.0
  0
LINE
  5
1A0
330
181
100
AcDbEntity
  8
0
  6
Continuous
 62
     0
100
AcDbLine
 10
496.1889
 20
366.0029
 30
0.0
 11
496.2828
 21
366.3123
 31
0.0
  0
LINE
  5
1A1
330
181
100
AcDbEntity
  8
0
  6
Continuous
 62
     0
100
AcDbLine
 10
496.2828
 20
366.3123
 30
0.0
 11
496.3145
 21
366.634
 31
0.0
  0
ENDBLK
  5
1A3
330
181
100
AcDbEntity
  8
0
100
AcDbBlockEnd
  0
BLOCK
  5
1AE
330
1A7
100
AcDbEntity
  8
0
100
AcDbBlockBegin
  2
LW_Polyline_11
 70
     0
 71
     0
 10
628.032
 20
316.8442
 30
0.0
  3
LW_Polyline_11
  1

  0
LINE
  5
1A8
330
1A7
100
AcDbEntity
  8
0
  6
Continuous
 62
     0
100
AcDbLine
 10
628.032
 20
316.8442
 30
0.0
 11
641.9766
 21
316.8442
 31
0.0
  0
LINE
  5
1A9
330
1A7
100
AcDbEntity
  8
0
  6
Continuous
 62
     0
100
AcDbLine
 10
641.9766
 20
316.8442
 30
0.0
 11
641.9766
 21
457.865
 31
0.0
  0
LINE
  5
1AA
330
1A7
100
AcDbEntity
  8
0
  6
Continuous
 62
     0
100
AcDbLine
 10
641.9766
 20
457.865
 30
0.0
 11
627.9558
 21
457.865
 31
0.0
  0
LINE
  5
1AB
330
1A7
100
AcDbEntity
  8
0
  6
Continuous
 62
     0
100
AcDbLine
 10
627.9558
 20
457.865
 30
0.0
 11
627.9558
 21
316.8696
 31
0.0
  0
LINE
  5
1AC
330
1A7
100
AcDbEntity
  8
0
  6
Continuous
 62
     0
100
AcDbLine
 10
627.9558
 20
316.8696
 30
0.0
 11
628.032
 21
316.8696
 31
0.0
  0
LINE
  5
1AD
330
1A7
100
AcDbEntity
  8
0
  6
Continuous
 62
     0
100
AcDbLine
 10
628.032
 20
316.8696
 30
0.0
 11
628.032
 21
316.8442
 31
0.0
  0
ENDBLK
  5
1AF
330
1A7
100
AcDbEntity
  8
0
100
AcDbBlockEnd
  0
BLOCK
  5
1B6
330
1B1
100
AcDbEntity
  8
0
100
AcDbBlockBegin
  2
LW_Polyline_12
 70
     0
 71
     0
 10
414.164
 20
310.0878
 30
0.0
  3
LW_Polyline_12
  1

  0
LINE
  5
1B2
330
1B1
100
AcDbEntity
  8
0
  6
Continuous
 62
     0
100
AcDbLine
 10
414.164
 20
310.0878
 30
0.0
 11
428.261
 21
310.0878
 31
0.0
  0
LINE
  5
1B3
330
1B1
100
AcDbEntity
  8
0
  6
Continuous
 62
     0
100
AcDbLine
 10
428.261
 20
310.0878
 30
0.0
 11
428.261
 21
451.134
 31
0.0
  0
LINE
  5
1B4
330
1B1
100
AcDbEntity
  8
0
  6
Continuous
 62
     0
100
AcDbLine
 10
428.261
 20
451.134
 30
0.0
 11
414.164
 21
451.134
 31
0.0
  0
LINE
  5
1B5
330
1B1
100
AcDbEntity
  8
0
  6
Continuous
 62
     0
100
AcDbLine
 10
414.164
 20
451.134
 30
0.0
 11
414.164
 21
310.0878
 31
0.0
  0
ENDBLK
  5
1B7
330
1B1
100
AcDbEntity
  8
0
100
AcDbBlockEnd
  0
BLOCK
  5
1C0
330
1B9
100
AcDbEntity
  8
0
100
AcDbBlockBegin
  2
LW_Polyline_13
 70
     0
 71
     0
 10
410.5572
 20
287.8374
 30
0.0
  3
LW_Polyline_13
  1

  0
LINE
  5
1BA
330
1B9
100
AcDbEntity
  8
0
  6
Continuous
 62
     0
100
AcDbLine
 10
410.5572
 20
287.8374
 30
0.0
 11
410.5572
 21
302.9758
 31
0.0
  0
LINE
  5
1BB
330
1B9
100
AcDbEntity
  8
0
  6
Continuous
 62
     0
100
AcDbLine
 10
410.5572
 20
302.9758
 30
0.0
 11
490.1608
 21
302.9758
 31
0.0
  0
LINE
  5
1BC
330
1B9
100
AcDbEntity
  8
0
  6
Continuous
 62
     0
100
AcDbLine
 10
490.1608
 20
302.9758
 30
0.0
 11
490.1608
 21
287.7866
 31
0.0
  0
LINE
  5
1BD
330
1B9
100
AcDbEntity
  8
0
  6
Continuous
 62
     0
100
AcDbLine
 10
490.1608
 20
287.7866
 30
0.0
 11
410.5318
 21
287.7866
 31
0.0
  0
LINE
  5
1BE
330
1B9
100
AcDbEntity
  8
0
  6
Continuous
 62
     0
100
AcDbLine
 10
410.5318
 20
287.7866
 30
0.0
 11
410.5318
 21
287.8374
 31
0.0
  0
LINE
  5
1BF
330
1B9
100
AcDbEntity
  8
0
  6
Continuous
 62
     0
100
AcDbLine
 10
410.5318
 20
287.8374
 30
0.0
 11
410.5572
 21
287.8374
 31
0.0
  0
ENDBLK
  5
1C1
330
1B9
100
AcDbEntity
  8
0
100
AcDbBlockEnd
  0
BLOCK
  5
1C8
330
1C3
100
AcDbEntity
  8
0
100
AcDbBlockBegin
  2
LW_Polyline_14
 70
     0
 71
     0
 10
500.1176
 20
302.9504
 30
0.0
  3
LW_Polyline_14
  1

  0
LINE
  5
1C4
330
1C3
100
AcDbEntity
  8
0
  6
Continuous
 62
     0
100
AcDbLine
 10
500.1176
 20
302.9504
 30
0.0
 11
579.6958
 21
302.9504
 31
0.0
  0
LINE
  5
1C5
330
1C3
100
AcDbEntity
  8
0
  6
Continuous
 62
     0
100
AcDbLine
 10
579.6958
 20
302.9504
 30
0.0
 11
579.6958
 21
287.8374
 31
0.0
  0
LINE
  5
1C6
330
1C3
100
AcDbEntity
  8
0
  6
Continuous
 62
     0
100
AcDbLine
 10
579.6958
 20
287.8374
 30
0.0
 11
500.1176
 21
287.8374
 31
0.0
  0
LINE
  5
1C7
330
1C3
100
AcDbEntity
  8
0
  6
Continuous
 62
     0
100
AcDbLine
 10
500.1176
 20
287.8374
 30
0.0
 11
500.1176
 21
302.9504
 31
0.0
  0
ENDBLK
  5
1C9
330
1C3
100
AcDbEntity
  8
0
100
AcDbBlockEnd
  0
BLOCK
  5
1D0
330
1CB
100
AcDbEntity
  8
0
100
AcDbBlockBegin
  2
LW_Polyline_15
 70
     0
 71
     0
 10
595.3168
 20
511.459
 30
0.0
  3
LW_Polyline_15
  1

  0
LINE
  5
1CC
330
1CB
100
AcDbEntity
  8
0
  6
Continuous
 62
     0
100
AcDbLine
 10
595.3168
 20
511.459
 30
0.0
 11
595.3168
 21
533.0998
 31
0.0
  0
LINE
  5
1CD
330
1CB
100
AcDbEntity
  8
0
  6
Continuous
 62
     0
100
AcDbLine
 10
595.3168
 20
533.0998
 30
0.0
 11
579.5688
 21
533.0998
 31
0.0
  0
LINE
  5
1CE
330
1CB
100
AcDbEntity
  8
0
  6
Continuous
 62
     0
100
AcDbLine
 10
579.5688
 20
533.0998
 30
0.0
 11
579.5688
 21
511.459
 31
0.0
  0
LINE
  5
1CF
330
1CB
100
AcDbEntity
  8
0
  6
Continuous
 62
     0
100
AcDbLine
 10
579.5688
 20
511.459
 30
0.0
 11
595.3168
 21
511.459
 31
0.0
  0
ENDBLK
  5
1D1
330
1CB
100
AcDbEntity
  8
0
100
AcDbBlockEnd
  0
BLOCK
  5
1DA
330
1D3
100
AcDbEntity
  8
0
100
AcDbBlockBegin
  2
LW_Polyline_16
 70
     0
 71
     0
 10
594.2754
 20
503.331
 30
0.0
  3
LW_Polyline_16
  1

  0
LINE
  5
1D4
330
1D3
100
AcDbEntity
  8
0
  6
Continuous
 62
     0
100
AcDbLine
 10
594.2754
 20
503.331
 30
0.0
 11
595.8756
 21
503.331
 31
0.0
  0
LINE
  5
1D5
330
1D3
100
AcDbEntity
  8
0
  6
Continuous
 62
     0
100
AcDbLine
 10
595.8756
 20
503.331
 30
0.0
 11
595.8756
 21
479.9376
 31
0.0
  0
LINE
  5
1D6
330
1D3
100
AcDbEntity
  8
0
  6
Continuous
 62
     0
100
AcDbLine
 10
595.8756
 20
479.9376
 30
0.0
 11
578.9592
 21
479.9376
 31
0.0
  0
LINE
  5
1D7
330
1D3
100
AcDbEntity
  8
0
  6
Continuous
 62
     0
100
AcDbLine
 10
578.9592
 20
479.9376
 30
0.0
 11
578.9592
 21
503.2802
 31
0.0
  0
LINE
  5
1D8
330
1D3
100
AcDbEntity
  8
0
  6
Continuous
 62
     0
100
AcDbLine
 10
578.9592
 20
503.2802
 30
0.0
 11
594.2754
 21
503.2802
 31
0.0
  0
LINE
  5
1D9
330
1D3
100
AcDbEntity
  8
0
  6
Continuous
 62
     0
100
AcDbLine
 10
594.2754
 20
503.2802
 30
0.0
 11
594.2754
 21
503.331
 31
0.0
  0
ENDBLK
  5
1DB
330
1D3
100
AcDbEntity
  8
0
100
AcDbBlockEnd
  0
BLOCK
  5
1E2
330
1DD
100
AcDbEntity
  8
0
100
AcDbBlockBegin
  2
LW_Polyline_17
 70
     0
 71
     0
 10
502.683
 20
531.7282
 30
0.0
  3
LW_Polyline_17
  1

  0
LINE
  5
1DE
330
1DD
100
AcDbEntity
  8
0
  6
Continuous
 62
     0
100
AcDbLine
 10
502.683
 20
531.7282
 30
0.0
 11
502.683
 21
510.2144
 31
0.0
  0
LINE
  5
1DF
330
1DD
100
AcDbEntity
  8
0
  6
Continuous
 62
     0
100
AcDbLine
 10
502.683
 20
510.2144
 30
0.0
 11
576.3684
 21
510.2144
 31
0.0
  0
LINE
  5
1E0
330
1DD
100
AcDbEntity
  8
0
  6
Continuous
 62
     0
100
AcDbLine
 10
576.3684
 20
510.2144
 30
0.0
 11
576.3684
 21
531.7282
 31
0.0
  0
LINE
  5
1E1
330
1DD
100
AcDbEntity
  8
0
  6
Continuous
 62
     0
100
AcDbLine
 10
576.3684
 20
531.7282
 30
0.0
 11
502.683
 21
531.7282
 31
0.0
  0
ENDBLK
  5
1E3
330
1DD
100
AcDbEntity
  8
0
100
AcDbBlockEnd
  0
BLOCK
  5
1EC
330
1E5
100
AcDbEntity
  8
0
100
AcDbBlockBegin
  2
LW_Polyline_18
 70
     0
 71
     0
 10
474.0379
 20
324.994
 30
0.0
  3
LW_Polyline_18
  1

  0
LINE
  5
1E6
330
1E5
100
AcDbEntity
  8
0
  6
Continuous
 62
     0
100
AcDbLine
 10
474.0379
 20
324.994
 30
0.0
 11
475.3379
 21
326.294
 31
0.0
  0
LINE
  5
1E7
330
1E5
100
AcDbEntity
  8
0
  6
Continuous
 62
     0
100
AcDbLine
 10
475.3379
 20
326.294
 30
0.0
 11
514.938
 21
326.294
 31
0.0
  0
LINE
  5
1E8
330
1E5
100
AcDbEntity
  8
0
  6
Continuous
 62
     0
100
AcDbLine
 10
514.938
 20
326.294
 30
0.0
 11
516.238
 21
324.994
 31
0.0
  0
LINE
  5
1E9
330
1E5
100
AcDbEntity
  8
0
  6
Continuous
 62
     0
100
AcDbLine
 10
516.238
 20
324.994
 30
0.0
 11
516.238
 21
317.6941
 31
0.0
  0
LINE
  5
1EA
330
1E5
100
AcDbEntity
  8
0
  6
Continuous
 62
     0
100
AcDbLine
 10
516.238
 20
317.6941
 30
0.0
 11
474.0379
 21
317.6941
 31
0.0
  0
LINE
  5
1EB
330
1E5
100
AcDbEntity
  8
0
  6
Continuous
 62
     0
100
AcDbLine
 10
474.0379
 20
317.6941
 30
0.0
 11
474.0379
 21
324.994
 31
0.0
  0
ENDBLK
  5
1ED
330
1E5
100
AcDbEntity
  8
0
100
AcDbBlockEnd
  0
BLOCK
  5
1F4
330
1EF
100
AcDbEntity
  8
0
100
AcDbBlockBegin
  2
LW_Polyline_19
 70
     0
 71
     0
 10
478.6615
 20
429.3232
 30
0.0
  3
LW_Polyline_19
  1

  0
LINE
  5
1F0
330
1EF
100
AcDbEntity
  8
0
  6
Continuous
 62
     0
100
AcDbLine
 10
478.6615
 20
429.3232
 30
0.0
 11
478.6615
 21
394.3233
 31
0.0
  0
LINE
  5
1F1
330
1EF
100
AcDbEntity
  8
0
  6
Continuous
 62
     0
100
AcDbLine
 10
478.6615
 20
394.3233
 30
0.0
 11
513.6614
 21
394.3233
 31
0.0
  0
LINE
  5
1F2
330
1EF
100
AcDbEntity
  8
0
  6
Continuous
 62
     0
100
AcDbLine
 10
513.6614
 20
394.3233
 30
0.0
 11
513.6614
 21
429.3232
 31
0.0
  0
LINE
  5
1F3
330
1EF
100
AcDbEntity
  8
0
  6
Continuous
 62
     0
100
AcDbLine
 10
513.6614
 20
429.3232
 30
0.0
 11
478.6615
 21
429.3232
 31
0.0
  0
ENDBLK
  5
1F5
330
1EF
100
AcDbEntity
  8
0
100
AcDbBlockEnd
  0
BLOCK
  5
1FC
330
1F7
100
AcDbEntity
  8
0
100
AcDbBlockBegin
  2
LW_Polyline_20
 70
     0
 71
     0
 10
529.1615
 20
369.3234
 30
0.0
  3
LW_Polyline_20
  1

  0
LINE
  5
1F8
330
1F7
100
AcDbEntity
  8
0
  6
Continuous
 62
     0
100
AcDbLine
 10
529.1615
 20
369.3234
 30
0.0
 11
544.1615
 21
369.3234
 31
0.0
  0
LINE
  5
1F9
330
1F7
100
AcDbEntity
  8
0
  6
Continuous
 62
     0
100
AcDbLine
 10
544.1615
 20
369.3234
 30
0.0
 11
544.1615
 21
386.3233
 31
0.0
  0
LINE
  5
1FA
330
1F7
100
AcDbEntity
  8
0
  6
Continuous
 62
     0
100
AcDbLine
 10
544.1615
 20
386.3233
 30
0.0
 11
529.1615
 21
386.3233
 31
0.0
  0
LINE
  5
1FB
330
1F7
100
AcDbEntity
  8
0
  6
Continuous
 62
     0
100
AcDbLine
 10
529.1615
 20
386.3233
 30
0.0
 11
529.1615
 21
369.3234
 31
0.0
  0
ENDBLK
  5
1FD
330
1F7
100
AcDbEntity
  8
0
100
AcDbBlockEnd
  0
BLOCK
  5
204
330
1FF
100
AcDbEntity
  8
0
100
AcDbBlockBegin
  2
LW_Polyline_21
 70
     0
 71
     0
 10
531.9613
 20
427.9232
 30
0.0
  3
LW_Polyline_21
  1

  0
LINE
  5
200
330
1FF
100
AcDbEntity
  8
0
  6
Continuous
 62
     0
100
AcDbLine
 10
531.9613
 20
427.9232
 30
0.0
 11
546.9613
 21
427.9232
 31
0.0
  0
LINE
  5
201
330
1FF
100
AcDbEntity
  8
0
  6
Continuous
 62
     0
100
AcDbLine
 10
546.9613
 20
427.9232
 30
0.0
 11
546.9613
 21
444.9234
 31
0.0
  0
LINE
  5
202
330
1FF
100
AcDbEntity
  8
0
  6
Continuous
 62
     0
100
AcDbLine
 10
546.9613
 20
444.9234
 30
0.0
 11
531.9613
 21
444.9234
 31
0.0
  0
LINE
  5
203
330
1FF
100
AcDbEntity
  8
0
  6
Continuous
 62
     0
100
AcDbLine
 10
531.9613
 20
444.9234
 30
0.0
 11
531.9613
 21
427.9232
 31
0.0
  0
ENDBLK
  5
205
330
1FF
100
AcDbEntity
  8
0
100
AcDbBlockEnd
  0
BLOCK
  5
20C
330
207
100
AcDbEntity
  8
0
100
AcDbBlockBegin
  2
LW_Polyline_22
 70
     0
 71
     0
 10
536.6614
 20
406.3233
 30
0.0
  3
LW_Polyline_22
  1

  0
LINE
  5
208
330
207
100
AcDbEntity
  8
0
  6
Continuous
 62
     0
100
AcDbLine
 10
536.6614
 20
406.3233
 30
0.0
 11
547.6613
 21
406.3233
 31
0.0
  0
LINE
  5
209
330
207
100
AcDbEntity
  8
0
  6
Continuous
 62
     0
100
AcDbLine
 10
547.6613
 20
406.3233
 30
0.0
 11
547.6613
 21
419.3233
 31
0.0
  0
LINE
  5
20A
330
207
100
AcDbEntity
  8
0
  6
Continuous
 62
     0
100
AcDbLine
 10
547.6613
 20
419.3233
 30
0.0
 11
536.6614
 21
419.3233
 31
0.0
  0
LINE
  5
20B
330
207
100
AcDbEntity
  8
0
  6
Continuous
 62
     0
100
AcDbLine
 10
536.6614
 20
419.3233
 30
0.0
 11
536.6614
 21
406.3233
 31
0.0
  0
ENDBLK
  5
20D
330
207
100
AcDbEntity
  8
0
100
AcDbBlockEnd
  0
BLOCK
  5
214
330
20F
100
AcDbEntity
  8
0
100
AcDbBlockBegin
  2
LW_Polyline_23
 70
     0
 71
     0
 10
605.1614
 20
395.8232
 30
0.0
  3
LW_Polyline_23
  1

  0
LINE
  5
210
330
20F
100
AcDbEntity
  8
0
  6
Continuous
 62
     0
100
AcDbLine
 10
605.1614
 20
395.8232
 30
0.0
 11
605.1614
 21
430.8234
 31
0.0
  0
LINE
  5
211
330
20F
100
AcDbEntity
  8
0
  6
Continuous
 62
     0
100
AcDbLine
 10
605.1614
 20
430.8234
 30
0.0
 11
570.1614
 21
430.8234
 31
0.0
  0
LINE
  5
212
330
20F
100
AcDbEntity
  8
0
  6
Continuous
 62
     0
100
AcDbLine
 10
570.1614
 20
430.8234
 30
0.0
 11
570.1614
 21
395.8232
 31
0.0
  0
LINE
  5
213
330
20F
100
AcDbEntity
  8
0
  6
Continuous
 62
     0
100
AcDbLine
 10
570.1614
 20
395.8232
 30
0.0
 11
605.1614
 21
395.8232
 31
0.0
  0
ENDBLK
  5
215
330
20F
100
AcDbEntity
  8
0
100
AcDbBlockEnd
  0
BLOCK
  5
21C
330
217
100
AcDbEntity
  8
0
100
AcDbBlockBegin
  2
LW_Polyline_24
 70
     0
 71
     0
 10
564.9105
 20
374.0264
 30
0.0
  3
LW_Polyline_24
  1

  0
LINE
  5
218
330
217
100
AcDbEntity
  8
0
  6
Continuous
 62
     0
100
AcDbLine
 10
564.9105
 20
374.0264
 30
0.0
 11
564.9105
 21
354.9264
 31
0.0
  0
LINE
  5
219
330
217
100
AcDbEntity
  8
0
  6
Continuous
 62
     0
100
AcDbLine
 10
564.9105
 20
354.9264
 30
0.0
 11
584.0105
 21
354.9264
 31
0.0
  0
LINE
  5
21A
330
217
100
AcDbEntity
  8
0
  6
Continuous
 62
     0
100
AcDbLine
 10
584.0105
 20
354.9264
 30
0.0
 11
584.0105
 21
374.0264
 31
0.0
  0
LINE
  5
21B
330
217
100
AcDbEntity
  8
0
  6
Continuous
 62
     0
100
AcDbLine
 10
584.0105
 20
374.0264
 30
0.0
 11
564.9105
 21
374.0264
 31
0.0
  0
ENDBLK
  5
21D
330
217
100
AcDbEntity
  8
0
100
AcDbBlockEnd
  0
BLOCK
  5
224
330
21F
100
AcDbEntity
  8
0
100
AcDbBlockBegin
  2
LW_Polyline_25
 70
     0
 71
     0
 10
383.1613
 20
480.3234
 30
0.0
  3
LW_Polyline_25
  1

  0
LINE
  5
220
330
21F
100
AcDbEntity
  8
0
  6
Continuous
 62
     0
100
AcDbLine
 10
383.1613
 20
480.3234
 30
0.0
 11
383.1613
 21
463.3232
 31
0.0
  0
LINE
  5
221
330
21F
100
AcDbEntity
  8
0
  6
Continuous
 62
     0
100
AcDbLine
 10
383.1613
 20
463.3232
 30
0.0
 11
400.1615
 21
463.3232
 31
0.0
  0
LINE
  5
222
330
21F
100
AcDbEntity
  8
0
  6
Continuous
 62
     0
100
AcDbLine
 10
400.1615
 20
463.3232
 30
0.0
 11
400.1615
 21
480.3234
 31
0.0
  0
LINE
  5
223
330
21F
100
AcDbEntity
  8
0
  6
Continuous
 62
     0
100
AcDbLine
 10
400.1615
 20
480.3234
 30
0.0
 11
383.1613
 21
480.3234
 31
0.0
  0
ENDBLK
  5
225
330
21F
100
AcDbEntity
  8
0
100
AcDbBlockEnd
  0
BLOCK
  5
22B
330
227
100
AcDbEntity
  8
0
100
AcDbBlockBegin
  2
LW_Polyline_26
 70
     0
 71
     0
 10
653.7041
 20
429.3408
 30
0.0
  3
LW_Polyline_26
  1

  0
LINE
  5
228
330
227
100
AcDbEntity
  8
0
  6
Continuous
 62
     0
100
AcDbLine
 10
653.7041
 20
429.3408
 30
0.0
 11
646.8041
 21
429.3408
 31
0.0
  0
LINE
  5
229
330
227
100
AcDbEntity
  8
0
  6
Continuous
 62
     0
100
AcDbLine
 10
646.8041
 20
429.3408
 30
0.0
 11
646.8041
 21
480.9409
 31
0.0
  0
LINE
  5
22A
330
227
100
AcDbEntity
  8
0
  6
Continuous
 62
     0
100
AcDbLine
 10
646.8041
 20
480.9409
 30
0.0
 11
653.7041
 21
480.9409
 31
0.0
  0
ENDBLK
  5
22C
330
227
100
AcDbEntity
  8
0
100
AcDbBlockEnd
  0
BLOCK
  5
236
330
22E
100
AcDbEntity
  8
0
100
AcDbBlockBegin
  2
LW_Polyline_27
 70
     0
 71
     0
 10
653.8041
 20
480.9409
 30
0.0
  3
LW_Polyline_27
  1

  0
LINE
  5
22F
330
22E
100
AcDbEntity
  8
0
  6
Continuous
 62
     0
100
AcDbLine
 10
653.8041
 20
480.9409
 30
0.0
 11
661.8041
 21
480.9409
 31
0.0
  0
LINE
  5
230
330
22E
100
AcDbEntity
  8
0
  6
Continuous
 62
     0
100
AcDbLine
 10
661.8041
 20
480.9409
 30
0.0
 11
661.8041
 21
459.341
 31
0.0
  0
LINE
  5
231
330
22E
100
AcDbEntity
  8
0
  6
Continuous
 62
     0
100
AcDbLine
 10
661.8041
 20
459.341
 30
0.0
 11
660.004
 21
459.341
 31
0.0
  0
LINE
  5
232
330
22E
100
AcDbEntity
  8
0
  6
Continuous
 62
     0
100
AcDbLine
 10
660.004
 20
459.341
 30
0.0
 11
660.004
 21
450.8409
 31
0.0
  0
LINE
  5
233
330
22E
100
AcDbEntity
  8
0
  6
Continuous
 62
     0
100
AcDbLine
 10
660.004
 20
450.8409
 30
0.0
 11
661.8041
 21
450.8409
 31
0.0
  0
LINE
  5
234
330
22E
100
AcDbEntity
  8
0
  6
Continuous
 62
     0
100
AcDbLine
 10
661.8041
 20
450.8409
 30
0.0
 11
661.8041
 21
429.3408
 31
0.0
  0
LINE
  5
235
330
22E
100
AcDbEntity
  8
0
  6
Continuous
 62
     0
100
AcDbLine
 10
661.8041
 20
429.3408
 30
0.0
 11
659.4041
 21
429.3408
 31
0.0
  0
ENDBLK
  5
237
330
22E
100
AcDbEntity
  8
0
100
AcDbBlockEnd
  0
BLOCK
  5
23D
330
239
100
AcDbEntity
  8
0
100
AcDbBlockBegin
  2
LW_Polyline_28
 70
     0
 71
     0
 10
589.2175
 20
443.9796
 30
0.0
  3
LW_Polyline_28
  1

  0
LINE
  5
23A
330
239
100
AcDbEntity
  8
0
  6
Continuous
 62
     0
100
AcDbLine
 10
589.2175
 20
443.9796
 30
0.0
 11
589.2175
 21
437.3502
 31
0.0
  0
LINE
  5
23B
330
239
100
AcDbEntity
  8
0
  6
Continuous
 62
     0
100
AcDbLine
 10
589.2175
 20
437.3502
 30
0.0
 11
582.1055
 21
437.3502
 31
0.0
  0
LINE
  5
23C
330
239
100
AcDbEntity
  8
0
  6
Continuous
 62
     0
100
AcDbLine
 10
582.1055
 20
437.3502
 30
0.0
 11
582.1055
 21
444.0304
 31
0.0
  0
ENDBLK
  5
23E
330
239
100
AcDbEntity
  8
0
100
AcDbBlockEnd
  0
BLOCK
  5
244
330
240
100
AcDbEntity
  8
0
100
AcDbBlockBegin
  2
LW_Polyline_29
 70
     0
 71
     0
 10
582.1055
 20
456.5272
 30
0.0
  3
LW_Polyline_29
  1

  0
LINE
  5
241
330
240
100
AcDbEntity
  8
0
  6
Continuous
 62
     0
100
AcDbLine
 10
582.1055
 20
456.5272
 30
0.0
 11
582.1055
 21
463.1566
 31
0.0
  0
LINE
  5
242
330
240
100
AcDbEntity
  8
0
  6
Continuous
 62
     0
100
AcDbLine
 10
582.1055
 20
463.1566
 30
0.0
 11
589.2175
 21
463.1566
 31
0.0
  0
LINE
  5
243
330
240
100
AcDbEntity
  8
0
  6
Continuous
 62
     0
100
AcDbLine
 10
589.2175
 20
463.1566
 30
0.0
 11
589.2175
 21
456.4764
 31
0.0
  0
ENDBLK
  5
245
330
240
100
AcDbEntity
  8
0
100
AcDbBlockEnd
  0
BLOCK
  5
24C
330
247
100
AcDbEntity
  8
0
100
AcDbBlockBegin
  2
LW_Polyline_30
 70
     0
 71
     0
 10
391.7584
 20
441.516
 30
0.0
  3
LW_Polyline_30
  1

  0
LINE
  5
248
330
247
100
AcDbEntity
  8
0
  6
Continuous
 62
     0
100
AcDbLine
 10
391.7584
 20
441.516
 30
0.0
 11
391.7584
 21
451.803
 31
0.0
  0
LINE
  5
249
330
247
100
AcDbEntity
  8
0
  6
Continuous
 62
     0
100
AcDbLine
 10
391.7584
 20
451.803
 30
0.0
 11
385.7132
 21
451.803
 31
0.0
  0
LINE
  5
24A
330
247
100
AcDbEntity
  8
0
  6
Continuous
 62
     0
100
AcDbLine
 10
385.7132
 20
451.803
 30
0.0
 11
385.7132
 21
441.516
 31
0.0
  0
LINE
  5
24B
330
247
100
AcDbEntity
  8
0
  6
Continuous
 62
     0
100
AcDbLine
 10
385.7132
 20
441.516
 30
0.0
 11
391.7584
 21
441.516
 31
0.0
  0
ENDBLK
  5
24D
330
247
100
AcDbEntity
  8
0
100
AcDbBlockEnd
  0
BLOCK
  5
254
330
24F
100
AcDbEntity
  8
0
100
AcDbBlockBegin
  2
LW_Polyline_31
 70
     0
 71
     0
 10
400.0134
 20
441.516
 30
0.0
  3
LW_Polyline_31
  1

  0
LINE
  5
250
330
24F
100
AcDbEntity
  8
0
  6
Continuous
 62
     0
100
AcDbLine
 10
400.0134
 20
441.516
 30
0.0
 11
400.0134
 21
451.803
 31
0.0
  0
LINE
  5
251
330
24F
100
AcDbEntity
  8
0
  6
Continuous
 62
     0
100
AcDbLine
 10
400.0134
 20
451.803
 30
0.0
 11
393.9682
 21
451.803
 31
0.0
  0
LINE
  5
252
330
24F
100
AcDbEntity
  8
0
  6
Continuous
 62
     0
100
AcDbLine
 10
393.9682
 20
451.803
 30
0.0
 11
393.9682
 21
441.516
 31
0.0
  0
LINE
  5
253
330
24F
100
AcDbEntity
  8
0
  6
Continuous
 62
     0
100
AcDbLine
 10
393.9682
 20
441.516
 30
0.0
 11
400.0134
 21
441.516
 31
0.0
  0
ENDBLK
  5
255
330
24F
100
AcDbEntity
  8
0
100
AcDbBlockEnd
  0
BLOCK
  5
25C
330
257
100
AcDbEntity
  8
0
100
AcDbBlockBegin
  2
LW_Polyline_32
 70
     0
 71
     0
 10
408.5224
 20
441.516
 30
0.0
  3
LW_Polyline_32
  1

  0
LINE
  5
258
330
257
100
AcDbEntity
  8
0
  6
Continuous
 62
     0
100
AcDbLine
 10
408.5224
 20
441.516
 30
0.0
 11
408.5224
 21
451.803
 31
0.0
  0
LINE
  5
259
330
257
100
AcDbEntity
  8
0
  6
Continuous
 62
     0
100
AcDbLine
 10
408.5224
 20
451.803
 30
0.0
 11
402.4772
 21
451.803
 31
0.0
  0
LINE
  5
25A
330
257
100
AcDbEntity
  8
0
  6
Continuous
 62
     0
100
AcDbLine
 10
402.4772
 20
451.803
 30
0.0
 11
402.4772
 21
441.516
 31
0.0
  0
LINE
  5
25B
330
257
100
AcDbEntity
  8
0
  6
Continuous
 62
     0
100
AcDbLine
 10
402.4772
 20
441.516
 30
0.0
 11
408.5224
 21
441.516
 31
0.0
  0
ENDBLK
  5
25D
330
257
100
AcDbEntity
  8
0
100
AcDbBlockEnd
  0
BLOCK
  5
263
330
25F
100
AcDbEntity
  8
0
100
AcDbBlockBegin
  2
LW_Polyline_35
 70
     0
 71
     0
 10
429.3052
 20
521.2349
 30
0.0
  3
LW_Polyline_35
  1

  0
LINE
  5
260
330
25F
100
AcDbEntity
  8
0
  6
Continuous
 62
     0
100
AcDbLine
 10
429.3052
 20
521.2349
 30
0.0
 11
426.2051
 21
521.2349
 31
0.0
  0
LINE
  5
261
330
25F
100
AcDbEntity
  8
0
  6
Continuous
 62
     0
100
AcDbLine
 10
426.2051
 20
521.2349
 30
0.0
 11
426.2051
 21
512.4348
 31
0.0
  0
LINE
  5
262
330
25F
100
AcDbEntity
  8
0
  6
Continuous
 62
     0
100
AcDbLine
 10
426.2051
 20
512.4348
 30
0.0
 11
429.3052
 21
512.4348
 31
0.0
  0
ENDBLK
  5
264
330
25F
100
AcDbEntity
  8
0
100
AcDbBlockEnd
  0
BLOCK
  5
26A
330
266
100
AcDbEntity
  8
0
100
AcDbBlockBegin
  2
LW_Polyline_36
 70
     0
 71
     0
 10
454.7052
 20
521.1348
 30
0.0
  3
LW_Polyline_36
  1

  0
LINE
  5
267
330
266
100
AcDbEntity
  8
0
  6
Continuous
 62
     0
100
AcDbLine
 10
454.7052
 20
521.1348
 30
0.0
 11
457.7052
 21
521.1348
 31
0.0
  0
LINE
  5
268
330
266
100
AcDbEntity
  8
0
  6
Continuous
 62
     0
100
AcDbLine
 10
457.7052
 20
521.1348
 30
0.0
 11
457.7052
 21
512.335
 31
0.0
  0
LINE
  5
269
330
266
100
AcDbEntity
  8
0
  6
Continuous
 62
     0
100
AcDbLine
 10
457.7052
 20
512.335
 30
0.0
 11
454.7052
 21
512.335
 31
0.0
  0
ENDBLK
  5
26B
330
266
100
AcDbEntity
  8
0
100
AcDbBlockEnd
  0
BLOCK
  5
271
330
26D
100
AcDbEntity
  8
0
100
AcDbBlockBegin
  2
LW_Polyline_37
 70
     0
 71
     0
 10
393.2372
 20
521.2349
 30
0.0
  3
LW_Polyline_37
  1

  0
LINE
  5
26E
330
26D
100
AcDbEntity
  8
0
  6
Continuous
 62
     0
100
AcDbLine
 10
393.2372
 20
521.2349
 30
0.0
 11
390.1371
 21
521.2349
 31
0.0
  0
LINE
  5
26F
330
26D
100
AcDbEntity
  8
0
  6
Continuous
 62
     0
100
AcDbLine
 10
390.1371
 20
521.2349
 30
0.0
 11
390.1371
 21
512.4348
 31
0.0
  0
LINE
  5
270
330
26D
100
AcDbEntity
  8
0
  6
Continuous
 62
     0
100
AcDbLine
 10
390.1371
 20
512.4348
 30
0.0
 11
393.2372
 21
512.4348
 31
0.0
  0
ENDBLK
  5
272
330
26D
100
AcDbEntity
  8
0
100
AcDbBlockEnd
  0
BLOCK
  5
278
330
274
100
AcDbEntity
  8
0
100
AcDbBlockBegin
  2
LW_Polyline_38
 70
     0
 71
     0
 10
418.6372
 20
521.1348
 30
0.0
  3
LW_Polyline_38
  1

  0
LINE
  5
275
330
274
100
AcDbEntity
  8
0
  6
Continuous
 62
     0
100
AcDbLine
 10
418.6372
 20
521.1348
 30
0.0
 11
421.6372
 21
521.1348
 31
0.0
  0
LINE
  5
276
330
274
100
AcDbEntity
  8
0
  6
Continuous
 62
     0
100
AcDbLine
 10
421.6372
 20
521.1348
 30
0.0
 11
421.6372
 21
512.335
 31
0.0
  0
LINE
  5
277
330
274
100
AcDbEntity
  8
0
  6
Continuous
 62
     0
100
AcDbLine
 10
421.6372
 20
512.335
 30
0.0
 11
418.6372
 21
512.335
 31
0.0
  0
ENDBLK
  5
279
330
274
100
AcDbEntity
  8
0
100
AcDbBlockEnd
  0
BLOCK
  5
281
330
27C
100
AcDbEntity
  8
0
100
AcDbBlockBegin
  2
LW_Polyline_39
 70
     0
 71
     0
 10
643.6375
 20
294.959
 30
0.0
  3
LW_Polyline_39
  1

  0
LINE
  5
27D
330
27C
100
AcDbEntity
  8
0
  6
Continuous
 62
     0
100
AcDbLine
 10
643.6375
 20
294.959
 30
0.0
 11
643.6375
 21
286.559
 31
0.0
  0
LINE
  5
27E
330
27C
100
AcDbEntity
  8
0
  6
Continuous
 62
     0
100
AcDbLine
 10
643.6375
 20
286.559
 30
0.0
 11
639.5375
 21
286.559
 31
0.0
  0
LINE
  5
27F
330
27C
100
AcDbEntity
  8
0
  6
Continuous
 62
     0
100
AcDbLine
 10
639.5375
 20
286.559
 30
0.0
 11
638.1374
 21
287.9588
 31
0.0
  0
LINE
  5
280
330
27C
100
AcDbEntity
  8
0
  6
Continuous
 62
     0
100
AcDbLine
 10
638.1374
 20
287.9588
 30
0.0
 11
629.4374
 21
287.9588
 31
0.0
  0
ENDBLK
  5
282
330
27C
100
AcDbEntity
  8
0
100
AcDbBlockEnd
  0
BLOCK
  5
289
330
284
100
AcDbEntity
  8
0
100
AcDbBlockBegin
  2
LW_Polyline_40
 70
     0
 71
     0
 10
615.3374
 20
294.959
 30
0.0
  3
LW_Polyline_40
  1

  0
LINE
  5
285
330
284
100
AcDbEntity
  8
0
  6
Continuous
 62
     0
100
AcDbLine
 10
615.3374
 20
294.959
 30
0.0
 11
615.3374
 21
286.7589
 31
0.0
  0
LINE
  5
286
330
284
100
AcDbEntity
  8
0
  6
Continuous
 62
     0
100
AcDbLine
 10
615.3374
 20
286.7589
 30
0.0
 11
619.2375
 21
286.7589
 31
0.0
  0
LINE
  5
287
330
284
100
AcDbEntity
  8
0
  6
Continuous
 62
     0
100
AcDbLine
 10
619.2375
 20
286.7589
 30
0.0
 11
620.7374
 21
287.9588
 31
0.0
  0
LINE
  5
288
330
284
100
AcDbEntity
  8
0
  6
Continuous
 62
     0
100
AcDbLine
 10
620.7374
 20
287.9588
 30
0.0
 11
629.6373
 21
287.9588
 31
0.0
  0
ENDBLK
  5
28A
330
284
100
AcDbEntity
  8
0
100
AcDbBlockEnd
  0
BLOCK
  5
292
330
28D
100
AcDbEntity
  8
0
100
AcDbBlockBegin
  2
LW_Polyline_41
 70
     0
 71
     0
 10
354.2289
 20
319.8579
 30
0.0
  3
LW_Polyline_41
  1

  0
LINE
  5
28E
330
28D
100
AcDbEntity
  8
0
  6
Continuous
 62
     0
100
AcDbLine
 10
354.2289
 20
319.8579
 30
0.0
 11
354.2289
 21
304.1099
 31
0.0
  0
LINE
  5
28F
330
28D
100
AcDbEntity
  8
0
  6
Continuous
 62
     0
100
AcDbLine
 10
354.2289
 20
304.1099
 30
0.0
 11
389.0269
 21
304.1099
 31
0.0
  0
LINE
  5
290
330
28D
100
AcDbEntity
  8
0
  6
Continuous
 62
     0
100
AcDbLine
 10
389.0269
 20
304.1099
 30
0.0
 11
389.0269
 21
319.8579
 31
0.0
  0
LINE
  5
291
330
28D
100
AcDbEntity
  8
0
  6
Continuous
 62
     0
100
AcDbLine
 10
389.0269
 20
319.8579
 30
0.0
 11
354.2289
 21
319.8579
 31
0.0
  0
ENDBLK
  5
293
330
28D
100
AcDbEntity
  8
0
100
AcDbBlockEnd
  0
BLOCK
  5
29A
330
295
100
AcDbEntity
  8
0
100
AcDbBlockBegin
  2
LW_Polyline_42
 70
     0
 71
     0
 10
660.9354
 20
492.9934
 30
0.0
  3
LW_Polyline_42
  1

  0
LINE
  5
296
330
295
100
AcDbEntity
  8
0
  6
Continuous
 62
     0
100
AcDbLine
 10
660.9354
 20
492.9934
 30
0.0
 11
642.1394
 21
492.9934
 31
0.0
  0
LINE
  5
297
330
295
100
AcDbEntity
  8
0
  6
Continuous
 62
     0
100
AcDbLine
 10
642.1394
 20
492.9934
 30
0.0
 11
642.1394
 21
484.3574
 31
0.0
  0
LINE
  5
298
330
295
100
AcDbEntity
  8
0
  6
Continuous
 62
     0
100
AcDbLine
 10
642.1394
 20
484.3574
 30
0.0
 11
660.9354
 21
484.3574
 31
0.0
  0
LINE
  5
299
330
295
100
AcDbEntity
  8
0
  6
Continuous
 62
     0
100
AcDbLine
 10
660.9354
 20
484.3574
 30
0.0
 11
660.9354
 21
492.9934
 31
0.0
  0
ENDBLK
  5
29B
330
295
100
AcDbEntity
  8
0
100
AcDbBlockEnd
  0
BLOCK
  5
2A2
330
29D
100
AcDbEntity
  8
0
100
AcDbBlockBegin
  2
LW_Polyline_43
 70
     0
 71
     0
 10
661.8506
 20
531.0411
 30
0.0
  3
LW_Polyline_43
  1

  0
LINE
  5
29E
330
29D
100
AcDbEntity
  8
0
  6
Continuous
 62
     0
100
AcDbLine
 10
661.8506
 20
531.0411
 30
0.0
 11
630.8405
 21
531.0411
 31
0.0
  0
LINE
  5
29F
330
29D
100
AcDbEntity
  8
0
  6
Continuous
 62
     0
100
AcDbLine
 10
630.8405
 20
531.0411
 30
0.0
 11
630.8405
 21
518.7412
 31
0.0
  0
LINE
  5
2A0
330
29D
100
AcDbEntity
  8
0
  6
Continuous
 62
     0
100
AcDbLine
 10
630.8405
 20
518.7412
 30
0.0
 11
661.8506
 21
518.7412
 31
0.0
  0
LINE
  5
2A1
330
29D
100
AcDbEntity
  8
0
  6
Continuous
 62
     0
100
AcDbLine
 10
661.8506
 20
518.7412
 30
0.0
 11
661.8506
 21
531.0411
 31
0.0
  0
ENDBLK
  5
2A3
330
29D
100
AcDbEntity
  8
0
100
AcDbBlockEnd
  0
BLOCK
  5
2DF
330
2DB
100
AcDbEntity
  8
0
100
AcDbBlockBegin
  2
LW_Polyline_44
 70
     0
 71
     0
 10
630.428
 20
511.5796
 30
0.0
  3
LW_Polyline_44
  1

  0
LINE
  5
2DC
330
2DB
100
AcDbEntity
  8
0
  6
Continuous
 62
     0
100
AcDbLine
 10
630.428
 20
511.5796
 30
0.0
 11
630.428
 21
532.9156
 31
0.0
  0
LINE
  5
2DD
330
2DB
100
AcDbEntity
  8
0
  6
Continuous
 62
     0
100
AcDbLine
 10
630.428
 20
532.9156
 30
0.0
 11
613.918
 21
532.9156
 31
0.0
  0
LINE
  5
2DE
330
2DB
100
AcDbEntity
  8
0
  6
Continuous
 62
     0
100
AcDbLine
 10
613.918
 20
532.9156
 30
0.0
 11
613.918
 21
511.5796
 31
0.0
  0
ENDBLK
  5
2E0
330
2DB
100
AcDbEntity
  8
0
100
AcDbBlockEnd
  0
BLOCK
  5
2E6
330
2E2
100
AcDbEntity
  8
0
100
AcDbBlockBegin
  2
LW_Polyline_45
 70
     0
 71
     0
 10
630.428
 20
508.7856
 30
0.0
  3
LW_Polyline_45
  1

  0
LINE
  5
2E3
330
2E2
100
AcDbEntity
  8
0
  6
Continuous
 62
     0
100
AcDbLine
 10
630.428
 20
508.7856
 30
0.0
 11
630.428
 21
498.8796
 31
0.0
  0
LINE
  5
2E4
330
2E2
100
AcDbEntity
  8
0
  6
Continuous
 62
     0
100
AcDbLine
 10
630.428
 20
498.8796
 30
0.0
 11
613.918
 21
498.8796
 31
0.0
  0
LINE
  5
2E5
330
2E2
100
AcDbEntity
  8
0
  6
Continuous
 62
     0
100
AcDbLine
 10
613.918
 20
498.8796
 30
0.0
 11
613.918
 21
508.7856
 31
0.0
  0
ENDBLK
  5
2E7
330
2E2
100
AcDbEntity
  8
0
100
AcDbBlockEnd
  0
BLOCK
  5
2EF
330
2EA
100
AcDbEntity
  8
0
100
AcDbBlockBegin
  2
LW_Polyline_46
 70
     0
 71
     0
 10
611.4755
 20
531.8458
 30
0.0
  3
LW_Polyline_46
  1

  0
LINE
  5
2EB
330
2EA
100
AcDbEntity
  8
0
  6
Continuous
 62
     0
100
AcDbLine
 10
611.4755
 20
531.8458
 30
0.0
 11
611.4755
 21
517.8458
 31
0.0
  0
LINE
  5
2EC
330
2EA
100
AcDbEntity
  8
0
  6
Continuous
 62
     0
100
AcDbLine
 10
611.4755
 20
517.8458
 30
0.0
 11
598.2757
 21
517.8458
 31
0.0
  0
LINE
  5
2ED
330
2EA
100
AcDbEntity
  8
0
  6
Continuous
 62
     0
100
AcDbLine
 10
598.2757
 20
517.8458
 30
0.0
 11
598.2757
 21
531.8458
 31
0.0
  0
LINE
  5
2EE
330
2EA
100
AcDbEntity
  8
0
  6
Continuous
 62
     0
100
AcDbLine
 10
598.2757
 20
531.8458
 30
0.0
 11
611.4755
 21
531.8458
 31
0.0
  0
ENDBLK
  5
2F0
330
2EA
100
AcDbEntity
  8
0
100
AcDbBlockEnd
  0
BLOCK
  5
2F7
330
2F2
100
AcDbEntity
  8
0
100
AcDbBlockBegin
  2
LW_Polyline_47
 70
     0
 71
     0
 10
354.2289
 20
319.8579
 30
0.0
  3
LW_Polyline_47
  1

  0
LINE
  5
2F3
330
2F2
100
AcDbEntity
  8
0
  6
Continuous
 62
     0
100
AcDbLine
 10
354.2289
 20
319.8579
 30
0.0
 11
389.0269
 21
319.8579
 31
0.0
  0
LINE
  5
2F4
330
2F2
100
AcDbEntity
  8
0
  6
Continuous
 62
     0
100
AcDbLine
 10
389.0269
 20
319.8579
 30
0.0
 11
389.0269
 21
304.1099
 31
0.0
  0
LINE
  5
2F5
330
2F2
100
AcDbEntity
  8
0
  6
Continuous
 62
     0
100
AcDbLine
 10
389.0269
 20
304.1099
 30
0.0
 11
354.2289
 21
304.1099
 31
0.0
  0
LINE
  5
2F6
330
2F2
100
AcDbEntity
  8
0
  6
Continuous
 62
     0
100
AcDbLine
 10
354.2289
 20
304.1099
 30
0.0
 11
354.2289
 21
319.8579
 31
0.0
  0
ENDBLK
  5
2F8
330
2F2
100
AcDbEntity
  8
0
100
AcDbBlockEnd
  0
BLOCK
  5
2FF
330
2FA
100
AcDbEntity
  8
0
100
AcDbBlockBegin
  2
LW_Polyline_48
 70
     0
 71
     0
 10
354.7369
 20
385.8979
 30
0.0
  3
LW_Polyline_48
  1

  0
LINE
  5
2FB
330
2FA
100
AcDbEntity
  8
0
  6
Continuous
 62
     0
100
AcDbLine
 10
354.7369
 20
385.8979
 30
0.0
 11
354.7369
 21
407.9959
 31
0.0
  0
LINE
  5
2FC
330
2FA
100
AcDbEntity
  8
0
  6
Continuous
 62
     0
100
AcDbLine
 10
354.7369
 20
407.9959
 30
0.0
 11
373.6599
 21
407.9959
 31
0.0
  0
LINE
  5
2FD
330
2FA
100
AcDbEntity
  8
0
  6
Continuous
 62
     0
100
AcDbLine
 10
373.6599
 20
407.9959
 30
0.0
 11
373.6599
 21
385.8979
 31
0.0
  0
LINE
  5
2FE
330
2FA
100
AcDbEntity
  8
0
  6
Continuous
 62
     0
100
AcDbLine
 10
373.6599
 20
385.8979
 30
0.0
 11
354.7369
 21
385.8979
 31
0.0
  0
ENDBLK
  5
300
330
2FA
100
AcDbEntity
  8
0
100
AcDbBlockEnd
  0
BLOCK
  5
307
330
302
100
AcDbEntity
  8
0
100
AcDbBlockBegin
  2
LW_Polyline_49
 70
     0
 71
     0
 10
371.5009
 20
336.6219
 30
0.0
  3
LW_Polyline_49
  1

  0
LINE
  5
303
330
302
100
AcDbEntity
  8
0
  6
Continuous
 62
     0
100
AcDbLine
 10
371.5009
 20
336.6219
 30
0.0
 11
371.5009
 21
358.7199
 31
0.0
  0
LINE
  5
304
330
302
100
AcDbEntity
  8
0
  6
Continuous
 62
     0
100
AcDbLine
 10
371.5009
 20
358.7199
 30
0.0
 11
387.2489
 21
358.7199
 31
0.0
  0
LINE
  5
305
330
302
100
AcDbEntity
  8
0
  6
Continuous
 62
     0
100
AcDbLine
 10
387.2489
 20
358.7199
 30
0.0
 11
387.2489
 21
336.6219
 31
0.0
  0
LINE
  5
306
330
302
100
AcDbEntity
  8
0
  6
Continuous
 62
     0
100
AcDbLine
 10
387.2489
 20
336.6219
 30
0.0
 11
371.5009
 21
336.6219
 31
0.0
  0
ENDBLK
  5
308
330
302
100
AcDbEntity
  8
0
100
AcDbBlockEnd
  0
BLOCK
  5
30F
330
30A
100
AcDbEntity
  8
0
100
AcDbBlockBegin
  2
LW_Polyline_50
 70
     0
 71
     0
 10
354.2289
 20
336.6219
 30
0.0
  3
LW_Polyline_50
  1

  0
LINE
  5
30B
330
30A
100
AcDbEntity
  8
0
  6
Continuous
 62
     0
100
AcDbLine
 10
354.2289
 20
336.6219
 30
0.0
 11
354.2289
 21
355.5449
 31
0.0
  0
LINE
  5
30C
330
30A
100
AcDbEntity
  8
0
  6
Continuous
 62
     0
100
AcDbLine
 10
354.2289
 20
355.5449
 30
0.0
 11
369.9769
 21
355.5449
 31
0.0
  0
LINE
  5
30D
330
30A
100
AcDbEntity
  8
0
  6
Continuous
 62
     0
100
AcDbLine
 10
369.9769
 20
355.5449
 30
0.0
 11
369.9769
 21
336.6219
 31
0.0
  0
LINE
  5
30E
330
30A
100
AcDbEntity
  8
0
  6
Continuous
 62
     0
100
AcDbLine
 10
369.9769
 20
336.6219
 30
0.0
 11
354.2289
 21
336.6219
 31
0.0
  0
ENDBLK
  5
310
330
30A
100
AcDbEntity
  8
0
100
AcDbBlockEnd
  0
ENDSEC
  0
SECTION
  2
ENTITIES
  0
INSERT
  5
50
330
1F
100
AcDbEntity
  8
0
  6
Continuous
 62
     7
100
AcDbBlockReference
  2
LW_Polyline_1
 10
353.695
 20
531.7218
 30
0.0
  0
INSERT
  5
74
330
1F
100
AcDbEntity
  8
0
  6
Continuous
 62
     7
100
AcDbBlockReference
  2
LW_Polyline_2
 10
371.8489
 20
294.2344
 30
0.0
  0
LINE
  5
75
330
1F
100
AcDbEntity
  8
0
  6
Continuous
 62
     7
100
AcDbLine
 10
370.1997
 20
295.8343
 30
0.0
 11
370.1997
 21
292.6344
 31
0.0
  0
LINE
  5
76
330
1F
100
AcDbEntity
  8
0
  6
Continuous
 62
     7
100
AcDbLine
 10
368.5997
 20
294.2344
 30
0.0
 11
371.7996
 21
294.2344
 31
0.0
  0
INSERT
  5
9A
330
1F
100
AcDbEntity
  8
0
  6
Continuous
 62
     7
100
AcDbBlockReference
  2
LW_Polyline_3
 10
371.8489
 20
366.6244
 30
0.0
  0
LINE
  5
9B
330
1F
100
AcDbEntity
  8
0
  6
Continuous
 62
     7
100
AcDbLine
 10
370.1997
 20
368.2243
 30
0.0
 11
370.1997
 21
365.0244
 31
0.0
  0
LINE
  5
9C
330
1F
100
AcDbEntity
  8
0
  6
Continuous
 62
     7
100
AcDbLine
 10
368.5997
 20
366.6244
 30
0.0
 11
371.7996
 21
366.6244
 31
0.0
  0
INSERT
  5
C0
330
1F
100
AcDbEntity
  8
0
  6
Continuous
 62
     7
100
AcDbBlockReference
  2
LW_Polyline_4
 10
371.8489
 20
521.5644
 30
0.0
  0
LINE
  5
C1
330
1F
100
AcDbEntity
  8
0
  6
Continuous
 62
     7
100
AcDbLine
 10
370.1997
 20
523.1643
 30
0.0
 11
370.1997
 21
519.9644
 31
0.0
  0
LINE
  5
C2
330
1F
100
AcDbEntity
  8
0
  6
Continuous
 62
     7
100
AcDbLine
 10
368.5997
 20
521.5644
 30
0.0
 11
371.7996
 21
521.5644
 31
0.0
  0
INSERT
  5
E6
330
1F
100
AcDbEntity
  8
0
  6
Continuous
 62
     7
100
AcDbBlockReference
  2
LW_Polyline_5
 10
496.3089
 20
521.5644
 30
0.0
  0
LINE
  5
E7
330
1F
100
AcDbEntity
  8
0
  6
Continuous
 62
     7
100
AcDbLine
 10
494.6597
 20
523.1643
 30
0.0
 11
494.6597
 21
519.9644
 31
0.0
  0
LINE
  5
E8
330
1F
100
AcDbEntity
  8
0
  6
Continuous
 62
     7
100
AcDbLine
 10
493.0597
 20
521.5644
 30
0.0
 11
496.2596
 21
521.5644
 31
0.0
  0
INSERT
  5
10C
330
1F
100
AcDbEntity
  8
0
  6
Continuous
 62
     7
100
AcDbBlockReference
  2
LW_Polyline_6
 10
651.2489
 20
498.7044
 30
0.0
  0
LINE
  5
10D
330
1F
100
AcDbEntity
  8
0
  6
Continuous
 62
     7
100
AcDbLine
 10
649.5997
 20
500.3043
 30
0.0
 11
649.5997
 21
497.1044
 31
0.0
  0
LINE
  5
10E
330
1F
100
AcDbEntity
  8
0
  6
Continuous
 62
     7
100
AcDbLine
 10
647.9997
 20
498.7044
 30
0.0
 11
651.1996
 21
498.7044
 31
0.0
  0
INSERT
  5
132
330
1F
100
AcDbEntity
  8
0
  6
Continuous
 62
     7
100
AcDbBlockReference
  2
LW_Polyline_7
 10
651.2489
 20
366.6244
 30
0.0
  0
LINE
  5
133
330
1F
100
AcDbEntity
  8
0
  6
Continuous
 62
     7
100
AcDbLine
 10
649.5997
 20
368.2243
 30
0.0
 11
649.5997
 21
365.0244
 31
0.0
  0
LINE
  5
134
330
1F
100
AcDbEntity
  8
0
  6
Continuous
 62
     7
100
AcDbLine
 10
647.9997
 20
366.6244
 30
0.0
 11
651.1996
 21
366.6244
 31
0.0
  0
INSERT
  5
158
330
1F
100
AcDbEntity
  8
0
  6
Continuous
 62
     7
100
AcDbBlockReference
  2
LW_Polyline_8
 10
651.2489
 20
294.2344
 30
0.0
  0
LINE
  5
159
330
1F
100
AcDbEntity
  8
0
  6
Continuous
 62
     7
100
AcDbLine
 10
649.5997
 20
295.8343
 30
0.0
 11
649.5997
 21
292.6344
 31
0.0
  0
LINE
  5
15A
330
1F
100
AcDbEntity
  8
0
  6
Continuous
 62
     7
100
AcDbLine
 10
647.9997
 20
294.2344
 30
0.0
 11
651.1996
 21
294.2344
 31
0.0
  0
INSERT
  5
17E
330
1F
100
AcDbEntity
  8
0
  6
Continuous
 62
     7
100
AcDbBlockReference
  2
LW_Polyline_9
 10
496.3089
 20
294.2344
 30
0.0
  0
LINE
  5
17F
330
1F
100
AcDbEntity
  8
0
  6
Continuous
 62
     7
100
AcDbLine
 10
494.6597
 20
295.8343
 30
0.0
 11
494.6597
 21
292.6344
 31
0.0
  0
LINE
  5
180
330
1F
100
AcDbEntity
  8
0
  6
Continuous
 62
     7
100
AcDbLine
 10
493.0597
 20
294.2344
 30
0.0
 11
496.2596
 21
294.2344
 31
0.0
  0
INSERT
  5
1A4
330
1F
100
AcDbEntity
  8
0
  6
Continuous
 62
     7
100
AcDbBlockReference
  2
LW_Polyline_10
 10
496.3145
 20
366.634
 30
0.0
  0
LINE
  5
1A5
330
1F
100
AcDbEntity
  8
0
  6
Continuous
 62
     7
100
AcDbLine
 10
494.6653
 20
368.234
 30
0.0
 11
494.6653
 21
365.0338
 31
0.0
  0
LINE
  5
1A6
330
1F
100
AcDbEntity
  8
0
  6
Continuous
 62
     7
100
AcDbLine
 10
493.0653
 20
366.634
 30
0.0
 11
496.2652
 21
366.634
 31
0.0
  0
INSERT
  5
1B0
330
1F
100
AcDbEntity
  8
0
  6
Continuous
 62
     7
100
AcDbBlockReference
  2
LW_Polyline_11
 10
628.032
 20
316.8442
 30
0.0
  0
INSERT
  5
1B8
330
1F
100
AcDbEntity
  8
0
  6
Continuous
 62
     7
100
AcDbBlockReference
  2
LW_Polyline_12
 10
414.164
 20
310.0878
 30
0.0
  0
INSERT
  5
1C2
330
1F
100
AcDbEntity
  8
0
  6
Continuous
 62
     7
100
AcDbBlockReference
  2
LW_Polyline_13
 10
410.5572
 20
287.8374
 30
0.0
  0
INSERT
  5
1CA
330
1F
100
AcDbEntity
  8
0
  6
Continuous
 62
     7
100
AcDbBlockReference
  2
LW_Polyline_14
 10
500.1176
 20
302.9504
 30
0.0
  0
INSERT
  5
1D2
330
1F
100
AcDbEntity
  8
0
  6
Continuous
 62
     7
100
AcDbBlockReference
  2
LW_Polyline_15
 10
595.3168
 20
511.459
 30
0.0
  0
INSERT
  5
1DC
330
1F
100
AcDbEntity
  8
0
  6
Continuous
 62
     7
100
AcDbBlockReference
  2
LW_Polyline_16
 10
594.2754
 20
503.331
 30
0.0
  0
INSERT
  5
1E4
330
1F
100
AcDbEntity
  8
0
  6
Continuous
 62
     7
100
AcDbBlockReference
  2
LW_Polyline_17
 10
502.683
 20
531.7282
 30
0.0
  0
INSERT
  5
1EE
330
1F
100
AcDbEntity
  8
0
  6
Continuous
 62
     7
100
AcDbBlockReference
  2
LW_Polyline_18
 10
474.0379
 20
324.994
 30
0.0
  0
INSERT
  5
1F6
330
1F
100
AcDbEntity
  8
0
  6
Continuous
 62
     7
100
AcDbBlockReference
  2
LW_Polyline_19
 10
478.6615
 20
429.3232
 30
0.0
  0
INSERT
  5
1FE
330
1F
100
AcDbEntity
  8
0
  6
Continuous
 62
     7
100
AcDbBlockReference
  2
LW_Polyline_20
 10
529.1615
 20
369.3234
 30
0.0
  0
INSERT
  5
206
330
1F
100
AcDbEntity
  8
0
  6
Continuous
 62
     7
100
AcDbBlockReference
  2
LW_Polyline_21
 10
531.9613
 20
427.9232
 30
0.0
  0
INSERT
  5
20E
330
1F
100
AcDbEntity
  8
0
  6
Continuous
 62
     7
100
AcDbBlockReference
  2
LW_Polyline_22
 10
536.6614
 20
406.3233
 30
0.0
  0
INSERT
  5
216
330
1F
100
AcDbEntity
  8
0
  6
Continuous
 62
     7
100
AcDbBlockReference
  2
LW_Polyline_23
 10
605.1614
 20
395.8232
 30
0.0
  0
INSERT
  5
21E
330
1F
100
AcDbEntity
  8
0
  6
Continuous
 62
     7
100
AcDbBlockReference
  2
LW_Polyline_24
 10
564.9105
 20
374.0264
 30
0.0
  0
INSERT
  5
226
330
1F
100
AcDbEntity
  8
0
  6
Continuous
 62
     7
100
AcDbBlockReference
  2
LW_Polyline_25
 10
383.1613
 20
480.3234
 30
0.0
  0
INSERT
  5
22D
330
1F
100
AcDbEntity
  8
0
  6
Continuous
 62
     7
100
AcDbBlockReference
  2
LW_Polyline_26
 10
653.7041
 20
429.3408
 30
0.0
  0
INSERT
  5
238
330
1F
100
AcDbEntity
  8
0
  6
Continuous
 62
     7
100
AcDbBlockReference
  2
LW_Polyline_27
 10
653.8041
 20
480.9409
 30
0.0
  0
INSERT
  5
23F
330
1F
100
AcDbEntity
  8
0
  6
Continuous
 62
     7
100
AcDbBlockReference
  2
LW_Polyline_28
 10
589.2175
 20
443.9796
 30
0.0
  0
INSERT
  5
246
330
1F
100
AcDbEntity
  8
0
  6
Continuous
 62
     7
100
AcDbBlockReference
  2
LW_Polyline_29
 10
582.1055
 20
456.5272
 30
0.0
  0
INSERT
  5
24E
330
1F
100
AcDbEntity
  8
0
  6
Continuous
 62
     7
100
AcDbBlockReference
  2
LW_Polyline_30
 10
391.7584
 20
441.516
 30
0.0
  0
INSERT
  5
256
330
1F
100
AcDbEntity
  8
0
  6
Continuous
 62
     7
100
AcDbBlockReference
  2
LW_Polyline_31
 10
400.0134
 20
441.516
 30
0.0
  0
INSERT
  5
25E
330
1F
100
AcDbEntity
  8
0
  6
Continuous
 62
     7
100
AcDbBlockReference
  2
LW_Polyline_32
 10
408.5224
 20
441.516
 30
0.0
  0
INSERT
  5
265
330
1F
100
AcDbEntity
  8
0
  6
Continuous
 62
     7
100
AcDbBlockReference
  2
LW_Polyline_35
 10
429.3052
 20
521.2349
 30
0.0
  0
INSERT
  5
26C
330
1F
100
AcDbEntity
  8
0
  6
Continuous
 62
     7
100
AcDbBlockReference
  2
LW_Polyline_36
 10
454.7052
 20
521.1348
 30
0.0
  0
INSERT
  5
273
330
1F
100
AcDbEntity
  8
0
  6
Continuous
 62
     7
100
AcDbBlockReference
  2
LW_Polyline_37
 10
393.2372
 20
521.2349
 30
0.0
  0
INSERT
  5
27A
330
1F
100
AcDbEntity
  8
0
  6
Continuous
 62
     7
100
AcDbBlockReference
  2
LW_Polyline_38
 10
418.6372
 20
521.1348
 30
0.0
  0
LINE
  5
27B
330
1F
100
AcDbEntity
  8
0
  6
Continuous
 62
     7
100
AcDbLine
 10
643.6375
 20
298.559
 30
0.0
 11
643.6375
 21
309.5589
 31
0.0
  0
INSERT
  5
283
330
1F
100
AcDbEntity
  8
0
  6
Continuous
 62
     7
100
AcDbBlockReference
  2
LW_Polyline_39
 10
643.6375
 20
294.959
 30
0.0
  0
INSERT
  5
28B
330
1F
100
AcDbEntity
  8
0
  6
Continuous
 62
     7
100
AcDbBlockReference
  2
LW_Polyline_40
 10
615.3374
 20
294.959
 30
0.0
  0
LINE
  5
28C
330
1F
100
AcDbEntity
  8
0
  6
Continuous
 62
     7
100
AcDbLine
 10
615.3374
 20
298.559
 30
0.0
 11
615.3374
 21
309.4589
 31
0.0
  0
INSERT
  5
294
330
1F
100
AcDbEntity
  8
0
  6
Continuous
 62
     7
100
AcDbBlockReference
  2
LW_Polyline_41
 10
354.2289
 20
319.8579
 30
0.0
  0
INSERT
  5
29C
330
1F
100
AcDbEntity
  8
0
  6
Continuous
 62
     7
100
AcDbBlockReference
  2
LW_Polyline_42
 10
660.9354
 20
492.9934
 30
0.0
  0
INSERT
  5
2A4
330
1F
100
AcDbEntity
  8
0
  6
Continuous
 62
     7
100
AcDbBlockReference
  2
LW_Polyline_43
 10
661.8506
 20
531.0411
 30
0.0
  0
LINE
  5
2A5
330
1F
100
AcDbEntity
  8
0
  6
Continuous
 62
     7
100
AcDbLine
 10
513.5613
 20
429.3232
 30
0.0
 11
513.6614
 21
429.2234
 31
0.0
  0
LINE
  5
2A6
330
1F
100
AcDbEntity
  8
0
  6
Continuous
 62
     7
100
AcDbLine
 10
513.4615
 20
429.3232
 30
0.0
 11
513.6614
 21
429.1233
 31
0.0
  0
LINE
  5
2A7
330
1F
100
AcDbEntity
  8
0
  6
Continuous
 62
     7
100
AcDbLine
 10
513.3614
 20
429.3232
 30
0.0
 11
513.6614
 21
429.0233
 31
0.0
  0
LINE
  5
2A8
330
1F
100
AcDbEntity
  8
0
  6
Continuous
 62
     7
100
AcDbLine
 10
513.2614
 20
429.3232
 30
0.0
 11
513.6614
 21
428.9232
 31
0.0
  0
LINE
  5
2A9
330
1F
100
AcDbEntity
  8
0
  6
Continuous
 62
     7
100
AcDbLine
 10
513.1613
 20
429.3232
 30
0.0
 11
513.6614
 21
428.8234
 31
0.0
  0
LINE
  5
2AA
330
1F
100
AcDbEntity
  8
0
  6
Continuous
 62
     7
100
AcDbLine
 10
513.0615
 20
429.3232
 30
0.0
 11
513.6614
 21
428.7233
 31
0.0
  0
LINE
  5
2AB
330
1F
100
AcDbEntity
  8
0
  6
Continuous
 62
     7
100
AcDbLine
 10
512.9614
 20
429.3232
 30
0.0
 11
513.6614
 21
428.6232
 31
0.0
  0
LINE
  5
2AC
330
1F
100
AcDbEntity
  8
0
  6
Continuous
 62
     7
100
AcDbLine
 10
512.8613
 20
429.3232
 30
0.0
 11
513.6614
 21
428.5234
 31
0.0
  0
LINE
  5
2AD
330
1F
100
AcDbEntity
  8
0
  6
Continuous
 62
     7
100
AcDbLine
 10
512.7615
 20
429.3232
 30
0.0
 11
513.6614
 21
428.4233
 31
0.0
  0
LINE
  5
2AE
330
1F
100
AcDbEntity
  8
0
  6
Continuous
 62
     7
100
AcDbLine
 10
529.1615
 20
386.2233
 30
0.0
 11
529.2613
 21
386.3233
 31
0.0
  0
LINE
  5
2AF
330
1F
100
AcDbEntity
  8
0
  6
Continuous
 62
     7
100
AcDbLine
 10
529.1615
 20
386.1232
 30
0.0
 11
529.3614
 21
386.3233
 31
0.0
  0
LINE
  5
2B0
330
1F
100
AcDbEntity
  8
0
  6
Continuous
 62
     7
100
AcDbLine
 10
529.1615
 20
386.0234
 30
0.0
 11
529.4615
 21
386.3233
 31
0.0
  0
LINE
  5
2B1
330
1F
100
AcDbEntity
  8
0
  6
Continuous
 62
     7
100
AcDbLine
 10
529.1615
 20
385.9233
 30
0.0
 11
529.5613
 21
386.3233
 31
0.0
  0
LINE
  5
2B2
330
1F
100
AcDbEntity
  8
0
  6
Continuous
 62
     7
100
AcDbLine
 10
529.1615
 20
385.8232
 30
0.0
 11
529.6614
 21
386.3233
 31
0.0
  0
LINE
  5
2B3
330
1F
100
AcDbEntity
  8
0
  6
Continuous
 62
     7
100
AcDbLine
 10
529.1615
 20
385.7234
 30
0.0
 11
529.7614
 21
386.3233
 31
0.0
  0
LINE
  5
2B4
330
1F
100
AcDbEntity
  8
0
  6
Continuous
 62
     7
100
AcDbLine
 10
529.1615
 20
385.6233
 30
0.0
 11
529.8615
 21
386.3233
 31
0.0
  0
LINE
  5
2B5
330
1F
100
AcDbEntity
  8
0
  6
Continuous
 62
     7
100
AcDbLine
 10
529.1615
 20
385.5232
 30
0.0
 11
529.9613
 21
386.3233
 31
0.0
  0
LINE
  5
2B6
330
1F
100
AcDbEntity
  8
0
  6
Continuous
 62
     7
100
AcDbLine
 10
529.1615
 20
385.4234
 30
0.0
 11
530.0614
 21
386.3233
 31
0.0
  0
LINE
  5
2B7
330
1F
100
AcDbEntity
  8
0
  6
Continuous
 62
     7
100
AcDbLine
 10
531.9613
 20
444.8233
 30
0.0
 11
532.0614
 21
444.9234
 31
0.0
  0
LINE
  5
2B8
330
1F
100
AcDbEntity
  8
0
  6
Continuous
 62
     7
100
AcDbLine
 10
531.9613
 20
444.7233
 30
0.0
 11
532.1615
 21
444.9234
 31
0.0
  0
LINE
  5
2B9
330
1F
100
AcDbEntity
  8
0
  6
Continuous
 62
     7
100
AcDbLine
 10
531.9613
 20
444.6232
 30
0.0
 11
532.2613
 21
444.9234
 31
0.0
  0
LINE
  5
2BA
330
1F
100
AcDbEntity
  8
0
  6
Continuous
 62
     7
100
AcDbLine
 10
531.9613
 20
444.5234
 30
0.0
 11
532.3614
 21
444.9234
 31
0.0
  0
LINE
  5
2BB
330
1F
100
AcDbEntity
  8
0
  6
Continuous
 62
     7
100
AcDbLine
 10
531.9613
 20
444.4233
 30
0.0
 11
532.4615
 21
444.9234
 31
0.0
  0
LINE
  5
2BC
330
1F
100
AcDbEntity
  8
0
  6
Continuous
 62
     7
100
AcDbLine
 10
531.9613
 20
444.3232
 30
0.0
 11
532.5613
 21
444.9234
 31
0.0
  0
LINE
  5
2BD
330
1F
100
AcDbEntity
  8
0
  6
Continuous
 62
     7
100
AcDbLine
 10
531.9613
 20
444.2234
 30
0.0
 11
532.6614
 21
444.9234
 31
0.0
  0
LINE
  5
2BE
330
1F
100
AcDbEntity
  8
0
  6
Continuous
 62
     7
100
AcDbLine
 10
531.9613
 20
444.1233
 30
0.0
 11
532.7614
 21
444.9234
 31
0.0
  0
LINE
  5
2BF
330
1F
100
AcDbEntity
  8
0
  6
Continuous
 62
     7
100
AcDbLine
 10
531.9613
 20
444.0232
 30
0.0
 11
532.8615
 21
444.9234
 31
0.0
  0
LINE
  5
2C0
330
1F
100
AcDbEntity
  8
0
  6
Continuous
 62
     7
100
AcDbLine
 10
536.6614
 20
419.2232
 30
0.0
 11
536.7614
 21
419.3233
 31
0.0
  0
LINE
  5
2C1
330
1F
100
AcDbEntity
  8
0
  6
Continuous
 62
     7
100
AcDbLine
 10
536.6614
 20
419.1234
 30
0.0
 11
536.8615
 21
419.3233
 31
0.0
  0
LINE
  5
2C2
330
1F
100
AcDbEntity
  8
0
  6
Continuous
 62
     7
100
AcDbLine
 10
536.6614
 20
419.0233
 30
0.0
 11
536.9613
 21
419.3233
 31
0.0
  0
LINE
  5
2C3
330
1F
100
AcDbEntity
  8
0
  6
Continuous
 62
     7
100
AcDbLine
 10
536.6614
 20
418.9232
 30
0.0
 11
537.0614
 21
419.3233
 31
0.0
  0
LINE
  5
2C4
330
1F
100
AcDbEntity
  8
0
  6
Continuous
 62
     7
100
AcDbLine
 10
536.6614
 20
418.8234
 30
0.0
 11
537.1615
 21
419.3233
 31
0.0
  0
LINE
  5
2C5
330
1F
100
AcDbEntity
  8
0
  6
Continuous
 62
     7
100
AcDbLine
 10
536.6614
 20
418.7233
 30
0.0
 11
537.2613
 21
419.3233
 31
0.0
  0
LINE
  5
2C6
330
1F
100
AcDbEntity
  8
0
  6
Continuous
 62
     7
100
AcDbLine
 10
536.6614
 20
418.6232
 30
0.0
 11
537.3614
 21
419.3233
 31
0.0
  0
LINE
  5
2C7
330
1F
100
AcDbEntity
  8
0
  6
Continuous
 62
     7
100
AcDbLine
 10
536.6614
 20
418.5234
 30
0.0
 11
537.4615
 21
419.3233
 31
0.0
  0
LINE
  5
2C8
330
1F
100
AcDbEntity
  8
0
  6
Continuous
 62
     7
100
AcDbLine
 10
536.6614
 20
418.4233
 30
0.0
 11
537.5613
 21
419.3233
 31
0.0
  0
LINE
  5
2C9
330
1F
100
AcDbEntity
  8
0
  6
Continuous
 62
     7
100
AcDbLine
 10
570.2615
 20
395.8232
 30
0.0
 11
570.1614
 21
395.9233
 31
0.0
  0
LINE
  5
2CA
330
1F
100
AcDbEntity
  8
0
  6
Continuous
 62
     7
100
AcDbLine
 10
570.3613
 20
395.8232
 30
0.0
 11
570.1614
 21
396.0233
 31
0.0
  0
LINE
  5
2CB
330
1F
100
AcDbEntity
  8
0
  6
Continuous
 62
     7
100
AcDbLine
 10
570.4614
 20
395.8232
 30
0.0
 11
570.1614
 21
396.1234
 31
0.0
  0
LINE
  5
2CC
330
1F
100
AcDbEntity
  8
0
  6
Continuous
 62
     7
100
AcDbLine
 10
570.5615
 20
395.8232
 30
0.0
 11
570.1614
 21
396.2232
 31
0.0
  0
LINE
  5
2CD
330
1F
100
AcDbEntity
  8
0
  6
Continuous
 62
     7
100
AcDbLine
 10
570.6613
 20
395.8232
 30
0.0
 11
570.1614
 21
396.3233
 31
0.0
  0
LINE
  5
2CE
330
1F
100
AcDbEntity
  8
0
  6
Continuous
 62
     7
100
AcDbLine
 10
570.7614
 20
395.8232
 30
0.0
 11
570.1614
 21
396.4234
 31
0.0
  0
LINE
  5
2CF
330
1F
100
AcDbEntity
  8
0
  6
Continuous
 62
     7
100
AcDbLine
 10
570.8614
 20
395.8232
 30
0.0
 11
570.1614
 21
396.5232
 31
0.0
  0
LINE
  5
2D0
330
1F
100
AcDbEntity
  8
0
  6
Continuous
 62
     7
100
AcDbLine
 10
570.9615
 20
395.8232
 30
0.0
 11
570.1614
 21
396.6233
 31
0.0
  0
LINE
  5
2D1
330
1F
100
AcDbEntity
  8
0
  6
Continuous
 62
     7
100
AcDbLine
 10
571.0613
 20
395.8232
 30
0.0
 11
570.1614
 21
396.7234
 31
0.0
  0
LINE
  5
2D2
330
1F
100
AcDbEntity
  8
0
  6
Continuous
 62
     7
100
AcDbLine
 10
400.0614
 20
480.3234
 30
0.0
 11
400.1615
 21
480.2233
 31
0.0
  0
LINE
  5
2D3
330
1F
100
AcDbEntity
  8
0
  6
Continuous
 62
     7
100
AcDbLine
 10
399.9614
 20
480.3234
 30
0.0
 11
400.1615
 21
480.1232
 31
0.0
  0
LINE
  5
2D4
330
1F
100
AcDbEntity
  8
0
  6
Continuous
 62
     7
100
AcDbLine
 10
399.8613
 20
480.3234
 30
0.0
 11
400.1615
 21
480.0234
 31
0.0
  0
LINE
  5
2D5
330
1F
100
AcDbEntity
  8
0
  6
Continuous
 62
     7
100
AcDbLine
 10
399.7615
 20
480.3234
 30
0.0
 11
400.1615
 21
479.9233
 31
0.0
  0
LINE
  5
2D6
330
1F
100
AcDbEntity
  8
0
  6
Continuous
 62
     7
100
AcDbLine
 10
399.6614
 20
480.3234
 30
0.0
 11
400.1615
 21
479.8233
 31
0.0
  0
LINE
  5
2D7
330
1F
100
AcDbEntity
  8
0
  6
Continuous
 62
     7
100
AcDbLine
 10
399.5613
 20
480.3234
 30
0.0
 11
400.1615
 21
479.7232
 31
0.0
  0
LINE
  5
2D8
330
1F
100
AcDbEntity
  8
0
  6
Continuous
 62
     7
100
AcDbLine
 10
399.4615
 20
480.3234
 30
0.0
 11
400.1615
 21
479.6234
 31
0.0
  0
LINE
  5
2D9
330
1F
100
AcDbEntity
  8
0
  6
Continuous
 62
     7
100
AcDbLine
 10
399.3614
 20
480.3234
 30
0.0
 11
400.1615
 21
479.5233
 31
0.0
  0
LINE
  5
2DA
330
1F
100
AcDbEntity
  8
0
  6
Continuous
 62
     7
100
AcDbLine
 10
399.2613
 20
480.3234
 30
0.0
 11
400.1615
 21
479.4232
 31
0.0
  0
INSERT
  5
2E1
330
1F
100
AcDbEntity
  8
0
  6
Continuous
 62
     7
100
AcDbBlockReference
  2
LW_Polyline_44
 10
630.428
 20
511.5796
 30
0.0
  0
INSERT
  5
2E8
330
1F
100
AcDbEntity
  8
0
  6
Continuous
 62
     7
100
AcDbBlockReference
  2
LW_Polyline_45
 10
630.428
 20
508.7856
 30
0.0
  0
LINE
  5
2E9
330
1F
100
AcDbEntity
  8
0
  6
Continuous
 62
     7
100
AcDbLine
 10
614.426
 20
531.6456
 30
0.0
 11
613.918
 21
531.6456
 31
0.0
  0
INSERT
  5
2F1
330
1F
100
AcDbEntity
  8
0
  6
Continuous
 62
     7
100
AcDbBlockReference
  2
LW_Polyline_46
 10
611.4755
 20
531.8458
 30
0.0
  0
INSERT
  5
2F9
330
1F
100
AcDbEntity
  8
0
  6
Continuous
 62
     7
100
AcDbBlockReference
  2
LW_Polyline_47
 10
354.2289
 20
319.8579
 30
0.0
  0
INSERT
  5
301
330
1F
100
AcDbEntity
  8
0
  6
Continuous
 62
     7
100
AcDbBlockReference
  2
LW_Polyline_48
 10
354.7369
 20
385.8979
 30
0.0
  0
INSERT
  5
309
330
1F
100
AcDbEntity
  8
0
  6
Continuous
 62
     7
100
AcDbBlockReference
  2
LW_Polyline_49
 10
371.5009
 20
336.6219
 30
0.0
  0
INSERT
  5
311
330
1F
100
AcDbEntity
  8
0
  6
Continuous
 62
     7
100
AcDbBlockReference
  2
LW_Polyline_50
 10
354.2289
 20
336.6219
 30
0.0
  0
LINE
  5
312
330
1F
100
AcDbEntity
  8
0
  6
Continuous
 62
     7
100
AcDbLine
 10
615.3543
 20
309.5669
 30
0.0
 11
643.622
 21
309.5669
 31
0.0
  0
LINE
  5
313
330
1F
100
AcDbEntity
  8
0
  6
Continuous
 62
     7
100
AcDbLine
 10
643.622
 20
295.0787
 30
0.0
 11
643.622
 21
299.0551
 31
0.0
  0
LINE
  5
314
330
1F
100
AcDbEntity
  8
0
  6
Continuous
 62
     7
100
AcDbLine
 10
615.3543
 20
295.0787
 30
0.0
 11
615.3543
 21
299.0945
 31
0.0
  0
LINE
  5
315
330
1F
100
AcDbEntity
  8
0
  6
Continuous
 62
     7
100
AcDbLine
 10
582.0866
 20
443.9764
 30
0.0
 11
582.0866
 21
457.6772
 31
0.0
  0
LINE
  5
316
330
1F
100
AcDbEntity
  8
0
  6
Continuous
 62
     7
100
AcDbLine
 10
589.2126
 20
457.5591
 30
0.0
 11
589.2126
 21
443.3071
 31
0.0
  0
LINE
  5
317
330
1F
100
AcDbEntity
  8
0
  6
Continuous
 62
     7
100
AcDbLine
 10
653.4252
 20
429.3701
 30
0.0
 11
660.8268
 21
429.3701
 31
0.0
  0
LINE
  5
318
330
1F
100
AcDbEntity
  8
0
  6
Continuous
 62
     7
100
AcDbLine
 10
630.4331
 20
508.4252
 30
0.0
 11
630.4331
 21
514.4488
 31
0.0
  0
LINE
  5
319
330
1F
100
AcDbEntity
  8
0
  6
Continuous
 62
     7
100
AcDbLine
 10
613.8976
 20
508.4252
 30
0.0
 11
613.8976
 21
513.8189
 31
0.0
  0
LINE
  5
31A
330
1F
100
AcDbEntity
  8
0
  6
Continuous
 62
     7
100
AcDbLine
 10
429.0157
 20
512.4409
 30
0.0
 11
455.5512
 21
512.3622
 31
0.0
  0
LINE
  5
31B
330
1F
100
AcDbEntity
  8
0
  6
Continuous
 62
     7
100
AcDbLine
 10
455.5512
 20
521.1417
 30
0.0
 11
428.189
 21
521.2205
 31
0.0
  0
LINE
  5
31C
330
1F
100
AcDbEntity
  8
0
  6
Continuous
 62
     7
100
AcDbLine
 10
419.7638
 20
512.3622
 30
0.0
 11
392.3622
 21
512.4409
 31
0.0
  0
LINE
  5
31D
330
1F
100
AcDbEntity
  8
0
  6
Continuous
 62
     7
100
AcDbLine
 10
392.6378
 20
521.2205
 30
0.0
 11
419.3701
 21
521.1024
 31
0.0
  0
TEXT
  5
31E
330
1F
100
AcDbEntity
  8
0
  6
Continuous
 62
     3
100
AcDbText
 10
493.817079
 20
409.729855
 30
0.0
 40
7.0
  1
3
100
AcDbText
  0
TEXT
  5
31F
330
1F
100
AcDbEntity
  8
0
  6
Continuous
 62
     3
100
AcDbText
 10
584.453369
 20
410.566956
 30
0.0
 40
7.0
  1
3
100
AcDbText
  0
TEXT
  5
320
330
1F
100
AcDbEntity
  8
0
  6
Continuous
 62
     3
100
AcDbText
 10
415.172363
 20
353.653687
 30
0.0
 40
7.0
  1
15
100
AcDbText
  0
TEXT
  5
321
330
1F
100
AcDbEntity
  8
0
  6
Continuous
 62
     3
100
AcDbText
 10
629.074402
 20
390.479919
 30
0.0
 40
7.0
  1
15
100
AcDbText
  0
TEXT
  5
322
330
1F
100
AcDbEntity
  8
0
  6
Continuous
 62
     3
100
AcDbText
 10
627.866638
 20
296.047882
 30
0.0
 40
7.0
  1
3
100
AcDbText
  0
TEXT
  5
323
330
1F
100
AcDbEntity
  8
0
  6
Continuous
 62
     3
100
AcDbText
 10
572.111755
 20
360.799255
 30
0.0
 40
7.0
  1
2
100
AcDbText
  0
TEXT
  5
324
330
1F
100
AcDbEntity
  8
0
  6
Continuous
 62
     3
100
AcDbText
 10
535.898877
 20
432.143526
 30
0.0
 40
7.0
  1
2
100
AcDbText
  0
TEXT
  5
325
330
1F
100
AcDbEntity
  8
0
  6
Continuous
 62
     3
100
AcDbText
 10
572.111755
 20
360.799255
 30
0.0
 40
7.0
  1
2
100
AcDbText
  0
TEXT
  5
326
330
1F
100
AcDbEntity
  8
0
  6
Continuous
 62
     3
100
AcDbText
 10
539.006604
 20
409.604181
 30
0.0
 40
7.0
  1
2
100
AcDbText
  0
TEXT
  5
327
330
1F
100
AcDbEntity
  8
0
  6
Continuous
 62
     3
100
AcDbText
 10
533.309254
 20
374.88837
 30
0.0
 40
7.0
  1
2
100
AcDbText
  0
TEXT
  5
328
330
1F
100
AcDbEntity
  8
0
  6
Continuous
 62
     3
100
AcDbText
 10
582.316656
 20
446.439856
 30
0.0
 40
7.0
  1
6
100
AcDbText
  0
TEXT
  5
329
330
1F
100
AcDbEntity
  8
0
  6
Continuous
 62
     3
100
AcDbText
 10
449.985983
 20
291.876058
 30
0.0
 40
7.0
  1
10
100
AcDbText
  0
TEXT
  5
32A
330
1F
100
AcDbEntity
  8
0
  6
Continuous
 62
     3
100
AcDbText
 10
535.704529
 20
291.704901
 30
0.0
 40
7.0
  1
10
100
AcDbText
  0
TEXT
  5
32B
330
1F
100
AcDbEntity
  8
0
  6
Continuous
 62
     3
100
AcDbText
 10
489.679961
 20
318.748118
 30
0.0
 40
7.0
  1
4
100
AcDbText
  0
TEXT
  5
32C
330
1F
100
AcDbEntity
  8
0
  6
Continuous
 62
     3
100
AcDbText
 10
366.025603
 20
308.866222
 30
0.0
 40
7.0
  1
10
100
AcDbText
  0
TEXT
  5
32D
330
1F
100
AcDbEntity
  8
0
  6
Continuous
 62
     3
100
AcDbText
 10
356.263634
 20
342.372674
 30
0.0
 40
7.0
  1
10
100
AcDbText
  0
TEXT
  5
32E
330
1F
100
AcDbEntity
  8
0
  6
Continuous
 62
     3
100
AcDbText
 10
373.094768
 20
344.224765
 30
0.0
 40
7.0
  1
10
100
AcDbText
  0
TEXT
  5
32F
330
1F
100
AcDbEntity
  8
0
  6
Continuous
 62
     3
100
AcDbText
 10
357.780211
 20
392.848612
 30
0.0
 40
7.0
  1
10
100
AcDbText
  0
TEXT
  5
330
330
1F
100
AcDbEntity
  8
0
  6
Continuous
 62
     3
100
AcDbText
 10
387.739963
 20
468.196596
 30
0.0
 40
7.0
  1
3
100
AcDbText
  0
TEXT
  5
331
330
1F
100
AcDbEntity
  8
0
  6
Continuous
 62
     3
100
AcDbText
 10
393.644638
 20
443.45331
 30
0.0
 40
7.0
  1
8
100
AcDbText
  0
TEXT
  5
332
330
1F
100
AcDbEntity
  8
0
  6
Continuous
 62
     3
100
AcDbText
 10
402.23107
 20
443.210207
 30
0.0
 40
7.0
  1
8
100
AcDbText
  0
TEXT
  5
333
330
1F
100
AcDbEntity
  8
0
  6
Continuous
 62
     3
100
AcDbText
 10
385.211593
 20
443.55254
 30
0.0
 40
7.0
  1
8
100
AcDbText
  0
TEXT
  5
334
330
1F
100
AcDbEntity
  8
0
  6
Continuous
 62
     3
100
AcDbText
 10
400.572138
 20
513.393618
 30
0.0
 40
7.0
  1
10
100
AcDbText
  0
TEXT
  5
335
330
1F
100
AcDbEntity
  8
0
  6
Continuous
 62
     3
100
AcDbText
 10
437.063139
 20
513.656265
 30
0.0
 40
7.0
  1
10
100
AcDbText
  0
TEXT
  5
336
330
1F
100
AcDbEntity
  8
0
  6
Continuous
 62
     3
100
AcDbText
 10
536.15716
 20
517.177327
 30
0.0
 40
7.0
  1
15
100
AcDbText
  0
TEXT
  5
337
330
1F
100
AcDbEntity
  8
0
  6
Continuous
 62
     3
100
AcDbText
 10
581.913916
 20
487.654496
 30
0.0
 40
7.0
  1
2
100
AcDbText
  0
TEXT
  5
338
330
1F
100
AcDbEntity
  8
0
  6
Continuous
 62
     3
100
AcDbText
 10
646.07637
 20
485.323675
 30
0.0
 40
7.0
  1
10
100
AcDbText
  0
TEXT
  5
339
330
1F
100
AcDbEntity
  8
0
  6
Continuous
 62
     3
100
AcDbText
 10
649.035092
 20
442.530505
 30
0.0
 40
7.0
  1
13
100
AcDbText
  0
TEXT
  5
33A
330
1F
100
AcDbEntity
  8
0
  6
Continuous
 62
     3
100
AcDbText
 10
641.356072
 20
520.90787
 30
0.0
 40
7.0
  1
13
100
AcDbText
  0
TEXT
  5
33B
330
1F
100
AcDbEntity
  8
0
  6
Continuous
 62
     3
100
AcDbText
 10
616.746169
 20
512.43239
 30
0.0
 40
7.0
  1
15
100
AcDbText
  0
TEXT
  5
33C
330
1F
100
AcDbEntity
  8
0
  6
Continuous
 62
     3
100
AcDbText
 10
601.617311
 20
520.907813
 30
0.0
 40
7.0
  1
8
100
AcDbText
  0
TEXT
  5
33D
330
1F
100
AcDbEntity
  8
0
  6
Continuous
 62
     3
100
AcDbText
 10
580.939167
 20
518.589933
 30
0.0
 40
7.0
  1
15
100
AcDbText
  0
ENDSEC
  0
SECTION
  2
OBJECTS
  0
DICTIONARY
  5
C
330
0
100
AcDbDictionary
281
     1
  3
ACAD_GROUP
350
D
  3
ACAD_LAYOUT
350
1A
  3
ACAD_MLINESTYLE
350
17
  3
ACAD_PLOTSETTINGS
350
19
  3
ACAD_PLOTSTYLENAME
350
E
  3
ACAD_TABLESTYLE
350
33E
  3
ACAD_VISUALSTYLE
350
2A
  0
DICTIONARY
  5
D
102
{ACAD_REACTORS
330
C
102
}
330
C
100
AcDbDictionary
281
     1
  0
DICTIONARY
  5
1A
102
{ACAD_REACTORS
330
C
102
}
330
C
100
AcDbDictionary
281
     1
  3
Layout1
350
1E
  3
Layout2
350
26
  3
Model
350
22
  0
DICTIONARY
  5
17
102
{ACAD_REACTORS
330
C
102
}
330
C
100
AcDbDictionary
281
     1
  3
Standard
350
18
  0
DICTIONARY
  5
19
102
{ACAD_REACTORS
330
C
102
}
330
C
100
AcDbDictionary
281
     1
  0
ACDBDICTIONARYWDFLT
  5
E
102
{ACAD_REACTORS
330
C
102
}
330
C
100
AcDbDictionary
281
     1
  3
Normal
350
F
100
AcDbDictionaryWithDefault
340
F
  0
DICTIONARY
  5
33E
102
{ACAD_REACTORS
330
C
102
}
330
C
100
AcDbDictionary
281
     1
  0
DICTIONARY
  5
2A
102
{ACAD_REACTORS
330
C
102
}
330
C
100
AcDbDictionary
281
     1
  3
2dWireframe
350
2F
  3
3D Hidden
350
31
  3
3dWireframe
350
30
  3
Basic
350
32
  3
Brighten
350
36
  3
ColorChange
350
3A
  3
Conceptual
350
34
  3
Dim
350
35
  3
Facepattern
350
39
  3
Flat
350
2B
  3
FlatWithEdges
350
2C
  3
Gouraud
350
2D
  3
GouraudWithEdges
350
2E
  3
Linepattern
350
38
  3
Realistic
350
33
  3
Thicken
350
37
  0
LAYOUT
  5
1E
102
{ACAD_REACTORS
330
1A
102
}
330
1A
100
AcDbPlotSettings
  1

  2
none_device
  4

  6

 40
0.0
 41
0.0
 42
0.0
 43
0.0
 44
0.0
 45
0.0
 46
0.0
 47
0.0
 48
0.0
 49
0.0
140
0.0
141
0.0
142
1.0
143
1.0
 70
   688
 72
     0
 73
     0
 74
     5
  7

 75
    16
 76
     0
 77
     2
 78
   300
147
1.0
148
0.0
149
0.0
100
AcDbLayout
  1
Layout1
 70
     1
 71
     1
 10
0.0
 20
0.0
 11
420.0
 21
297.0
 12
0.0
 22
0.0
 32
0.0
 14
1.000000E+20
 24
1.000000E+20
 34
1.000000E+20
 15
-1.000000E+20
 25
-1.000000E+20
 35
-1.000000E+20
146
0.0
 13
0.0
 23
0.0
 33
0.0
 16
1.0
 26
0.0
 36
0.0
 17
0.0
 27
1.0
 37
0.0
 76
     0
330
1B
  0
LAYOUT
  5
26
102
{ACAD_REACTORS
330
1A
102
}
330
1A
100
AcDbPlotSettings
  1

  2
none_device
  4

  6

 40
0.0
 41
0.0
 42
0.0
 43
0.0
 44
0.0
 45
0.0
 46
0.0
 47
0.0
 48
0.0
 49
0.0
140
0.0
141
0.0
142
1.0
143
1.0
 70
   688
 72
     0
 73
     0
 74
     5
  7

 75
    16
 76
     0
 77
     2
 78
   300
147
1.0
148
0.0
149
0.0
100
AcDbLayout
  1
Layout2
 70
     1
 71
     2
 10
0.0
 20
0.0
 11
0.0
 21
0.0
 12
0.0
 22
0.0
 32
0.0
 14
0.0
 24
0.0
 34
0.0
 15
0.0
 25
0.0
 35
0.0
146
0.0
 13
0.0
 23
0.0
 33
0.0
 16
1.0
 26
0.0
 36
0.0
 17
0.0
 27
1.0
 37
0.0
 76
     0
330
23
  0
LAYOUT
  5
22
102
{ACAD_REACTORS
330
1A
102
}
330
1A
100
AcDbPlotSettings
  1

  2
none_device
  4

  6

 40
0.0
 41
0.0
 42
0.0
 43
0.0
 44
0.0
 45
0.0
 46
0.0
 47
0.0
 48
0.0
 49
0.0
140
0.0
141
0.0
142
1.0
143
1.0
 70
  1712
 72
     0
 73
     0
 74
     0
  7

 75
     0
 76
     0
 77
     2
 78
   300
147
1.0
148
0.0
149
0.0
100
AcDbLayout
  1
Model
 70
     1
 71
     0
 10
0.0
 20
0.0
 11
420.0
 21
297.0
 12
0.0
 22
0.0
 32
0.0
 14
1.000000E+20
 24
1.000000E+20
 34
1.000000E+20
 15
-1.000000E+20
 25
-1.000000E+20
 35
-1.000000E+20
146
0.0
 13
0.0
 23
0.0
 33
0.0
 16
1.0
 26
0.0
 36
0.0
 17
0.0
 27
1.0
 37
0.0
 76
     0
330
1F
331
29
  0
MLINESTYLE
  5
18
102
{ACAD_REACTORS
330
17
102
}
330
17
100
AcDbMlineStyle
  2
Standard
 70
     0
  3

 62
   256
 51
90.0
 52
90.0
 71
     2
 49
0.5
 62
   256
  6
BYLAYER
 49
-0.5
 62
   256
  6
BYLAYER
  0
ACDBPLACEHOLDER
  5
F
102
{ACAD_REACTORS
330
E
102
}
330
E
  0
VISUALSTYLE
  5
2F
102
{ACAD_REACTORS
330
2A
102
}
330
2A
100
AcDbVisualStyle
  2
2dWireframe
 70
     4
 71
     0
 72
     2
 73
     0
 90
        0
 40
-0.6
 41
-30.0
 62
     5
 63
     7
421
 16777215
 74
     1
 91
        4
 64
     7
 65
   257
 75
     1
175
     1
 42
1.0
 92
        0
 66
   257
 43
1.0
 76
     1
 77
     6
 78
     2
 67
     7
 79
     5
170
     0
171
     0
290
     0
174
     0
 93
        1
 44
0.0
173
     0
291
     0
 45
0.0
1001
ACAD
1000
AcDbSavedByObjectVersion
1070
     0
  0
VISUALSTYLE
  5
31
102
{ACAD_REACTORS
330
2A
102
}
330
2A
100
AcDbVisualStyle
  2
3D Hidden
 70
     6
 71
     1
 72
     2
 73
     2
 90
        0
 40
-0.6
 41
-30.0
 62
     5
 63
     7
421
 16777215
 74
     2
 91
        2
 64
     7
 65
   257
 75
     2
175
     1
 42
40.0
 92
        0
 66
   257
 43
1.0
 76
     1
 77
     6
 78
     2
 67
     7
 79
     3
170
     0
171
     0
290
     0
174
     0
 93
        1
 44
0.0
173
     0
291
     0
 45
0.0
1001
ACAD
1000
AcDbSavedByObjectVersion
1070
     0
  0
VISUALSTYLE
  5
30
102
{ACAD_REACTORS
330
2A
102
}
330
2A
100
AcDbVisualStyle
  2
3dWireframe
 70
     5
 71
     0
 72
     2
 73
     0
 90
        0
 40
-0.6
 41
-30.0
 62
     5
 63
     7
421
 16777215
 74
     1
 91
        4
 64
     7
 65
   257
 75
     1
175
     1
 42
1.0
 92
        0
 66
   257
 43
1.0
 76
     1
 77
     6
 78
     2
 67
     7
 79
     5
170
     0
171
     0
290
     0
174
     0
 93
        1
 44
0.0
173
     0
291
     0
 45
0.0
1001
ACAD
1000
AcDbSavedByObjectVersion
1070
     0
  0
VISUALSTYLE
  5
32
102
{ACAD_REACTORS
330
2A
102
}
330
2A
100
AcDbVisualStyle
  2
Basic
 70
     7
 71
     1
 72
     0
 73
     1
 90
        0
 40
-0.6
 41
-30.0
 62
     5
 63
     7
421
 16777215
 74
     0
 91
        4
 64
     7
 65
   257
 75
     1
175
     1
 42
1.0
 92
        8
 66
     7
 43
1.0
 76
     1
 77
     6
 78
     2
 67
     7
 79
     5
170
     0
171
     0
290
     0
174
     0
 93
        1
 44
0.0
173
     0
291
     1
 45
0.0
1001
ACAD
1000
AcDbSavedByObjectVersion
1070
     0
  0
VISUALSTYLE
  5
36
102
{ACAD_REACTORS
330
2A
102
}
330
2A
100
AcDbVisualStyle
  2
Brighten
 70
    12
 71
     2
 72
     2
 73
     0
 90
        0
 40
-0.6
 41
-30.0
 62
     5
 63
     7
421
 16777215
 74
     1
 91
        4
 64
     7
 65
   257
 75
     1
175
     1
 42
1.0
 92
        8
 66
     7
 43
1.0
 76
     1
 77
     6
 78
     2
 67
     7
 79
     5
170
     0
171
     0
290
     0
174
     0
 93
        1
 44
50.0
173
     0
291
     1
 45
0.0
1001
ACAD
1000
AcDbSavedByObjectVersion
1070
     0
  0
VISUALSTYLE
  5
3A
102
{ACAD_REACTORS
330
2A
102
}
330
2A
100
AcDbVisualStyle
  2
ColorChange
 70
    16
 71
     2
 72
     2
 73
     3
 90
        0
 40
-0.6
 41
-30.0
 62
     5
 63
     8
421
  8421504
 74
     1
 91
        4
 64
     7
 65
   257
 75
     1
175
     1
 42
1.0
 92
        8
 66
     8
424
  8421504
 43
1.0
 76
     1
 77
     6
 78
     2
 67
     7
 79
     5
170
     0
171
     0
290
     0
174
     0
 93
        1
 44
0.0
173
     0
291
     1
 45
0.0
1001
ACAD
1000
AcDbSavedByObjectVersion
1070
     0
  0
VISUALSTYLE
  5
34
102
{ACAD_REACTORS
330
2A
102
}
330
2A
100
AcDbVisualStyle
  2
Conceptual
 70
     9
 71
     3
 72
     2
 73
     0
 90
        0
 40
-0.6
 41
-30.0
 62
     5
 63
     7
421
 16777215
 74
     2
 91
        2
 64
     7
 65
   257
 75
     1
175
     1
 42
40.0
 92
        8
 66
     7
 43
1.0
 76
     1
 77
     6
 78
     2
 67
     7
 79
     3
170
     0
171
     0
290
     0
174
     0
 93
        1
 44
0.0
173
     0
291
     0
 45
0.0
1001
ACAD
1000
AcDbSavedByObjectVersion
1070
     0
  0
VISUALSTYLE
  5
35
102
{ACAD_REACTORS
330
2A
102
}
330
2A
100
AcDbVisualStyle
  2
Dim
 70
    11
 71
     2
 72
     2
 73
     0
 90
        0
 40
-0.6
 41
-30.0
 62
     5
 63
     7
421
 16777215
 74
     1
 91
        4
 64
     7
 65
   257
 75
     1
175
     1
 42
1.0
 92
        8
 66
     7
 43
1.0
 76
     1
 77
     6
 78
     2
 67
     7
 79
     5
170
     0
171
     0
290
     0
174
     0
 93
        1
 44
-50.0
173
     0
291
     1
 45
0.0
1001
ACAD
1000
AcDbSavedByObjectVersion
1070
     0
  0
VISUALSTYLE
  5
39
102
{ACAD_REACTORS
330
2A
102
}
330
2A
100
AcDbVisualStyle
  2
Facepattern
 70
    15
 71
     2
 72
     2
 73
     0
 90
        0
 40
-0.6
 41
-30.0
 62
     5
 63
     7
421
 16777215
 74
     1
 91
        4
 64
     7
 65
   257
 75
     1
175
     1
 42
1.0
 92
        8
 66
     7
 43
1.0
 76
     1
 77
     6
 78
     2
 67
     7
 79
     5
170
     0
171
     0
290
     0
174
     0
 93
        1
 44
0.0
173
     0
291
     1
 45
0.0
1001
ACAD
1000
AcDbSavedByObjectVersion
1070
     0
  0
VISUALSTYLE
  5
2B
102
{ACAD_REACTORS
330
2A
102
}
330
2A
100
AcDbVisualStyle
  2
Flat
 70
     0
 71
     2
 72
     1
 73
     1
 90
        2
 40
-0.6
 41
30.0
 62
     5
 63
     7
421
 16777215
 74
     0
 91
        4
 64
     7
 65
   257
 75
     1
175
     1
 42
1.0
 92
        8
 66
     7
 43
1.0
 76
     1
 77
     6
 78
     2
 67
     7
 79
     5
170
     0
171
     0
290
     0
174
     0
 93
       13
 44
0.0
173
     0
291
     1
 45
0.0
1001
ACAD
1000
AcDbSavedByObjectVersion
1070
     0
  0
VISUALSTYLE
  5
2C
102
{ACAD_REACTORS
330
2A
102
}
330
2A
100
AcDbVisualStyle
  2
FlatWithEdges
 70
     1
 71
     2
 72
     1
 73
     1
 90
        2
 40
-0.6
 41
30.0
 62
     5
 63
     7
421
 16777215
 74
     1
 91
        4
 64
     7
 65
   257
 75
     1
175
     1
 42
1.0
 92
        0
 66
   257
 43
1.0
 76
     1
 77
     6
 78
     2
 67
     7
 79
     5
170
     0
171
     0
290
     0
174
     0
 93
       13
 44
0.0
173
     0
291
     1
 45
0.0
1001
ACAD
1000
AcDbSavedByObjectVersion
1070
     0
  0
VISUALSTYLE
  5
2D
102
{ACAD_REACTORS
330
2A
102
}
330
2A
100
AcDbVisualStyle
  2
Gouraud
 70
     2
 71
     2
 72
     2
 73
     1
 90
        2
 40
-0.6
 41
30.0
 62
     5
 63
     7
421
 16777215
 74
     0
 91
        4
 64
     7
 65
   257
 75
     1
175
     1
 42
1.0
 92
        0
 66
     7
 43
1.0
 76
     1
 77
     6
 78
     2
 67
     7
 79
     5
170
     0
171
     0
290
     0
174
     0
 93
       13
 44
0.0
173
     0
291
     1
 45
0.0
1001
ACAD
1000
AcDbSavedByObjectVersion
1070
     0
  0
VISUALSTYLE
  5
2E
102
{ACAD_REACTORS
330
2A
102
}
330
2A
100
AcDbVisualStyle
  2
GouraudWithEdges
 70
     3
 71
     2
 72
     2
 73
     1
 90
        2
 40
-0.6
 41
30.0
 62
     5
 63
     7
421
 16777215
 74
     1
 91
        4
 64
     7
 65
   257
 75
     1
175
     1
 42
1.0
 92
        0
 66
   257
 43
1.0
 76
     1
 77
     6
 78
     2
 67
     7
 79
     5
170
     0
171
     0
290
     0
174
     0
 93
       13
 44
0.0
173
     0
291
     1
 45
0.0
1001
ACAD
1000
AcDbSavedByObjectVersion
1070
     0
  0
VISUALSTYLE
  5
38
102
{ACAD_REACTORS
330
2A
102
}
330
2A
100
AcDbVisualStyle
  2
Linepattern
 70
    14
 71
     2
 72
     2
 73
     0
 90
        0
 40
-0.6
 41
-30.0
 62
     5
 63
     7
421
 16777215
 74
     1
 91
        4
 64
     7
 65
   257
 75
     7
175
     7
 42
1.0
 92
        8
 66
     7
 43
1.0
 76
     1
 77
     6
 78
     2
 67
     7
 79
     5
170
     0
171
     0
290
     0
174
     0
 93
        1
 44
0.0
173
     0
291
     1
 45
0.0
1001
ACAD
1000
AcDbSavedByObjectVersion
1070
     0
  0
VISUALSTYLE
  5
33
102
{ACAD_REACTORS
330
2A
102
}
330
2A
100
AcDbVisualStyle
  2
Realistic
 70
     8
 71
     2
 72
     2
 73
     0
 90
        0
 40
-0.6
 41
-30.0
 62
     5
 63
     7
421
 16777215
 74
     1
 91
        0
 64
     7
 65
   257
 75
     1
175
     1
 42
1.0
 92
        8
 66
     8
424
  7895160
 43
1.0
 76
     1
 77
     6
 78
     2
 67
     7
 79
     5
170
     0
171
     0
290
     0
174
     0
 93
       13
 44
0.0
173
     0
291
     0
 45
0.0
1001
ACAD
1000
AcDbSavedByObjectVersion
1070
     0
  0
VISUALSTYLE
  5
37
102
{ACAD_REACTORS
330
2A
102
}
330
2A
100
AcDbVisualStyle
  2
Thicken
 70
    13
 71
     2
 72
     2
 73
     0
 90
        0
 40
-0.6
 41
-30.0
 62
     5
 63
     7
421
 16777215
 74
     1
 91
        4
 64
     7
 65
   257
 75
     1
175
     1
 42
1.0
 92
       12
 66
     7
 43
1.0
 76
     1
 77
     6
 78
     2
 67
     7
 79
     5
170
     0
171
     0
290
     0
174
     0
 93
        1
 44
0.0
173
     0
291
     1
 45
0.0
1001
ACAD
1000
AcDbSavedByObjectVersion
1070
     0
  0
ENDSEC
  0
EOF
