*
*
G04 PADS Layout (Build Number 2007.45.1) generated Gerber (RS-274-X) file*
G04 PC Version=2.1*
*
%IN "ibob2.pcb"*%
*
%MOIN*%
*
%FSLAX35Y35*%
*
*
*
*
G04 PC Standard Apertures*
*
*
G04 Thermal Relief Aperture macro.*
%AMTER*
1,1,$1,0,0*
1,0,$1-$2,0,0*
21,0,$3,$4,0,0,45*
21,0,$3,$4,0,0,135*
%
*
*
G04 Annular Aperture macro.*
%AMANN*
1,1,$1,0,0*
1,0,$2,0,0*
%
*
*
G04 Odd Aperture macro.*
%AMODD*
1,1,$1,0,0*
1,0,$1-0.005,0,0*
%
*
*
G04 PC Custom Aperture Macros*
*
*
*
*
*
*
G04 PC Aperture Table*
*
%ADD010C,0.01*%
%ADD011C,0.005*%
%ADD012C,0.1*%
%ADD013C,0.04*%
*
*
*
*
G04 PC Copper Outlines (0)*
G04 Layer Name ibob2.pcb - dark (0)*
%LPD*%
*
*
G04 PC Area=Custom_Thermal*
*
G04 PC Custom Flashes*
G04 Layer Name ibob2.pcb - flashes*
%LPD*%
*
*
G04 PC Circuitry*
G04 Layer Name ibob2.pcb - circuitry*
%LPD*%
*
G54D10*
G01X1462500Y2040000D02*
G75*
G03X1462500I-5000J0D01*
G01X1952500D02*
G03X1952500I-5000J0D01*
G01X2572500D02*
G03X2572500I-5000J0D01*
G01X1462500Y1430000D02*
G03X1462500I-5000J0D01*
G01X1952500D02*
G03X1952500I-5000J0D01*
G01X2572500D02*
G03X2572500I-5000J0D01*
G01X1462500Y1145000D02*
G03X1462500I-5000J0D01*
G01X1952500D02*
G03X1952500I-5000J0D01*
G01X2572500D02*
G03X2572500I-5000J0D01*
G01X1465000Y2049063D02*
X1468182Y2042500D01*
Y2049063D02*
X1465000Y2042500D01*
X1470227Y2047813D02*
X1470682Y2048125D01*
X1471364Y2049063*
X1471364D02*
Y2042500D01*
X1955000Y2049063D02*
X1958182Y2042500D01*
Y2049063D02*
X1955000Y2042500D01*
X1960455Y2047500D02*
Y2047813D01*
X1960455D02*
X1960682Y2048438D01*
X1960682D02*
X1960909Y2048750D01*
X1961364Y2049063*
X1961364D02*
X1962273D01*
X1962273D02*
X1962727Y2048750D01*
X1962955Y2048438*
X1962955D02*
X1963182Y2047813D01*
X1963182D02*
Y2047188D01*
X1963182D02*
X1962955Y2046563D01*
X1962955D02*
X1962500Y2045625D01*
X1960227Y2042500*
X1963409*
X2575000Y2049063D02*
X2578182Y2042500D01*
Y2049063D02*
X2575000Y2042500D01*
X2580682Y2049063D02*
X2583182D01*
X2583182D02*
X2581818Y2046563D01*
X2581818D02*
X2582500D01*
X2582500D02*
X2582955Y2046250D01*
X2583182Y2045938*
X2583182D02*
X2583409Y2045000D01*
Y2044375*
X2583182Y2043438*
X2583182D02*
X2582727Y2042813D01*
X2582727D02*
X2582045Y2042500D01*
X2581364*
X2580682Y2042813*
X2580682D02*
X2580455Y2043125D01*
X2580227Y2043750*
X1465000Y1439063D02*
X1468182Y1432500D01*
Y1439063D02*
X1465000Y1432500D01*
X1472500Y1439063D02*
X1470227Y1434688D01*
X1470227D02*
X1473636D01*
X1472500Y1439063D02*
Y1432500D01*
X1955000Y1439063D02*
X1958182Y1432500D01*
Y1439063D02*
X1955000Y1432500D01*
X1963182Y1439063D02*
X1960909D01*
X1960909D02*
X1960682Y1436250D01*
X1960909Y1436563*
X1960909D02*
X1961591Y1436875D01*
X1962273*
X1962955Y1436563*
X1962955D02*
X1963409Y1435938D01*
X1963409D02*
X1963636Y1435000D01*
X1963409Y1434375*
X1963182Y1433438*
X1963182D02*
X1962727Y1432813D01*
X1962727D02*
X1962045Y1432500D01*
X1961364*
X1960682Y1432813*
X1960682D02*
X1960455Y1433125D01*
X1960227Y1433750*
X2575000Y1439063D02*
X2578182Y1432500D01*
Y1439063D02*
X2575000Y1432500D01*
X2582955Y1438125D02*
X2582727Y1438750D01*
X2582045Y1439063*
X2582045D02*
X2581591D01*
X2581591D02*
X2580909Y1438750D01*
X2580455Y1437813*
X2580455D02*
X2580227Y1436250D01*
Y1434688*
X2580227D02*
X2580455Y1433438D01*
X2580455D02*
X2580909Y1432813D01*
X2580909D02*
X2581591Y1432500D01*
X2581818*
X2582500Y1432813*
X2582500D02*
X2582955Y1433438D01*
X2582955D02*
X2583182Y1434375D01*
Y1434688*
X2583182D02*
X2582955Y1435625D01*
X2582500Y1436250*
X2581818Y1436563*
X2581818D02*
X2581591D01*
X2581591D02*
X2580909Y1436250D01*
X2580455Y1435625*
X2580227Y1434688*
X1465000Y1154063D02*
X1468182Y1147500D01*
Y1154063D02*
X1465000Y1147500D01*
X1473409Y1154063D02*
X1471136Y1147500D01*
X1470227Y1154063D02*
X1473409D01*
X1955000D02*
X1958182Y1147500D01*
Y1154063D02*
X1955000Y1147500D01*
X1961364Y1154063D02*
X1960682Y1153750D01*
X1960455Y1153125*
Y1152500*
X1960682Y1151875*
X1961136Y1151563*
X1961136D02*
X1962045Y1151250D01*
X1962727Y1150938*
X1962727D02*
X1963182Y1150313D01*
X1963182D02*
X1963409Y1149688D01*
X1963409D02*
Y1148750D01*
X1963182Y1148125*
X1962955Y1147813*
X1962955D02*
X1962273Y1147500D01*
X1961364*
X1960682Y1147813*
X1960682D02*
X1960455Y1148125D01*
X1960227Y1148750*
Y1149688*
X1960227D02*
X1960455Y1150313D01*
X1960455D02*
X1960909Y1150938D01*
X1960909D02*
X1961591Y1151250D01*
X1962500Y1151563*
X1962500D02*
X1962955Y1151875D01*
X1963182Y1152500*
Y1153125*
X1962955Y1153750*
X1962273Y1154063*
X1962273D02*
X1961364D01*
X2575000D02*
X2578182Y1147500D01*
Y1154063D02*
X2575000Y1147500D01*
X2583182Y1151875D02*
X2582955Y1150938D01*
X2582955D02*
X2582500Y1150313D01*
X2582500D02*
X2581818Y1150000D01*
X2581591*
X2580909Y1150313*
X2580909D02*
X2580455Y1150938D01*
X2580455D02*
X2580227Y1151875D01*
Y1152188*
X2580227D02*
X2580455Y1153125D01*
X2580909Y1153750*
X2581591Y1154063*
X2581591D02*
X2581818D01*
X2581818D02*
X2582500Y1153750D01*
X2582955Y1153125*
X2583182Y1151875*
Y1150313*
X2583182D02*
X2582955Y1148750D01*
X2582500Y1147813*
X2582500D02*
X2581818Y1147500D01*
X2581364*
X2580682Y1147813*
X2580682D02*
X2580455Y1148438D01*
X1897500Y1921563D02*
Y1915000D01*
X1900227*
X1903636Y1921563D02*
X1903182Y1921250D01*
X1902727Y1920625*
X1902500Y1920000*
X1902273Y1919063*
X1902273D02*
Y1917500D01*
X1902500Y1916563*
X1902500D02*
X1902727Y1915938D01*
X1902727D02*
X1903182Y1915313D01*
X1903182D02*
X1903636Y1915000D01*
X1904545*
X1905000Y1915313*
X1905000D02*
X1905455Y1915938D01*
X1905455D02*
X1905682Y1916563D01*
X1905682D02*
X1905909Y1917500D01*
Y1919063*
X1905909D02*
X1905682Y1920000D01*
X1905455Y1920625*
X1905000Y1921250*
X1904545Y1921563*
X1904545D02*
X1903636D01*
X1911364Y1920000D02*
X1911136Y1920625D01*
X1910682Y1921250*
X1910227Y1921563*
X1910227D02*
X1909318D01*
X1909318D02*
X1908864Y1921250D01*
X1908409Y1920625*
X1908182Y1920000*
X1907955Y1919063*
X1907955D02*
Y1917500D01*
X1908182Y1916563*
X1908182D02*
X1908409Y1915938D01*
X1908409D02*
X1908864Y1915313D01*
X1908864D02*
X1909318Y1915000D01*
X1910227*
X1910682Y1915313*
X1910682D02*
X1911136Y1915938D01*
X1911136D02*
X1911364Y1916563D01*
X1915227Y1921563D02*
X1913409Y1915000D01*
X1915227Y1921563D02*
X1917045Y1915000D01*
X1914091Y1917188D02*
X1916364D01*
X1920682Y1921563D02*
Y1915000D01*
X1919091Y1921563D02*
X1922273D01*
X1924318D02*
Y1915000D01*
X1927727Y1921563D02*
X1927273Y1921250D01*
X1926818Y1920625*
X1926591Y1920000*
X1926364Y1919063*
X1926364D02*
Y1917500D01*
X1926591Y1916563*
X1926591D02*
X1926818Y1915938D01*
X1926818D02*
X1927273Y1915313D01*
X1927273D02*
X1927727Y1915000D01*
X1928636*
X1929091Y1915313*
X1929091D02*
X1929545Y1915938D01*
X1929545D02*
X1929773Y1916563D01*
X1929773D02*
X1930000Y1917500D01*
Y1919063*
X1930000D02*
X1929773Y1920000D01*
X1929545Y1920625*
X1929091Y1921250*
X1928636Y1921563*
X1928636D02*
X1927727D01*
X1932045D02*
Y1915000D01*
Y1921563D02*
X1935227Y1915000D01*
Y1921563D02*
Y1915000D01*
X1943864Y1921563D02*
X1943409Y1921250D01*
X1942955Y1920625*
X1942727Y1920000*
X1942500Y1919063*
X1942500D02*
Y1917500D01*
X1942727Y1916563*
X1942727D02*
X1942955Y1915938D01*
X1942955D02*
X1943409Y1915313D01*
X1943409D02*
X1943864Y1915000D01*
X1944773*
X1945227Y1915313*
X1945227D02*
X1945682Y1915938D01*
X1945682D02*
X1945909Y1916563D01*
X1945909D02*
X1946136Y1917500D01*
Y1919063*
X1946136D02*
X1945909Y1920000D01*
X1945682Y1920625*
X1945227Y1921250*
X1944773Y1921563*
X1944773D02*
X1943864D01*
X1948182D02*
Y1915000D01*
Y1921563D02*
X1951136D01*
X1948182Y1918438D02*
X1950000D01*
X1958409Y1921563D02*
Y1915000D01*
Y1921563D02*
X1960455D01*
X1960455D02*
X1961136Y1921250D01*
X1961364Y1920938*
X1961364D02*
X1961591Y1920313D01*
X1961591D02*
Y1919375D01*
X1961364Y1918750*
X1961136Y1918438*
X1961136D02*
X1960455Y1918125D01*
X1958409*
X1963636Y1921563D02*
Y1915000D01*
X1965682Y1921563D02*
Y1915000D01*
Y1921563D02*
X1968864Y1915000D01*
Y1921563D02*
Y1915000D01*
X1976136Y1920313D02*
X1976591Y1920625D01*
X1977273Y1921563*
X1977273D02*
Y1915000D01*
X1985909Y1921563D02*
X1985455Y1921250D01*
X1985000Y1920625*
X1984773Y1920000*
X1984545Y1919063*
X1984545D02*
Y1917500D01*
X1984773Y1916563*
X1984773D02*
X1985000Y1915938D01*
X1985000D02*
X1985455Y1915313D01*
X1985455D02*
X1985909Y1915000D01*
X1986818*
X1987273Y1915313*
X1987273D02*
X1987727Y1915938D01*
X1987727D02*
X1987955Y1916563D01*
X1987955D02*
X1988182Y1917500D01*
Y1919063*
X1988182D02*
X1987955Y1920000D01*
X1987727Y1920625*
X1987273Y1921250*
X1986818Y1921563*
X1986818D02*
X1985909D01*
X1990227D02*
Y1915000D01*
Y1921563D02*
X1993182D01*
X1990227Y1918438D02*
X1992045D01*
X2000455Y1921563D02*
Y1915000D01*
Y1921563D02*
X2002500D01*
X2002500D02*
X2003182Y1921250D01*
X2003409Y1920938*
X2003409D02*
X2003636Y1920313D01*
X2003636D02*
Y1919375D01*
X2003409Y1918750*
X2003182Y1918438*
X2003182D02*
X2002500Y1918125D01*
X2000455*
X2009091Y1920000D02*
X2008864Y1920625D01*
X2008409Y1921250*
X2007955Y1921563*
X2007955D02*
X2007045D01*
X2007045D02*
X2006591Y1921250D01*
X2006136Y1920625*
X2005909Y1920000*
X2005682Y1919063*
X2005682D02*
Y1917500D01*
X2005909Y1916563*
X2005909D02*
X2006136Y1915938D01*
X2006136D02*
X2006591Y1915313D01*
X2006591D02*
X2007045Y1915000D01*
X2007955*
X2008409Y1915313*
X2008409D02*
X2008864Y1915938D01*
X2008864D02*
X2009091Y1916563D01*
X2011136Y1921563D02*
Y1915000D01*
X2021591Y1920625D02*
X2021136Y1921250D01*
X2020455Y1921563*
X2020455D02*
X2019545D01*
X2019545D02*
X2018864Y1921250D01*
X2018409Y1920625*
Y1920000*
X2018636Y1919375*
X2018864Y1919063*
X2018864D02*
X2019318Y1918750D01*
X2020682Y1918125*
X2021136Y1917813*
X2021136D02*
X2021364Y1917500D01*
X2021591Y1916875*
Y1915938*
X2021591D02*
X2021136Y1915313D01*
X2021136D02*
X2020455Y1915000D01*
X2019545*
X2018864Y1915313*
X2018864D02*
X2018409Y1915938D01*
X2023636Y1921563D02*
Y1915000D01*
X2026364*
X2029773Y1921563D02*
X2029318Y1921250D01*
X2028864Y1920625*
X2028636Y1920000*
X2028409Y1919063*
X2028409D02*
Y1917500D01*
X2028636Y1916563*
X2028636D02*
X2028864Y1915938D01*
X2028864D02*
X2029318Y1915313D01*
X2029318D02*
X2029773Y1915000D01*
X2030682*
X2031136Y1915313*
X2031136D02*
X2031591Y1915938D01*
X2031591D02*
X2031818Y1916563D01*
X2031818D02*
X2032045Y1917500D01*
Y1919063*
X2032045D02*
X2031818Y1920000D01*
X2031591Y1920625*
X2031136Y1921250*
X2030682Y1921563*
X2030682D02*
X2029773D01*
X2035682D02*
Y1915000D01*
X2034091Y1921563D02*
X2037273D01*
X2046136Y1922813D02*
X2045682Y1922188D01*
X2045682D02*
X2045227Y1921250D01*
X2044773Y1920000*
X2044545Y1918438*
X2044545D02*
Y1917188D01*
X2044545D02*
X2044773Y1915625D01*
X2045227Y1914375*
X2045682Y1913437*
X2045682D02*
X2046136Y1912812D01*
X2050455Y1921563D02*
X2048182Y1917188D01*
X2048182D02*
X2051591D01*
X2050455Y1921563D02*
Y1915000D01*
X2054091Y1921563D02*
X2056591D01*
X2056591D02*
X2055227Y1919063D01*
X2055227D02*
X2055909D01*
X2055909D02*
X2056364Y1918750D01*
X2056591Y1918438*
X2056591D02*
X2056818Y1917500D01*
Y1916875*
X2056591Y1915938*
X2056591D02*
X2056136Y1915313D01*
X2056136D02*
X2055455Y1915000D01*
X2054773*
X2054091Y1915313*
X2054091D02*
X2053864Y1915625D01*
X2053636Y1916250*
X2058864Y1920313D02*
X2059318Y1920625D01*
X2060000Y1921563*
X2060000D02*
Y1915000D01*
X2062273Y1920000D02*
Y1920313D01*
X2062273D02*
X2062500Y1920938D01*
X2062500D02*
X2062727Y1921250D01*
X2063182Y1921563*
X2063182D02*
X2064091D01*
X2064091D02*
X2064545Y1921250D01*
X2064773Y1920938*
X2064773D02*
X2065000Y1920313D01*
X2065000D02*
Y1919688D01*
X2065000D02*
X2064773Y1919063D01*
X2064773D02*
X2064318Y1918125D01*
X2062045Y1915000*
X2065227*
X2067727Y1915313D02*
X2067500Y1915000D01*
X2067273Y1915313*
X2067273D02*
X2067500Y1915625D01*
X2067727Y1915313*
X2067727D02*
Y1914687D01*
X2067727D02*
X2067500Y1914062D01*
X2067500D02*
X2067273Y1913750D01*
X2069773Y1917813D02*
X2073864D01*
X2075909Y1920313D02*
X2076364Y1920625D01*
X2077045Y1921563*
X2077045D02*
Y1915000D01*
X2079318Y1920000D02*
Y1920313D01*
X2079318D02*
X2079545Y1920938D01*
X2079545D02*
X2079773Y1921250D01*
X2080227Y1921563*
X2080227D02*
X2081136D01*
X2081136D02*
X2081591Y1921250D01*
X2081818Y1920938*
X2081818D02*
X2082045Y1920313D01*
X2082045D02*
Y1919688D01*
X2082045D02*
X2081818Y1919063D01*
X2081818D02*
X2081364Y1918125D01*
X2079091Y1915000*
X2082273*
X2084545Y1920000D02*
Y1920313D01*
X2084545D02*
X2084773Y1920938D01*
X2084773D02*
X2085000Y1921250D01*
X2085455Y1921563*
X2085455D02*
X2086364D01*
X2086364D02*
X2086818Y1921250D01*
X2087045Y1920938*
X2087045D02*
X2087273Y1920313D01*
X2087273D02*
Y1919688D01*
X2087273D02*
X2087045Y1919063D01*
X2087045D02*
X2086591Y1918125D01*
X2084318Y1915000*
X2087500*
X2092500Y1921563D02*
X2090227D01*
X2090227D02*
X2090000Y1918750D01*
X2090227Y1919063*
X2090227D02*
X2090909Y1919375D01*
X2091591*
X2092273Y1919063*
X2092273D02*
X2092727Y1918438D01*
X2092727D02*
X2092955Y1917500D01*
X2092727Y1916875*
X2092500Y1915938*
X2092500D02*
X2092045Y1915313D01*
X2092045D02*
X2091364Y1915000D01*
X2090682*
X2090000Y1915313*
X2090000D02*
X2089773Y1915625D01*
X2089545Y1916250*
X2095000Y1922813D02*
X2095455Y1922188D01*
X2095455D02*
X2095909Y1921250D01*
X2096364Y1920000*
X2096591Y1918438*
X2096591D02*
Y1917188D01*
X2096591D02*
X2096364Y1915625D01*
X2095909Y1914375*
X2095455Y1913437*
X2095455D02*
X2095000Y1912812D01*
X2103864Y1921563D02*
Y1915000D01*
Y1921563D02*
X2106818D01*
X2103864Y1918438D02*
X2105682D01*
X2108864Y1921563D02*
Y1915000D01*
Y1921563D02*
X2110909D01*
X2110909D02*
X2111591Y1921250D01*
X2111818Y1920938*
X2111818D02*
X2112045Y1920313D01*
X2112045D02*
Y1919688D01*
X2112045D02*
X2111818Y1919063D01*
X2111818D02*
X2111591Y1918750D01*
X2110909Y1918438*
X2110909D02*
X2108864D01*
X2110455D02*
X2112045Y1915000D01*
X2115455Y1921563D02*
X2115000Y1921250D01*
X2114545Y1920625*
X2114318Y1920000*
X2114091Y1919063*
X2114091D02*
Y1917500D01*
X2114318Y1916563*
X2114318D02*
X2114545Y1915938D01*
X2114545D02*
X2115000Y1915313D01*
X2115000D02*
X2115455Y1915000D01*
X2116364*
X2116818Y1915313*
X2116818D02*
X2117273Y1915938D01*
X2117273D02*
X2117500Y1916563D01*
X2117500D02*
X2117727Y1917500D01*
Y1919063*
X2117727D02*
X2117500Y1920000D01*
X2117273Y1920625*
X2116818Y1921250*
X2116364Y1921563*
X2116364D02*
X2115455D01*
X2119773D02*
Y1915000D01*
Y1921563D02*
X2121591Y1915000D01*
X2123409Y1921563D02*
X2121591Y1915000D01*
X2123409Y1921563D02*
Y1915000D01*
X2130682Y1921563D02*
X2133864Y1915000D01*
Y1921563D02*
X2130682Y1915000D01*
X2135909Y1920313D02*
X2136364Y1920625D01*
X2137045Y1921563*
X2137045D02*
Y1915000D01*
X1392500Y2080000D02*
X2607500D01*
Y1120000*
X1392500*
Y2080000*
G54D11*
X1885419Y1918636D02*
X1887919D01*
X1888387Y1918523*
X1888387D02*
X1888544Y1918409D01*
X1888700Y1918182*
Y1917955*
X1888544Y1917727*
X1888387Y1917614*
X1888387D02*
X1887919Y1917500D01*
X1887606*
X1886044Y1919659D02*
X1885887Y1919886D01*
X1885887D02*
X1885419Y1920227D01*
X1888700*
G54D12*
X1457500Y2040000D03*
X1947500D03*
X2567500D03*
X1457500Y1430000D03*
X1947500D03*
X2567500D03*
X1457500Y1145000D03*
X1947500D03*
X2567500D03*
G54D13*
X1888700Y1917500D03*
X1878700Y1912500D03*
X1868700Y1917500D03*
X1858700Y1912500D03*
X1888700Y1907500D03*
X1878700Y1902500D03*
X1868700Y1907500D03*
X1858700Y1902500D03*
X1888700Y1897500D03*
X1878700Y1892500D03*
X1868700Y1897500D03*
X1858700Y1892500D03*
X1888700Y1887500D03*
X1878700Y1882500D03*
X1868700Y1887500D03*
X1858700Y1882500D03*
X1888700Y1877500D03*
X1878700Y1872500D03*
X1868700Y1877500D03*
X1858700Y1872500D03*
X1888700Y1867500D03*
X1868700D03*
X1878700Y1852500D03*
X1858700D03*
X1888700Y1847500D03*
X1878700Y1842500D03*
X1868700Y1847500D03*
X1858700Y1842500D03*
X1888700Y1837500D03*
X1878700Y1832500D03*
X1868700Y1837500D03*
X1858700Y1832500D03*
X1888700Y1827500D03*
X1878700Y1822500D03*
X1868700Y1827500D03*
X1858700Y1822500D03*
X1888700Y1817500D03*
X1878700Y1812500D03*
X1868700Y1817500D03*
X1858700Y1812500D03*
X1888700Y1807500D03*
X1878700Y1802500D03*
X1868700Y1807500D03*
X1858700Y1802500D03*
X1888700Y1797500D03*
X1878700Y1792500D03*
X1868700Y1797500D03*
X1858700Y1792500D03*
X1888700Y1787500D03*
X1878700Y1782500D03*
X1868700Y1787500D03*
X1858700Y1782500D03*
X1888700Y1777500D03*
X1878700Y1772500D03*
X1868700Y1777500D03*
X1858700Y1772500D03*
X1888700Y1767500D03*
X1878700Y1762500D03*
X1868700Y1767500D03*
X1858700Y1762500D03*
X1888700Y1757500D03*
X1878700Y1752500D03*
X1868700Y1757500D03*
X1858700Y1752500D03*
X1888700Y1747500D03*
X1878700Y1742500D03*
X1868700Y1747500D03*
X1858700Y1742500D03*
X1888700Y1737500D03*
X1878700Y1732500D03*
X1868700Y1737500D03*
X1858700Y1732500D03*
X1888700Y1727500D03*
X1878700Y1722500D03*
X1868700Y1727500D03*
X1858700Y1722500D03*
X1888700Y1717500D03*
X1878700Y1712500D03*
X1868700Y1717500D03*
X1858700Y1712500D03*
X1888700Y1707500D03*
X1878700Y1702500D03*
X1868700Y1707500D03*
X1858700Y1702500D03*
X1888700Y1697500D03*
X1878700Y1692500D03*
X1868700Y1697500D03*
X1858700Y1692500D03*
X1888700Y1687500D03*
X1878700Y1682500D03*
X1868700Y1687500D03*
X1858700Y1682500D03*
X1888700Y1677500D03*
X1878700Y1672500D03*
X1868700Y1677500D03*
X1858700Y1672500D03*
X1888700Y1667500D03*
X1878700Y1662500D03*
X1868700Y1667500D03*
X1858700Y1662500D03*
X1888700Y1657500D03*
X1878700Y1652500D03*
X1868700Y1657500D03*
X1858700Y1652500D03*
X1888700Y1647500D03*
X1878700Y1642500D03*
X1868700Y1647500D03*
X1858700Y1642500D03*
X1888700Y1637500D03*
X1878700Y1632500D03*
X1868700Y1637500D03*
X1858700Y1632500D03*
X1888700Y1627500D03*
X1878700Y1622500D03*
X1868700Y1627500D03*
X1858700Y1622500D03*
X1888700Y1617500D03*
X1878700Y1612500D03*
X1868700Y1617500D03*
X1858700Y1612500D03*
X1873700Y1860000D03*
Y1605000D03*
G74*
X0Y0D02*
M02*
